<svg width="437" height="476" viewBox="0 0 437 476" fill="none" xmlns="http://www.w3.org/2000/svg">
<path d="M309.36 8.23915C208.839 29.0285 168.618 -20.4053 94.5561 10.4244C14.4107 43.7937 49.4337 108.17 15.2966 179.338C-18.8405 250.506 25.1007 357.052 122.137 342.346C219.174 327.639 289.87 389.24 373.736 337.03C438.644 296.692 416.555 221.094 431.852 153.292C447.621 83.4825 427.245 -16.1529 309.36 8.23915Z" fill="#E3F3FF"/>
<path d="M203.523 476C315.926 476 407.046 471.452 407.046 465.842C407.046 460.231 315.926 455.683 203.523 455.683C91.1204 455.683 0 460.231 0 465.842C0 471.452 91.1204 476 203.523 476Z" fill="#E3F3FF"/>
<path d="M167.083 248.144L161.827 357.642L143.931 454.502H117.885L118.535 346.244L107.55 247.435L167.083 248.144Z" fill="#241539"/>
<path d="M90.1269 248.439L106.369 344.295L71.1094 431.114L92.6075 441.863L148.538 350.968L156.452 247.435L90.1269 248.439Z" fill="#241539"/>
<path d="M112.688 80.4704L139.502 87.4987C144.935 88.9161 148.006 94.645 146.175 99.9014L101.703 231.548L66.7387 219.263C55.6944 215.365 49.7883 203.317 53.5682 192.213L80.9724 111.536L79.7911 111.123C77.0743 110.178 75.6569 107.225 76.6019 104.508L78.669 98.6021C83.512 84.6047 98.3362 76.6906 112.688 80.4704Z" fill="#6B3EAC"/>
<path d="M104.006 224.815L53.6274 206.034C55.6946 211.999 60.3604 217.078 66.798 219.322L101.762 231.607L104.006 224.815Z" fill="#281348"/>
<path d="M197.44 177.389L213.977 151.166C213.977 151.166 191.829 114.489 163.067 106.811C140.978 100.905 127.867 110.532 119.362 124.234C100.404 154.769 90.127 183.177 90.127 212.294C90.127 241.411 90.127 248.439 90.127 248.439H171.808L169.091 196.111C169.091 196.111 181.494 170.065 182.557 156.6L197.44 177.389Z" fill="#3BADBF"/>
<path d="M94.2611 249.089C97.8047 269.465 103.534 289.427 109.44 309.272C112.097 318.249 114.873 327.226 117.59 336.203C119.067 341.046 120.72 345.889 121.665 350.85C122.61 355.752 122.61 360.832 122.433 365.793C122.02 377.605 118.889 389.122 117.354 400.816C117.295 401.465 118.299 401.465 118.417 400.816C119.775 390.244 122.492 379.849 123.319 369.218C123.673 364.611 123.732 359.887 123.378 355.28C122.965 349.964 121.311 344.885 119.834 339.747C114.165 320.729 108.14 301.771 103.002 282.576C100.049 271.414 97.3323 260.192 95.3242 248.793C95.147 248.144 94.143 248.439 94.2611 249.089Z" fill="white"/>
<path d="M213.977 151.166L228.034 166.758L275.105 172.015L278.117 186.012L222.6 188.552C218.407 189.792 215.867 188.256 211.438 188.256L199.271 173.55L213.977 151.166Z" fill="#7776B2"/>
<path d="M143.931 454.502L163.48 465.723C165.547 466.905 164.72 470.094 162.299 470.094H122.019C119.716 470.094 117.826 468.204 117.826 465.901V454.502H143.931Z" fill="#6B3EAC"/>
<path d="M92.6073 441.863L94.4972 458.695L100.58 467.023C101.525 468.322 100.58 470.094 99.0449 470.094H83.9254L66.9159 443.93C66.089 442.69 66.03 441.036 66.6796 439.737L71.1092 431.173L92.6073 441.863Z" fill="#6B3EAC"/>
<path d="M142.159 105.571C142.159 105.571 144.285 114.194 140.624 132.562C136.785 151.934 127.217 174.2 127.217 174.2C127.217 174.2 148.065 158.785 152.554 134.984C157.456 108.583 154.089 104.626 154.089 104.626C154.089 104.626 148.951 103.918 142.159 105.571Z" fill="#281348"/>
<path d="M159.169 105.866L163.008 96.2396L168.56 62.9884H205.473L209.134 92.4006C210.079 99.7832 202.933 105.63 195.905 103.268C194.605 102.854 193.542 102.323 192.775 101.791L183.856 123.467C182.734 126.242 179.132 127.069 176.946 125.061L160.173 110.06C158.992 108.997 158.578 107.284 159.169 105.866Z" fill="#FFC85B"/>
<path d="M157.811 76.9858L161.886 97.3618L167.26 95.7081C170.095 94.8222 172.28 92.4598 172.871 89.5067L174.525 81.4154C174.525 81.4154 178.718 74.0919 183.738 77.5765C188.817 81.061 187.754 84.959 187.754 84.959C187.754 84.959 198.208 79.6436 198.444 72.261C198.444 72.261 213.269 71.5523 211.32 64.8193C209.371 58.0864 193.542 54.0112 193.542 54.0112L157.811 76.9858Z" fill="#720F14"/>
<path d="M158.874 82.2422L156.452 75.0368C155.153 71.1979 155.921 66.9455 158.519 63.7562L169.091 50.8219C171.217 48.2233 174.229 46.6286 177.537 46.2743L189.585 45.034C194.015 44.5615 198.385 46.5696 200.984 50.1723L205.177 56.1374L158.874 82.2422Z" fill="#6B3EAC"/>
<path d="M205.177 56.1964L218.525 47.9279C219.47 47.3373 220.592 48.4004 220.06 49.3454L216.871 55.0742C213.505 61.1575 207.244 65.0555 200.275 65.4099L186.396 66.1777L205.177 56.1964Z" fill="#6B3EAC"/>
<path d="M206.004 97.3027C203.523 97.8933 201.043 96.8302 199.684 94.645C199.33 94.0544 198.444 94.5859 198.798 95.1765C200.393 97.7162 203.346 98.9564 206.299 98.3068C206.89 98.1887 206.653 97.1846 206.004 97.3027Z" fill="#A87714"/>
<path d="M178.718 77.0449C170.449 80.2932 177.596 94.645 185.273 90.9241C185.864 90.6288 185.333 89.7429 184.742 90.0382C178.422 93.1094 172.103 80.7657 178.954 78.0489C179.604 77.8127 179.308 76.8086 178.718 77.0449Z" fill="#A87714"/>
<path d="M181.08 81.947C181.08 81.3564 181.73 81.0611 182.261 81.1202C182.97 81.1792 183.325 81.7698 183.561 82.4195C183.974 83.5416 183.856 84.9 183.915 86.0812C183.974 86.7309 184.978 86.7309 184.978 86.0812C184.919 84.3094 185.155 81.4155 183.266 80.3524C182.025 79.6436 180.017 80.3524 180.076 81.947C180.076 82.5967 181.08 82.5967 181.08 81.947Z" fill="#A87714"/>
<path d="M193.01 101.555C190.175 100.905 187.459 99.8424 184.86 98.4249C184.269 98.1296 183.738 99.0155 184.328 99.3108C186.986 100.787 189.762 101.85 192.715 102.559C193.365 102.736 193.66 101.732 193.01 101.555Z" fill="#A87714"/>
<path d="M103.534 156.895C111.861 161.088 120.071 165.518 128.162 170.243C128.753 170.597 129.284 169.711 128.694 169.357C120.661 164.632 112.452 160.202 104.065 156.009C103.416 155.714 102.884 156.6 103.534 156.895Z" fill="#124D56"/>
<path d="M197.913 171.719C201.575 163.805 207.953 157.545 211.261 149.335C211.497 148.745 210.493 148.449 210.257 149.04C207.067 157.19 200.689 163.333 197.027 171.188C196.732 171.778 197.618 172.31 197.913 171.719Z" fill="#124D56"/>
<path d="M184.21 132.739C185.569 147.504 180.844 163.214 174.525 176.385C174.229 176.976 175.115 177.507 175.41 176.916C181.789 163.569 186.573 147.681 185.214 132.739C185.155 132.03 184.151 132.03 184.21 132.739Z" fill="#124D56"/>
<path d="M164.839 197.529C157.279 198.71 149.778 200.305 142.396 202.313C141.746 202.49 142.041 203.494 142.691 203.317C150.074 201.309 157.574 199.714 165.134 198.533C165.784 198.415 165.488 197.47 164.839 197.529Z" fill="#124D56"/>
<path d="M164.366 192.922C157.397 191.859 150.546 190.205 143.872 187.961C143.222 187.725 142.986 188.729 143.577 188.965C150.251 191.209 157.102 192.863 164.071 193.926C164.721 194.044 165.016 193.04 164.366 192.922Z" fill="#124D56"/>
<path d="M182.439 125.534C182.439 128.251 180.135 129.845 177.714 129.255C176.355 128.959 175.174 127.955 174.052 127.128C171.572 125.357 169.268 123.408 167.024 121.341C162.831 117.442 159.169 113.131 155.979 108.406C155.625 107.875 154.739 108.406 155.094 108.938C159.641 115.553 165.075 121.459 171.394 126.42C173.521 128.073 176.415 131.026 179.427 130.554C181.907 130.141 183.502 127.955 183.502 125.593C183.443 124.884 182.439 124.884 182.439 125.534Z" fill="#124D56"/>
<path d="M266.836 175.322C266.836 177.094 267.073 178.747 268.018 180.283C269.022 181.996 270.498 183.354 271.62 185.008C271.975 185.539 272.861 185.067 272.506 184.476C271.561 183.059 270.439 181.819 269.435 180.519C268.254 178.925 267.9 177.33 267.9 175.322C267.84 174.672 266.836 174.672 266.836 175.322Z" fill="#124D56"/>
<path d="M169.15 244.6C143.754 244.6 118.299 244.6 92.9025 244.6C92.2529 244.6 92.2529 245.663 92.9025 245.663C118.299 245.663 143.754 245.663 169.15 245.663C169.8 245.604 169.8 244.6 169.15 244.6Z" fill="#124D56"/>
<path d="M157.456 365.675C154.916 369.454 151.727 372.644 148.006 375.242C147.475 375.597 148.006 376.542 148.538 376.128C152.377 373.412 155.684 370.104 158.342 366.147C158.696 365.616 157.81 365.084 157.456 365.675Z" fill="white"/>
<path d="M155.448 374.829C154.385 377.546 152.613 379.908 150.31 381.68C149.778 382.094 150.31 382.979 150.841 382.566C153.44 380.617 155.33 378.136 156.452 375.124C156.629 374.475 155.684 374.238 155.448 374.829Z" fill="white"/>
<path d="M74.3576 427.393C80.6181 431.645 87.2329 435.307 94.143 438.26C94.7336 438.496 95.2651 437.611 94.6745 437.374C87.7053 434.421 81.0905 430.819 74.8892 426.507C74.3576 426.094 73.8261 427.039 74.3576 427.393Z" fill="white"/>
<path d="M118.122 450.25C126.213 451.667 134.423 451.844 142.573 450.84C143.223 450.781 143.223 449.718 142.573 449.777C134.482 450.781 126.39 450.604 118.417 449.245C117.767 449.127 117.472 450.131 118.122 450.25Z" fill="white"/>
<path d="M67.5657 440.209C71.8772 447.296 76.2476 454.325 80.5591 461.412C82.0947 463.893 82.9215 465.783 85.9336 466.432C89.9497 467.259 94.0249 467.85 98.0411 468.558C98.6907 468.676 98.986 467.672 98.3364 467.554C94.7337 466.905 91.1309 466.314 87.5873 465.664C85.5202 465.31 84.1618 464.956 82.8034 463.066C81.7403 461.589 80.8544 459.876 79.9094 458.282C76.1295 452.08 72.2906 445.879 68.5107 439.678C68.1563 439.146 67.2114 439.619 67.5657 440.209Z" fill="white"/>
<path d="M119.421 468.086C133.714 468.086 148.006 468.086 162.299 468.086C162.949 468.086 162.949 467.023 162.299 467.023C148.006 467.023 133.714 467.023 119.421 467.023C118.771 467.082 118.771 468.086 119.421 468.086Z" fill="white"/>
<path d="M84.8115 439.264C85.4611 442.926 85.5793 447.474 87.233 450.899C88.237 452.966 90.2451 454.325 92.5484 453.557C93.1981 453.38 92.9028 452.376 92.2531 452.553C86.8195 454.325 86.347 442.158 85.7564 438.969C85.6383 438.319 84.6933 438.615 84.8115 439.264Z" fill="white"/>
<path d="M86.6424 443.398C88.5323 443.812 90.4222 444.225 92.3122 444.58C92.9619 444.698 93.2572 443.694 92.6075 443.576C90.7175 443.162 88.8276 442.749 86.9377 442.394C86.2289 442.276 85.9927 443.28 86.6424 443.398Z" fill="white"/>
<path d="M87.528 448.655C88.9455 448.832 90.3039 448.95 91.7213 449.127C92.371 449.186 92.371 448.182 91.7213 448.064C90.3039 447.887 88.9455 447.769 87.528 447.592C86.8784 447.592 86.8784 448.596 87.528 448.655Z" fill="white"/>
<path d="M136.371 456.097C139.62 457.809 142.868 459.699 146.234 461.176C148.538 462.121 150.959 462.652 153.085 461.117C153.617 460.762 153.085 459.817 152.554 460.231C149.837 462.18 146.53 460.231 143.99 458.931C141.628 457.691 139.206 456.451 136.844 455.211C136.312 454.915 135.781 455.801 136.371 456.097Z" fill="white"/>
<path d="M140.329 457.927C142.1 457.75 143.872 457.632 145.644 457.455C146.294 457.396 146.294 456.333 145.644 456.392C143.872 456.569 142.1 456.687 140.329 456.864C139.679 456.982 139.679 457.987 140.329 457.927Z" fill="white"/>
<path d="M146.176 460.526C147.298 460.29 148.479 460.054 149.601 459.817C150.251 459.699 149.956 458.695 149.306 458.813C148.184 459.05 147.002 459.286 145.88 459.522C145.231 459.699 145.526 460.703 146.176 460.526Z" fill="white"/>
<path d="M69.3375 434.539C71.9361 436.902 70.9911 440.327 69.4556 442.985C69.1012 443.576 69.9871 444.107 70.3415 443.517C72.1133 440.445 72.9402 436.488 70.0462 433.772C69.5737 433.358 68.8059 434.067 69.3375 434.539Z" fill="white"/>
<path d="M118.889 462.889C121.075 463.479 122.669 465.133 123.142 467.318C123.26 467.968 124.264 467.672 124.146 467.023C123.614 464.483 121.665 462.534 119.185 461.885C118.535 461.707 118.24 462.711 118.889 462.889Z" fill="white"/>
<path d="M55.9896 189.024C65.5574 195.225 77.2515 198.178 87.9415 201.899C88.5911 202.135 88.8274 201.131 88.2368 200.895C77.6649 197.174 66.0299 194.28 56.5211 188.138C55.9305 187.784 55.399 188.67 55.9896 189.024Z" fill="#281348"/>
<path d="M120.721 83.5417C108.082 121.695 95.4425 159.848 82.8035 197.942C82.5673 198.592 83.5713 198.828 83.8076 198.238C96.4466 160.084 109.086 121.931 121.725 83.837C121.961 83.1873 120.957 82.9511 120.721 83.5417Z" fill="#281348"/>
<path d="M63.9038 165.754C68.0971 167.349 72.3494 169.002 76.5427 170.597C78.5508 171.365 80.6179 172.133 82.626 172.959C84.2797 173.609 89.7723 174.849 89.9495 176.798C90.0086 177.448 91.0126 177.448 91.0126 176.798C90.8945 175.322 90.0086 174.731 88.7092 174.141C86.2287 173.018 83.63 172.192 81.0904 171.188C75.4797 169.061 69.8098 166.876 64.1991 164.75C63.5494 164.514 63.3131 165.518 63.9038 165.754Z" fill="#281348"/>
<path d="M60.006 176.385C66.1483 180.637 73.4718 182.705 80.3819 185.126C81.0316 185.362 81.2678 184.358 80.6772 184.122C73.8262 181.7 66.5617 179.692 60.5375 175.499C59.9469 175.086 59.4154 176.031 60.006 176.385Z" fill="#281348"/>
<path d="M84.8113 173.491C83.0985 177.448 81.4448 181.405 79.673 185.362C78.9052 187.193 78.0784 189.024 77.3106 190.855C76.8972 191.741 76.4837 192.686 76.1294 193.572C75.8341 194.162 75.5978 194.812 75.3025 195.403C74.771 195.875 74.7119 196.288 75.1253 196.643C75.1844 195.993 74.1213 195.993 74.0623 196.643C74.0623 196.761 74.0623 196.82 74.0623 196.938C74.0623 197.115 74.1804 197.292 74.2985 197.411C74.9482 197.706 75.1844 197.529 75.6569 196.997C76.3656 196.17 76.72 194.635 77.1334 193.631C77.724 192.272 78.3146 190.914 78.9052 189.556C81.1495 184.358 83.3938 179.22 85.5791 174.023C85.9925 173.373 85.1066 172.841 84.8113 173.491Z" fill="#281348"/>
<path d="M82.8622 113.013C86.9965 114.253 91.1307 115.493 95.265 116.734C97.1549 117.324 99.1039 117.915 100.994 118.446C101.939 118.742 102.884 119.037 103.888 119.332C104.538 119.51 105.187 119.746 105.778 119.923C106.487 120.277 107.195 120.336 107.963 119.982C107.313 119.923 107.313 120.986 107.963 121.045C108.022 121.045 108.081 121.045 108.14 121.045C108.376 121.045 108.554 120.868 108.613 120.691C108.672 120.632 108.672 120.514 108.731 120.455C108.79 120.218 108.672 119.982 108.495 119.864C107.077 118.86 104.892 118.565 103.179 118.092C100.935 117.442 98.6905 116.734 96.5053 116.084C92.0166 114.726 87.5871 113.367 83.0985 112.068C82.5079 111.832 82.2126 112.836 82.8622 113.013Z" fill="#281348"/>
<path d="M73.3537 135.81C76.8383 136.342 82.6262 136.873 84.5162 140.24C86.4652 143.665 83.8665 148.863 82.8625 152.347C82.6853 152.997 83.6893 153.233 83.8665 152.642C84.9887 148.922 87.6464 143.488 85.5202 139.649C83.394 135.928 77.3698 135.397 73.649 134.806C72.9993 134.688 72.704 135.692 73.3537 135.81Z" fill="#281348"/>
<path d="M69.6918 148.686C74.2986 149.217 78.6691 151.284 82.9805 152.82C87.2329 154.355 91.4852 155.891 95.7376 157.427C96.3873 157.663 96.6235 156.659 96.0329 156.422C91.4852 154.769 86.8785 153.115 82.3308 151.461C78.1966 149.985 74.0623 148.154 69.6918 147.622C69.0422 147.563 69.0422 148.626 69.6918 148.686Z" fill="#281348"/>
<path d="M86.2876 152.583C88.8272 147.918 91.0715 142.72 87.7641 137.818C84.8111 133.389 79.3775 131.499 74.2392 131.853C73.5895 131.912 73.5895 132.916 74.2392 132.916C79.0231 132.621 84.1023 134.275 86.8782 138.409C89.9494 142.957 87.705 147.859 85.4017 152.17C85.0473 152.642 85.9332 153.174 86.2876 152.583Z" fill="#281348"/>
<path d="M82.9216 93.1684C89.5364 95.4718 96.0921 98.0114 102.53 100.728C103.12 100.964 103.652 100.079 103.061 99.8423C96.5055 97.0665 89.8907 94.5269 83.2169 92.1644C82.5672 91.9872 82.2719 92.9913 82.9216 93.1684Z" fill="#281348"/>
<path d="M110.089 81.2973C105.66 93.0504 101.112 104.744 96.328 116.379C96.0917 116.97 97.0958 117.265 97.332 116.675C102.057 105.04 106.664 93.3457 111.093 81.5926C111.329 80.9429 110.325 80.6476 110.089 81.2973Z" fill="#281348"/>
<path d="M130.997 86.4355C129.58 89.5657 128.398 92.814 127.69 96.1805C127.335 97.8932 127.217 99.7241 129.343 99.9604C129.521 99.9604 129.698 99.8422 129.816 99.7241C131.706 95.8261 133.241 91.81 134.423 87.6757C134.6 87.0261 133.596 86.7898 133.419 87.3804C132.887 89.1523 132.355 90.865 131.706 92.5778C131.41 93.4046 131.056 94.2905 130.702 95.1174C130.761 94.8811 129.461 98.3067 129.284 98.3067C127.867 98.4838 129.58 93.1093 129.757 92.5778C130.347 90.6288 131.115 88.7979 131.942 86.9079C132.178 86.3764 131.292 85.8448 130.997 86.4355Z" fill="#281348"/>
<path d="M82.4491 153.056C81.9766 154.71 81.2678 156.422 80.9725 158.076C80.8544 158.844 80.9135 159.848 81.7403 160.143C83.9846 160.97 85.1068 155.418 85.4021 154.119C85.5202 153.469 84.5162 153.174 84.3981 153.824C84.2209 154.592 82.9215 159.612 81.9766 159.021C81.5041 158.726 83.2759 153.942 83.4531 153.351C83.6303 152.702 82.6262 152.406 82.4491 153.056Z" fill="#FF7577"/>
<path d="M127.867 98.8383C127.276 100.551 126.922 102.264 126.862 104.036C126.862 104.803 126.803 106.103 127.807 106.28C128.871 106.457 129.402 105.099 129.697 104.331C130.347 102.677 130.701 101.024 130.76 99.2518C130.76 98.6021 129.756 98.6021 129.697 99.2518C129.638 100.02 129.225 104.863 128.103 104.803C127.63 104.803 127.867 104.213 127.867 103.799C127.926 103.209 127.985 102.559 128.044 101.969C128.221 100.965 128.516 100.02 128.811 99.0746C129.107 98.484 128.103 98.2477 127.867 98.8383Z" fill="#FF7577"/>
<path d="M75.7753 183.236C74.7122 184.535 73.8263 185.953 73.1766 187.488C72.7632 188.492 71.8773 190.205 73.1766 190.973C74.0625 191.504 75.0665 191.032 75.6571 190.323C76.8384 188.906 77.5471 186.898 78.3739 185.303C78.6692 184.713 77.7833 184.181 77.488 184.772C77.0155 185.657 76.5431 186.543 76.0706 187.488C75.8934 187.843 74.9484 190.146 74.4759 190.087C74.2397 189.792 73.9444 189.437 73.7081 189.142C73.8263 188.847 73.9444 188.551 74.0625 188.256C74.2988 187.725 74.535 187.193 74.8303 186.662C75.3028 185.717 75.8934 184.831 76.6021 184.004C76.8974 183.413 76.1887 182.704 75.7753 183.236Z" fill="#FF7577"/>
<path d="M96.2689 98.3068C95.5012 99.5471 92.8434 103.977 95.0287 105.099C97.273 106.28 98.5723 100.197 98.8676 98.9565C98.9857 98.3068 97.9817 98.0115 97.8636 98.6612C97.7455 99.3699 96.4461 104.508 95.383 103.858C94.9696 103.622 95.7965 101.673 95.9146 101.319C96.2689 100.433 96.6824 99.5471 97.2139 98.7202C97.5092 98.2477 96.6233 97.7162 96.2689 98.3068Z" fill="#FF7577"/>
<path d="M132.946 248.912C132.769 255.467 130.583 261.669 128.398 267.752C128.752 267.752 129.048 267.752 129.402 267.752C128.516 261.846 127.217 255.999 125.445 250.27C125.268 249.738 124.382 249.797 124.441 250.388C124.441 250.683 124.5 251.038 124.5 251.333C124.559 251.983 125.563 251.983 125.563 251.333C125.563 251.038 125.504 250.683 125.504 250.388C125.15 250.447 124.854 250.506 124.5 250.506C126.272 256.235 127.571 262.082 128.457 267.988C128.516 268.52 129.284 268.402 129.461 267.988C131.706 261.787 133.891 255.526 134.068 248.853C134.009 248.262 133.005 248.262 132.946 248.912Z" fill="white"/>
<path d="M190.53 66.0006C195.491 63.5791 200.275 60.8032 204.882 57.7321C205.413 57.3777 204.941 56.4918 204.35 56.8461C199.743 59.9764 194.959 62.6932 189.998 65.1146C189.408 65.4099 189.939 66.2959 190.53 66.0006Z" fill="#241539"/>
<path d="M177.3 49.0501C183.679 51.5897 188.876 56.1965 192.243 62.1616C192.597 62.7522 193.483 62.2207 193.129 61.6301C189.585 55.4287 184.211 50.7038 177.537 48.0461C176.946 47.8099 176.651 48.8139 177.3 49.0501Z" fill="#241539"/>
<path d="M168.441 53.834C166.492 60.8623 166.552 68.1858 168.619 75.214C168.796 75.8637 169.8 75.5684 169.623 74.9187C167.615 68.0677 167.556 60.9804 169.445 54.0703C169.623 53.4797 168.619 53.1844 168.441 53.834Z" fill="#241539"/>
<path d="M158.342 75.5684C159.405 74.8006 160.586 74.3872 161.886 74.3281C161.708 74.21 161.531 74.0919 161.413 73.9738C161.768 75.8046 160.704 77.7536 158.933 78.4033C158.283 78.6396 158.578 79.6436 159.228 79.4074C161.531 78.5805 162.89 76.159 162.417 73.7375C162.358 73.5013 162.122 73.3241 161.945 73.3832C160.468 73.4422 159.11 73.9147 157.87 74.7415C157.279 75.0959 157.751 75.9818 158.342 75.5684Z" fill="#241539"/>
<path d="M206.181 79.3482C206.595 80.5294 207.067 81.7107 207.717 82.7738C207.894 83.0691 208.071 83.3644 208.307 83.6597C208.189 84.0731 208.012 84.3684 207.717 84.6637C207.303 85.1952 206.831 85.7268 206.358 86.1993C205.945 86.6718 206.654 87.4395 207.067 86.908C207.717 86.1402 209.489 84.7818 209.43 83.7187C209.371 83.1872 208.898 82.7147 208.603 82.2422C208.012 81.2382 207.54 80.1751 207.126 79.0529C206.949 78.4623 205.945 78.6986 206.181 79.3482Z" fill="#A87714"/>
<path d="M275.105 173.018C275.105 173.018 283.61 166.758 285.263 164.75C287.153 162.447 289.102 168.884 284.378 171.601C281.247 173.373 291.996 169.18 296.19 168.943C300.383 168.707 301.269 179.692 299.202 184.712C297.135 189.674 282.783 187.961 278.117 185.953L275.105 173.018Z" fill="#FFC85B"/>
<path d="M283.846 171.66C283.728 173.668 283.61 175.381 282.487 177.094C281.542 178.57 280.479 179.279 278.767 179.751C278.117 179.929 278.412 180.933 279.062 180.755C280.893 180.283 282.133 179.515 283.196 177.98C284.554 175.972 284.791 174.082 284.909 171.66C284.909 170.951 283.905 170.951 283.846 171.66Z" fill="#A87714"/>
<path d="M288.453 175.44C291.642 175.912 295.363 174.968 298.198 173.491C298.788 173.196 298.257 172.31 297.666 172.605C295.068 173.904 291.583 174.849 288.689 174.436C288.098 174.318 287.803 175.322 288.453 175.44Z" fill="#A87714"/>
<path d="M288.039 180.756C291.76 180.519 295.481 179.574 299.084 178.629C299.733 178.452 299.438 177.448 298.788 177.625C295.304 178.57 291.642 179.515 288.039 179.692C287.331 179.751 287.331 180.815 288.039 180.756Z" fill="#A87714"/>
<path d="M288.216 184.653C291.76 184.772 295.363 184.004 298.847 183.354C299.497 183.236 299.202 182.232 298.552 182.35C295.126 183 291.642 183.768 288.157 183.59C287.567 183.59 287.567 184.653 288.216 184.653Z" fill="#A87714"/>
<path d="M287.035 174.672C287.567 179.102 287.449 183.472 286.74 187.902C286.681 188.374 287.212 188.788 287.626 188.433C287.685 188.374 287.744 188.315 287.803 188.256C288.275 187.784 287.567 187.075 287.094 187.548C287.035 187.607 286.976 187.666 286.917 187.725C287.212 187.902 287.508 188.079 287.803 188.256C288.512 183.768 288.63 179.279 288.098 174.79C288.039 173.964 286.976 173.964 287.035 174.672Z" fill="#A87714"/>
<path d="M113.751 168.825L99.6356 163.155L97.4503 179.87C96.6825 185.599 99.8127 191.209 105.128 193.513L108.908 195.166C113.456 197.115 118.653 196.702 122.787 193.985L162.712 163.923L159.641 148.154L113.751 168.825Z" fill="#7776B2"/>
<path d="M159.7 148.154L160.527 135.279C160.586 134.629 161.295 134.275 161.886 134.57C162.949 135.161 164.366 136.165 164.484 137.464C164.662 139.59 165.429 144.315 165.429 144.315C165.429 144.315 178.364 139.472 178.364 146.205C178.364 152.938 179.013 159.316 177.301 161.797C175.588 164.278 162.772 163.982 162.772 163.982L159.7 148.154Z" fill="#FFC85B"/>
<path d="M173.875 146.441C174.288 146.973 174.524 147.563 174.584 148.272C174.643 148.922 175.647 148.922 175.647 148.272C175.588 147.445 175.292 146.618 174.82 145.91C174.406 145.378 173.52 145.91 173.875 146.441Z" fill="#A87714"/>
<path d="M175.056 152.525C175.351 152.997 175.41 153.469 175.351 153.942C175.351 154.237 175.588 154.474 175.883 154.474C176.178 154.474 176.355 154.237 176.414 153.942C176.473 153.233 176.296 152.584 175.942 151.993C175.588 151.461 174.702 151.934 175.056 152.525Z" fill="#A87714"/>
<path d="M175.942 156.895C176.237 157.545 176.237 158.253 175.883 158.844C175.588 159.435 176.474 159.966 176.769 159.375C177.3 158.431 177.3 157.367 176.828 156.363C176.533 155.773 175.647 156.304 175.942 156.895Z" fill="#A87714"/>
<path d="M112.924 169.534C110.798 171.01 109.144 172.959 107.963 175.263C107.668 175.853 108.554 176.385 108.849 175.794C109.971 173.668 111.507 171.837 113.456 170.479C113.987 170.065 113.515 169.18 112.924 169.534Z" fill="#3A3965"/>
<path d="M112.983 170.124C111.861 173.255 111.271 176.444 111.093 179.751C111.034 180.401 112.097 180.401 112.157 179.751C112.334 176.503 112.924 173.432 113.987 170.361C114.224 169.77 113.22 169.534 112.983 170.124Z" fill="#3A3965"/>
<path d="M109.794 195.757C109.794 212.648 109.794 229.54 109.794 246.431C109.794 247.081 110.857 247.081 110.857 246.431C110.857 229.54 110.857 212.648 110.857 195.757C110.857 195.048 109.794 195.048 109.794 195.757Z" fill="#124D56"/>
<path d="M127.69 273.776C128.398 284.939 129.402 296.101 130.643 307.205C131.883 318.013 133.655 328.762 135.013 339.57C136.431 350.791 135.84 361.599 134.186 372.762C132.533 383.865 130.879 394.91 129.225 406.013C127.394 418.475 125.504 430.878 123.673 443.34C123.555 443.989 124.559 444.284 124.677 443.635C127.985 421.487 131.292 399.28 134.6 377.132C136.194 366.265 137.612 355.575 136.608 344.531C135.604 333.605 133.537 322.738 132.237 311.811C130.702 299.172 129.52 286.533 128.753 273.835C128.694 273.127 127.631 273.127 127.69 273.776Z" fill="white"/>
<path d="M120.72 344.885C115.877 375.242 103.651 404.182 85.3426 428.929C84.9292 429.46 85.8151 429.992 86.2286 429.46C104.596 404.655 116.822 375.656 121.724 345.181C121.783 344.531 120.779 344.236 120.72 344.885Z" fill="white"/>
<path d="M100.167 271.177C104.656 269.996 109.145 269.524 113.751 269.76C114.401 269.819 114.401 268.756 113.751 268.697C109.026 268.461 104.42 268.933 99.872 270.173C99.2224 270.351 99.5177 271.355 100.167 271.177Z" fill="white"/>
<path d="M402.735 108.997L394.939 110.591C394.407 110.709 393.876 110.355 393.817 109.824L385.843 70.3119C385.725 69.7804 386.08 69.2488 386.611 69.1898L394.407 67.5951C394.939 67.477 395.47 67.8314 395.529 68.3629L403.502 107.875C403.562 108.406 403.207 108.879 402.735 108.997Z" fill="#241539"/>
<path d="M399.841 108.17L395.47 109.056C395.116 109.115 394.821 108.879 394.762 108.583L387.202 71.0797C387.143 70.7253 387.379 70.43 387.674 70.371L392.045 69.4851C392.399 69.426 392.695 69.6622 392.754 69.9576L400.313 107.461C400.432 107.756 400.195 108.111 399.841 108.17Z" fill="#E3E3ED"/>
<path d="M284.968 217.019H214.272C210.374 217.019 207.185 213.829 207.185 209.931V130.613C207.185 120.041 215.808 111.418 226.38 111.418H284.909C288.807 111.418 291.996 114.607 291.996 118.505V209.872C292.055 213.829 288.866 217.019 284.968 217.019Z" fill="#B5851C"/>
<path d="M214.863 165.104C215.276 176.562 215.512 188.02 215.453 199.478C215.453 200.127 216.457 200.127 216.516 199.478C216.516 188.02 216.339 176.562 215.926 165.104C215.867 164.455 214.863 164.455 214.863 165.104Z" fill="#5B3E02"/>
<path d="M207.834 199.832C211.614 199.655 215.335 199.832 219.115 200.423C219.765 200.541 220.06 199.537 219.41 199.419C215.571 198.828 211.732 198.651 207.834 198.828C207.185 198.828 207.185 199.891 207.834 199.832Z" fill="#5B3E02"/>
<path d="M294.654 104.036H242.74L242.976 82.4194C243.094 66.7092 255.083 54.6609 268.608 56.6689L274.514 57.5548C285.795 59.2085 294.24 70.1938 294.418 83.2462L294.654 104.036Z" fill="#FFC85B"/>
<path d="M313.789 307.5L272.683 315.237L259.631 272.831L258.095 316.3L215.158 316.004L212.146 284.998C210.788 274.367 211.083 263.618 212.973 253.046L215.926 226.291H297.134L313.789 307.5Z" fill="#241539"/>
<path d="M213.445 465.369C214.922 466.787 213.859 469.267 211.85 469.267H198.562L183.856 458.105C182.261 456.923 181.67 454.797 182.438 452.966L193.01 426.035L215.04 435.839L203.7 455.624L213.445 465.369Z" fill="#B5851C"/>
<path d="M258.095 316.241L256.678 357.111C256.501 361.54 255.26 365.793 253.075 369.632L215.04 435.839L193.01 426.094L219.883 357.819L215.217 316.005L258.095 316.241Z" fill="#FF7577"/>
<path d="M325.07 465.841H297.548C295.244 465.841 293.295 464.07 293.177 461.707L291.228 431.114H317.51L315.679 453.911L326.428 461.648C328.2 463.007 327.255 465.841 325.07 465.841Z" fill="#B5851C"/>
<path d="M323.239 359.001L317.51 431.114H291.228L286.739 360.654L272.742 315.178L313.848 307.441L322.825 351.382C323.239 353.921 323.416 356.461 323.239 359.001Z" fill="#FF7577"/>
<path d="M255.083 91.1604L250.004 121.695H271.856L271.974 109.528H278.648C283.373 109.528 287.33 105.748 287.507 100.965L288.571 83.0101C286.149 82.7738 280.538 74.0328 280.538 74.0328C271.797 87.5577 258.509 85.904 258.509 85.904L255.851 81.947C254.552 79.998 251.658 80.3523 250.831 82.5376L249.945 84.9C249 87.3806 250.476 90.0974 253.016 90.6289L255.083 91.1604Z" fill="#FF7577"/>
<path d="M388.442 82.8329C388.974 86.849 389.741 90.3336 389.741 90.3336L393.049 106.634L387.851 107.402L383.186 93.2866L383.067 88.9752C382.89 86.0222 384.78 81.7107 384.426 77.8127C386.257 72.6744 388.265 81.1792 388.442 82.8329Z" fill="#FF7577"/>
<path d="M387.911 107.343L345.859 137.936L339.481 142.189C336.646 144.079 333.338 145.201 329.972 145.496L295.303 148.154V198.887L296.189 212.589L297.134 226.291H215.926L219.41 201.958L221.064 154.119L224.667 122.167C226.202 121.872 227.738 121.754 229.274 121.754H288.57C292.823 121.754 298.434 121.399 302.036 121.754L332.512 122.935L383.304 93.2274L387.911 107.343Z" fill="#FF7577"/>
<path d="M403.857 83.1281C401.022 81.2382 395.766 88.5617 397.006 92.1053C398.246 95.649 396.829 104.922 400.372 105.276C403.916 105.63 407.223 103.799 407.873 99.3698C408.641 94.9402 407.046 85.1952 403.857 83.1281Z" fill="#FF7577"/>
<path d="M398.837 92.9321C401.376 92.1643 403.739 89.9791 405.511 88.0892C405.983 87.6167 405.215 86.8489 404.802 87.3804C403.148 89.1522 400.963 91.2194 398.6 91.9872C397.951 92.1643 398.187 93.1684 398.837 92.9321Z" fill="#863031"/>
<path d="M399.073 98.1886C401.731 97.6571 405.097 96.535 406.81 94.2316C407.223 93.7 406.337 93.1685 405.924 93.7C404.447 95.7081 401.14 96.7121 398.837 97.1846C398.128 97.3027 398.423 98.3068 399.073 98.1886Z" fill="#863031"/>
<path d="M399.545 102.736C402.085 102.264 404.27 101.024 406.397 99.6653C406.928 99.3109 406.456 98.425 405.865 98.7794C403.798 100.079 401.672 101.26 399.25 101.732C398.601 101.851 398.896 102.855 399.545 102.736Z" fill="#863031"/>
<path d="M390.332 98.0705C390.037 99.4289 389.328 100.61 388.206 101.437C387.674 101.85 388.206 102.736 388.737 102.323C390.037 101.319 390.982 99.9604 391.336 98.3067C391.454 97.7161 390.45 97.4208 390.332 98.0705Z" fill="#863031"/>
<path d="M286.208 121.695H293.413C293.413 121.695 295.126 127.187 295.126 134.983C295.126 142.779 295.362 166.758 295.362 166.758L286.208 121.695Z" fill="#5B3E02"/>
<path d="M224.726 121.695L221.123 154.06L220.532 169.888L231.045 151.166L233.053 121.695H224.726Z" fill="#5B3E02"/>
<path d="M295.362 198.887V166.758L297.784 163.392C300.619 159.435 301.091 154.237 299.083 149.808L286.208 121.754H271.915L263.765 152.879L249.886 121.754H233.053C233.053 121.754 224.785 164.986 220.592 169.947L219.588 198.946L215.985 226.35H297.193L295.362 198.887Z" fill="#7776B2"/>
<path d="M282.073 88.5617C281.483 89.743 281.483 90.9242 281.778 92.1645C281.955 92.9913 282.31 93.8772 282.251 94.7631C282.192 95.7081 281.306 97.8933 279.947 97.0074C279.416 96.6531 278.884 97.539 279.416 97.8933C280.774 98.7792 282.073 97.8933 282.782 96.6531C284.141 94.1725 281.778 91.5738 283.018 89.0933C283.255 88.5027 282.369 87.9711 282.073 88.5617Z" fill="#863031"/>
<path d="M278.412 99.6061C275.164 99.6652 272.152 98.6611 269.553 96.7121C269.317 96.535 268.962 96.6531 268.844 96.8893C267.604 99.0155 267.958 101.673 269.848 103.386C270.321 103.799 271.088 103.091 270.557 102.677C269.021 101.319 268.667 99.2518 269.73 97.4799C269.494 97.539 269.258 97.5981 269.021 97.6571C271.738 99.7242 274.986 100.787 278.412 100.728C279.121 100.61 279.121 99.6061 278.412 99.6061Z" fill="#863031"/>
<path d="M285.794 170.656C275.99 171.424 266.363 173.137 256.914 175.853C256.264 176.031 256.559 177.035 257.209 176.857C266.54 174.141 276.108 172.428 285.794 171.66C286.444 171.601 286.444 170.597 285.794 170.656Z" fill="#3A3965"/>
<path d="M247.405 126.42C252.248 137.287 257.091 148.095 263.056 158.43C263.292 158.844 263.883 158.726 264.001 158.312C268.076 147.15 272.152 135.987 276.227 124.766C276.463 124.116 275.459 123.88 275.223 124.471C271.148 135.633 267.072 146.795 262.997 158.017C263.292 157.958 263.647 157.958 263.942 157.899C257.977 147.563 253.134 136.755 248.291 125.888C247.996 125.297 247.11 125.829 247.405 126.42Z" fill="#3A3965"/>
<path d="M258.627 269.701C264.001 265.98 269.376 262.259 274.691 258.479C275.223 258.125 274.691 257.18 274.16 257.593C268.785 261.314 263.411 265.035 258.095 268.815C257.564 269.169 258.095 270.055 258.627 269.701Z" fill="white"/>
<path d="M228.388 229.126C228.388 236.509 225.435 243.419 220.178 248.557C219.706 249.03 220.415 249.738 220.887 249.266C226.321 243.95 229.392 236.745 229.392 229.126C229.451 228.477 228.388 228.477 228.388 229.126Z" fill="white"/>
<path d="M291.582 227.827C293.65 232.138 295.717 236.391 297.725 240.702C298.02 241.293 298.906 240.761 298.611 240.171C296.543 235.859 294.476 231.607 292.468 227.295C292.173 226.705 291.287 227.236 291.582 227.827Z" fill="white"/>
<path d="M261.048 230.012C263.41 239.698 264.651 249.561 264.828 259.483C264.828 260.133 265.891 260.133 265.891 259.483C265.714 249.443 264.414 239.462 262.052 229.717C261.934 229.126 260.93 229.362 261.048 230.012Z" fill="white"/>
<path d="M218.938 311.339C231.104 311.811 243.271 311.929 255.378 311.575C256.028 311.575 256.028 310.512 255.378 310.512C243.212 310.807 231.045 310.748 218.938 310.276C218.288 310.276 218.288 311.339 218.938 311.339Z" fill="white"/>
<path d="M271.561 310.453C284.849 308.445 297.961 305.787 311.013 302.48C311.663 302.302 311.368 301.298 310.718 301.476C297.725 304.783 284.554 307.441 271.265 309.449C270.616 309.567 270.911 310.512 271.561 310.453Z" fill="white"/>
<path d="M221.477 358.646C223.722 357.111 226.025 355.575 228.269 354.04C228.801 353.685 228.328 352.799 227.738 353.154C225.493 354.689 223.19 356.225 220.946 357.76C220.414 358.115 220.946 359.001 221.477 358.646Z" fill="#863031"/>
<path d="M288.688 361.068C290.933 361.777 292.941 362.958 294.594 364.612C295.067 365.084 295.776 364.375 295.303 363.903C293.472 362.131 291.346 360.832 288.925 360.064C288.334 359.887 288.039 360.891 288.688 361.068Z" fill="#863031"/>
<path d="M184.21 452.258C188.876 456.451 193.424 460.762 198.208 464.778C201.928 467.968 206.063 467.791 210.729 467.082C211.378 466.964 211.083 465.96 210.433 466.078C207.775 466.491 204.882 466.964 202.283 466.078C199.802 465.251 197.971 463.184 196.081 461.471C192.361 458.164 188.699 454.797 184.978 451.49C184.446 451.076 183.738 451.785 184.21 452.258Z" fill="#5B3E02"/>
<path d="M294.89 462.003C303.749 462.003 312.608 462.003 321.467 462.003C322.117 462.003 322.117 460.94 321.467 460.94C312.608 460.94 303.749 460.94 294.89 460.94C294.24 460.999 294.24 462.003 294.89 462.003Z" fill="#5B3E02"/>
<path d="M307.47 433.535C308.533 440.268 309.242 447.06 309.596 453.911C309.655 454.561 310.659 454.561 310.659 453.911C310.305 447.001 309.596 440.091 308.533 433.24C308.356 432.59 307.352 432.886 307.47 433.535Z" fill="#5B3E02"/>
<path d="M208.248 435.603C204.999 442.099 201.81 448.596 198.562 455.033C198.267 455.624 199.152 456.156 199.448 455.565C202.696 449.068 205.885 442.572 209.134 436.134C209.429 435.543 208.543 435.012 208.248 435.603Z" fill="#5B3E02"/>
<path d="M184.978 445.407C186.986 447.769 187.813 450.722 187.34 453.793C187.222 454.443 188.226 454.738 188.344 454.088C188.935 450.663 187.99 447.356 185.745 444.698C185.273 444.166 184.505 444.875 184.978 445.407Z" fill="#5B3E02"/>
<path d="M294.299 457.573C296.957 457.101 299.556 458.518 300.678 460.94C300.973 461.53 301.859 460.999 301.564 460.408C300.264 457.514 297.134 455.978 294.063 456.569C293.413 456.687 293.65 457.691 294.299 457.573Z" fill="#5B3E02"/>
<path d="M217.579 124.234C219.174 119.273 223.84 113.485 229.332 112.895C229.982 112.836 229.982 111.773 229.332 111.832C223.308 112.422 218.347 118.446 216.575 123.88C216.398 124.589 217.402 124.884 217.579 124.234Z" fill="#5B3E02"/>
<path d="M231.518 121.518C234.589 116.734 239.373 113.544 244.983 112.54C245.633 112.422 245.338 111.418 244.688 111.536C238.841 112.599 233.821 116.025 230.632 121.045C230.218 121.577 231.163 122.108 231.518 121.518Z" fill="#5B3E02"/>
<path d="M271.443 108.938C266.482 109.056 263.233 105.217 260.339 101.732C259.926 101.201 259.217 101.969 259.631 102.441C262.702 106.221 266.186 110.06 271.443 109.942C272.092 110.001 272.092 108.938 271.443 108.938Z" fill="#863031"/>
<path d="M253.606 83.7779C254.315 84.6047 254.847 85.5497 255.142 86.5537C255.319 87.1443 255.496 87.4987 254.788 87.6168C254.197 87.6759 253.606 87.6759 253.075 87.6168C252.425 87.5578 252.425 88.6209 253.075 88.6799C254.197 88.739 256.5 89.0343 256.382 87.3215C256.264 85.7859 255.378 84.1913 254.374 83.0691C253.902 82.5967 253.134 83.3054 253.606 83.7779Z" fill="#863031"/>
<path d="M281.247 71.3161C280.184 66.1778 277.29 61.8073 273.038 58.7952C272.506 58.3818 271.975 59.3267 272.506 59.6811C276.581 62.5751 279.239 66.7093 280.243 71.6114C280.42 72.261 281.424 71.9657 281.247 71.3161Z" fill="#A87714"/>
<path d="M224.371 123.289L220.769 155.241L198.208 179.811L218.702 220.149L228.329 224.697C229.333 225.287 228.092 226.468 227.147 227C225.612 227.768 225.789 227.945 223.84 227.886L219.174 227.354C217.107 227.591 215.63 227.354 215.867 229.126C216.457 233.851 217.461 240.997 216.753 243.773C216.162 245.959 213.8 250.624 212.796 250.979C212.205 251.215 211.201 250.211 210.492 249.089L207.185 238.458L205.295 220.385L180.548 186.071C177.123 181.582 176.355 175.499 178.718 170.361C178.777 170.243 178.836 170.066 178.895 169.947C179.426 168.825 180.076 167.821 180.903 166.876L205.649 136.755C207.716 132.975 210.669 129.786 214.331 127.542L215.926 126.538C218.584 124.943 221.418 123.88 224.371 123.289Z" fill="#FF7577"/>
<path d="M197.912 179.456C196.79 180.578 195.609 181.7 194.487 182.823C194.014 183.295 194.723 184.004 195.195 183.531C196.318 182.409 197.499 181.287 198.621 180.165C199.093 179.692 198.385 178.984 197.912 179.456Z" fill="#863031"/>
<path d="M211.319 235.505C211.733 239.048 212.441 243.655 215.04 246.254C215.513 246.726 216.221 246.018 215.749 245.545C213.386 243.124 212.737 238.694 212.382 235.505C212.264 234.855 211.201 234.855 211.319 235.505Z" fill="#863031"/>
<path d="M208.721 239.166C209.784 242.297 210.906 245.663 213.091 248.262C213.504 248.793 214.272 248.026 213.8 247.553C211.733 245.132 210.729 241.883 209.725 238.93C209.488 238.281 208.484 238.576 208.721 239.166Z" fill="#863031"/>
<path d="M216.339 227.472C216.752 226.291 217.757 225.405 218.938 225.169C219.587 225.051 219.292 224.047 218.642 224.165C217.048 224.519 215.808 225.701 215.276 227.177C215.158 227.827 216.162 228.122 216.339 227.472Z" fill="#863031"/>
<path d="M246.579 120.927C246.579 120.927 246.283 175.735 249.236 178.747C252.189 181.76 252.189 181.76 252.189 181.76C252.189 181.76 253.43 180.224 253.725 177.448C253.961 174.672 250.477 118.21 250.477 118.21L246.579 120.927Z" fill="#281348"/>
<path d="M276.108 121.695C276.108 121.695 277.467 175.972 274.986 179.161C272.506 182.291 272.506 182.291 272.506 182.291C272.506 182.291 271.561 181.169 271.147 179.161C270.734 177.153 271.856 118.742 271.856 118.742L276.108 121.695Z" fill="#281348"/>
<path d="M274.041 204.498H248.941C246.283 204.498 244.039 202.313 244.039 199.596V184.89C244.039 182.232 246.224 179.988 248.941 179.988H274.041C276.699 179.988 278.943 182.173 278.943 184.89V199.596C278.943 202.254 276.758 204.498 274.041 204.498Z" fill="#C9C8E0"/>
<path d="M248.527 204.498C246.047 204.498 244.039 202.49 244.039 200.009V184.476C244.039 181.996 246.047 179.988 248.527 179.988C251.008 179.988 253.016 181.996 253.016 184.476V200.009C253.016 202.431 251.008 204.498 248.527 204.498Z" fill="#6B3EAC"/>
<path d="M267.663 201.663C262.584 201.663 258.449 197.529 258.449 192.45C258.449 187.37 262.584 183.236 267.663 183.236C272.742 183.236 276.876 187.37 276.876 192.45C276.876 197.529 272.742 201.663 267.663 201.663Z" fill="#6B3EAC"/>
<path d="M273.923 199.596H267.604C263.706 199.596 260.516 196.407 260.516 192.509C260.516 188.611 263.706 185.421 267.604 185.421H273.923C277.821 185.421 281.01 188.611 281.01 192.509C281.069 196.407 277.88 199.596 273.923 199.596Z" fill="#281348"/>
<path d="M273.923 198.651C270.498 198.651 267.722 195.875 267.722 192.45C267.722 189.024 270.498 186.248 273.923 186.248C277.349 186.248 280.124 189.024 280.124 192.45C280.124 195.875 277.349 198.651 273.923 198.651Z" fill="#C9C8E0"/>
<path d="M276.167 189.319C277.585 191.15 277.585 193.631 276.345 195.521C275.99 196.052 276.876 196.584 277.231 196.052C278.825 193.749 278.648 190.796 276.935 188.611C276.522 188.02 275.813 188.788 276.167 189.319Z" fill="#281348"/>
<path d="M273.274 190.323C271.561 190.5 271.029 193.335 272.919 193.631C273.687 193.749 274.573 193.276 274.868 192.568C275.282 191.623 274.514 190.678 273.746 190.205C273.156 189.851 272.624 190.737 273.215 191.091C273.569 191.268 274.041 191.682 273.923 192.154C273.805 192.449 273.451 192.686 273.156 192.627C272.447 192.568 272.683 191.445 273.274 191.386C273.982 191.268 273.982 190.264 273.274 190.323Z" fill="#281348"/>
<path d="M255.378 183.649C256.264 183.649 257.15 183.649 258.036 183.649C258.686 183.649 258.686 182.586 258.036 182.586C257.15 182.586 256.264 182.586 255.378 182.586C254.729 182.645 254.729 183.649 255.378 183.649Z" fill="#281348"/>
<path d="M252.603 185.008C252.603 189.437 252.662 193.867 252.662 198.297C252.662 198.946 253.725 198.946 253.725 198.297C253.725 193.867 253.666 189.437 253.666 185.008C253.666 184.358 252.603 184.358 252.603 185.008Z" fill="#281348"/>
<path d="M273.451 183.295C273.983 183.295 274.455 183.295 274.987 183.295C275.636 183.295 275.636 182.232 274.987 182.232C274.455 182.232 273.983 182.232 273.451 182.232C272.742 182.232 272.742 183.295 273.451 183.295Z" fill="#281348"/>
<path d="M275.104 184.772C275.754 184.772 275.754 183.708 275.104 183.708C274.455 183.768 274.455 184.772 275.104 184.772Z" fill="#281348"/>
<path d="M266.127 187.488C266.777 187.488 267.486 187.488 268.135 187.488C268.785 187.488 268.785 186.425 268.135 186.425C267.486 186.425 266.777 186.425 266.127 186.425C265.477 186.484 265.477 187.488 266.127 187.488Z" fill="#7776B2"/>
<path d="M264.651 189.792C265.3 189.792 265.891 189.792 266.541 189.792C267.19 189.792 267.19 188.729 266.541 188.729C265.891 188.729 265.3 188.729 264.651 188.729C263.942 188.788 263.942 189.792 264.651 189.792Z" fill="#7776B2"/>
<path d="M263.588 192.568C264.237 192.568 264.946 192.568 265.596 192.568C266.245 192.568 266.245 191.505 265.596 191.505C264.946 191.505 264.237 191.505 263.588 191.505C262.938 191.564 262.938 192.568 263.588 192.568Z" fill="#7776B2"/>
<path d="M264.119 195.343C264.769 195.343 265.36 195.343 266.009 195.343C266.659 195.343 266.659 194.28 266.009 194.28C265.36 194.28 264.769 194.28 264.119 194.28C263.47 194.339 263.47 195.343 264.119 195.343Z" fill="#7776B2"/>
<path d="M266.009 198.001C266.659 198.001 267.25 198.001 267.899 198.001C268.549 198.001 268.549 196.938 267.899 196.938C267.25 196.938 266.659 196.938 266.009 196.938C265.36 196.997 265.36 198.001 266.009 198.001Z" fill="#7776B2"/>
<path d="M332.098 123.703C331.094 125.534 330.681 127.542 330.858 129.668C330.917 130.318 331.98 130.318 331.921 129.668C331.744 127.778 332.098 125.947 332.984 124.234C333.279 123.644 332.394 123.112 332.098 123.703Z" fill="#863031"/>
</svg>
