<svg width="192" height="47" viewBox="0 0 192 47" fill="none" xmlns="http://www.w3.org/2000/svg">
<path d="M60.632 29.216C59.32 29.216 58.088 29.04 56.936 28.688C55.8 28.336 54.832 27.832 54.032 27.176L55.088 24.92C55.92 25.544 56.784 26.008 57.68 26.312C58.592 26.6 59.584 26.744 60.656 26.744C61.84 26.744 62.752 26.536 63.392 26.12C64.048 25.704 64.376 25.12 64.376 24.368C64.376 23.728 64.072 23.24 63.464 22.904C62.872 22.552 61.888 22.224 60.512 21.92C58.368 21.456 56.808 20.856 55.832 20.12C54.856 19.384 54.368 18.312 54.368 16.904C54.368 15.896 54.64 15 55.184 14.216C55.728 13.432 56.496 12.816 57.488 12.368C58.496 11.92 59.656 11.696 60.968 11.696C62.168 11.696 63.304 11.88 64.376 12.248C65.464 12.6 66.352 13.096 67.04 13.736L66.008 15.992C64.488 14.776 62.808 14.168 60.968 14.168C59.864 14.168 58.992 14.4 58.352 14.864C57.712 15.312 57.392 15.928 57.392 16.712C57.392 17.384 57.672 17.896 58.232 18.248C58.808 18.6 59.784 18.928 61.16 19.232C62.584 19.568 63.744 19.936 64.64 20.336C65.536 20.72 66.224 21.224 66.704 21.848C67.184 22.456 67.424 23.224 67.424 24.152C67.424 25.176 67.152 26.072 66.608 26.84C66.064 27.592 65.28 28.176 64.256 28.592C63.232 29.008 62.024 29.216 60.632 29.216ZM80.6853 23.096H72.3333C72.3973 24.392 72.7173 25.352 73.2933 25.976C73.8853 26.584 74.7573 26.888 75.9093 26.888C77.2373 26.888 78.4693 26.456 79.6053 25.592L80.4693 27.656C79.8933 28.12 79.1813 28.496 78.3333 28.784C77.5013 29.056 76.6533 29.192 75.7893 29.192C73.8053 29.192 72.2453 28.632 71.1093 27.512C69.9733 26.392 69.4053 24.856 69.4053 22.904C69.4053 21.672 69.6533 20.576 70.1493 19.616C70.6453 18.656 71.3413 17.912 72.2373 17.384C73.1333 16.84 74.1493 16.568 75.2853 16.568C76.9493 16.568 78.2613 17.112 79.2213 18.2C80.1973 19.272 80.6853 20.752 80.6853 22.64V23.096ZM75.3573 18.728C74.5573 18.728 73.9013 18.968 73.3893 19.448C72.8933 19.912 72.5733 20.592 72.4293 21.488H78.0693C77.9733 20.576 77.6933 19.888 77.2293 19.424C76.7813 18.96 76.1573 18.728 75.3573 18.728ZM88.7218 29.192C87.4578 29.192 86.3618 28.936 85.4338 28.424C84.5058 27.912 83.7938 27.192 83.2978 26.264C82.8018 25.32 82.5538 24.216 82.5538 22.952C82.5538 21.688 82.8098 20.576 83.3218 19.616C83.8498 18.656 84.5858 17.912 85.5298 17.384C86.4898 16.84 87.5938 16.568 88.8418 16.568C89.7058 16.568 90.5378 16.704 91.3378 16.976C92.1538 17.248 92.8018 17.624 93.2818 18.104L92.4418 20.216C91.9298 19.8 91.3858 19.488 90.8098 19.28C90.2338 19.056 89.6658 18.944 89.1058 18.944C88.0178 18.944 87.1698 19.288 86.5618 19.976C85.9538 20.648 85.6498 21.624 85.6498 22.904C85.6498 24.184 85.9458 25.16 86.5378 25.832C87.1458 26.504 88.0018 26.84 89.1058 26.84C89.6658 26.84 90.2338 26.728 90.8098 26.504C91.3858 26.28 91.9298 25.96 92.4418 25.544L93.2818 27.656C92.7698 28.136 92.1058 28.512 91.2898 28.784C90.4738 29.056 89.6178 29.192 88.7218 29.192ZM101.824 16.592C102.288 16.592 102.688 16.656 103.024 16.784L103 19.52C102.488 19.312 101.96 19.208 101.416 19.208C100.392 19.208 99.6081 19.504 99.0641 20.096C98.5361 20.688 98.2721 21.472 98.2721 22.448V29H95.2961V20.312C95.2961 19.032 95.2321 17.888 95.1041 16.88H97.9121L98.1521 19.016C98.4561 18.232 98.9361 17.632 99.5921 17.216C100.248 16.8 100.992 16.592 101.824 16.592ZM115.068 23.096H106.716C106.78 24.392 107.1 25.352 107.676 25.976C108.268 26.584 109.14 26.888 110.292 26.888C111.62 26.888 112.852 26.456 113.988 25.592L114.852 27.656C114.276 28.12 113.564 28.496 112.716 28.784C111.884 29.056 111.036 29.192 110.172 29.192C108.188 29.192 106.628 28.632 105.492 27.512C104.356 26.392 103.788 24.856 103.788 22.904C103.788 21.672 104.036 20.576 104.532 19.616C105.028 18.656 105.724 17.912 106.62 17.384C107.516 16.84 108.532 16.568 109.668 16.568C111.332 16.568 112.644 17.112 113.604 18.2C114.58 19.272 115.068 20.752 115.068 22.64V23.096ZM109.74 18.728C108.94 18.728 108.284 18.968 107.772 19.448C107.276 19.912 106.956 20.592 106.812 21.488H112.452C112.356 20.576 112.076 19.888 111.612 19.424C111.164 18.96 110.54 18.728 109.74 18.728ZM121.261 19.136V24.56C121.261 25.984 121.925 26.696 123.253 26.696C123.621 26.696 124.021 26.632 124.453 26.504V28.88C123.925 29.072 123.285 29.168 122.533 29.168C121.157 29.168 120.101 28.784 119.365 28.016C118.629 27.248 118.261 26.144 118.261 24.704V19.136H115.933V16.88H118.261V13.928L121.261 12.92V16.88H124.477V19.136H121.261ZM130.19 19.136V24.56C130.19 25.984 130.854 26.696 132.182 26.696C132.55 26.696 132.95 26.632 133.382 26.504V28.88C132.854 29.072 132.214 29.168 131.462 29.168C130.086 29.168 129.03 28.784 128.294 28.016C127.558 27.248 127.19 26.144 127.19 24.704V19.136H124.862V16.88H127.19V13.928L130.19 12.92V16.88H133.406V19.136H130.19ZM141.996 16.592C142.46 16.592 142.86 16.656 143.196 16.784L143.172 19.52C142.66 19.312 142.132 19.208 141.588 19.208C140.564 19.208 139.78 19.504 139.236 20.096C138.708 20.688 138.444 21.472 138.444 22.448V29H135.468V20.312C135.468 19.032 135.404 17.888 135.276 16.88H138.084L138.324 19.016C138.628 18.232 139.108 17.632 139.764 17.216C140.42 16.8 141.164 16.592 141.996 16.592ZM144.866 16.88H147.842V29H144.866V16.88ZM148.01 11.384V14.336H144.674V11.384H148.01ZM158.036 16.568C159.076 16.568 159.996 16.84 160.796 17.384C161.612 17.912 162.244 18.664 162.692 19.64C163.156 20.6 163.388 21.704 163.388 22.952C163.388 24.2 163.164 25.296 162.716 26.24C162.268 27.184 161.636 27.912 160.82 28.424C160.02 28.936 159.092 29.192 158.036 29.192C157.156 29.192 156.372 29.008 155.684 28.64C154.996 28.256 154.468 27.728 154.1 27.056V34.184H151.124V20.312C151.124 19.032 151.06 17.888 150.932 16.88H153.74L153.98 18.968C154.3 18.216 154.82 17.632 155.54 17.216C156.26 16.784 157.092 16.568 158.036 16.568ZM157.22 26.84C158.228 26.84 159.004 26.504 159.548 25.832C160.092 25.16 160.364 24.2 160.364 22.952C160.364 21.688 160.092 20.704 159.548 20C159.004 19.28 158.236 18.92 157.244 18.92C156.22 18.92 155.436 19.264 154.892 19.952C154.348 20.64 154.076 21.624 154.076 22.904C154.076 24.168 154.348 25.144 154.892 25.832C155.436 26.504 156.212 26.84 157.22 26.84ZM168.75 25.64V29H165.39V25.64H168.75ZM171.726 16.88H174.702V29H171.726V16.88ZM174.87 11.384V14.336H171.534V11.384H174.87ZM189.576 11.336V29H186.624V27.056C186.256 27.728 185.728 28.256 185.04 28.64C184.352 29.008 183.568 29.192 182.688 29.192C181.648 29.192 180.72 28.928 179.904 28.4C179.088 27.872 178.448 27.128 177.984 26.168C177.536 25.192 177.312 24.08 177.312 22.832C177.312 21.584 177.536 20.488 177.984 19.544C178.432 18.6 179.064 17.872 179.88 17.36C180.696 16.832 181.632 16.568 182.688 16.568C183.552 16.568 184.32 16.752 184.992 17.12C185.68 17.472 186.208 17.976 186.576 18.632V11.336H189.576ZM183.48 26.84C184.472 26.84 185.24 26.496 185.784 25.808C186.344 25.12 186.624 24.144 186.624 22.88C186.624 21.616 186.352 20.64 185.808 19.952C185.264 19.264 184.496 18.92 183.504 18.92C182.496 18.92 181.712 19.264 181.152 19.952C180.608 20.624 180.336 21.584 180.336 22.832C180.336 24.096 180.608 25.08 181.152 25.784C181.712 26.488 182.488 26.84 183.48 26.84Z" fill="white"/>
<circle cx="20.5" cy="20.5" r="20.5" fill="#458FF6"/>
<path d="M20.268 29.234C18.8467 29.234 17.512 29.0433 16.264 28.662C15.0333 28.2807 13.9847 27.7347 13.118 27.024L14.262 24.58C15.1633 25.256 16.0993 25.7587 17.07 26.088C18.058 26.4 19.1327 26.556 20.294 26.556C21.5767 26.556 22.5647 26.3307 23.258 25.88C23.9687 25.4293 24.324 24.7967 24.324 23.982C24.324 23.2887 23.9947 22.76 23.336 22.396C22.6947 22.0147 21.6287 21.6593 20.138 21.33C17.8153 20.8273 16.1253 20.1773 15.068 19.38C14.0107 18.5827 13.482 17.4213 13.482 15.896C13.482 14.804 13.7767 13.8333 14.366 12.984C14.9553 12.1347 15.7873 11.4673 16.862 10.982C17.954 10.4967 19.2107 10.254 20.632 10.254C21.932 10.254 23.1627 10.4533 24.324 10.852C25.5027 11.2333 26.4647 11.7707 27.21 12.464L26.092 14.908C24.4453 13.5907 22.6253 12.932 20.632 12.932C19.436 12.932 18.4913 13.1833 17.798 13.686C17.1047 14.1713 16.758 14.8387 16.758 15.688C16.758 16.416 17.0613 16.9707 17.668 17.352C18.292 17.7333 19.3493 18.0887 20.84 18.418C22.3827 18.782 23.6393 19.1807 24.61 19.614C25.5807 20.03 26.326 20.576 26.846 21.252C27.366 21.9107 27.626 22.7427 27.626 23.748C27.626 24.8573 27.3313 25.828 26.742 26.66C26.1527 27.4747 25.3033 28.1073 24.194 28.558C23.0847 29.0087 21.776 29.234 20.268 29.234Z" fill="white"/>
</svg>
