<svg width="535" height="475" viewBox="0 0 535 475" fill="none" xmlns="http://www.w3.org/2000/svg">
<path d="M223.072 339.082H223.213C233.858 339.101 244.06 343.345 251.577 350.882C259.094 358.418 263.311 368.632 263.302 379.276C263.292 389.921 259.057 400.127 251.527 407.65C243.997 415.174 233.787 419.4 223.143 419.4C212.498 419.4 202.289 415.174 194.758 407.65C187.228 400.127 182.993 389.921 182.983 379.276C182.974 368.632 187.191 358.418 194.709 350.882C202.226 343.345 212.427 339.101 223.072 339.082ZM381.634 80.8201C396.542 80.8201 413.868 84.4921 434.033 93.672C463.219 106.983 482.246 136.408 486.193 172.215C490.141 208.023 478.972 250.184 447.711 288.849C397.528 350.967 340.098 393.25 261.738 394.345C264.197 388.059 265.089 381.269 264.335 374.562C263.581 367.855 261.204 361.432 257.411 355.849C253.617 350.266 248.521 345.692 242.562 342.521C236.604 339.35 229.963 337.678 223.213 337.65H223.06C212.047 337.653 201.485 342.03 193.697 349.817C185.91 357.605 181.533 368.166 181.53 379.18C181.53 380.324 181.579 381.457 181.671 382.583C82.0196 353.035 35.2509 280.379 49.6879 225.955C53.4884 211.616 61.53 205.355 72.6805 203.531C83.8311 201.707 98.1518 204.504 114.015 208.727C145.753 217.215 183.684 231.457 215.973 224.908C248.262 218.36 268.923 194.272 284.149 169.284C291.763 156.793 298.023 144.058 303.733 133.146C309.443 122.234 314.517 113.14 319.682 107.974C330.214 97.4419 344.162 87.2093 362.791 82.9192C368.973 81.5112 375.294 80.807 381.634 80.8201ZM381.108 79.3819C374.822 79.3996 368.557 80.1159 362.43 81.5178C343.458 85.8813 329.278 96.3036 318.629 106.958C313.207 112.381 308.103 121.548 302.417 132.485C296.732 143.421 290.484 156.114 282.913 168.537C267.778 193.384 247.417 217.069 215.685 223.494C183.953 229.92 146.236 215.857 114.388 207.338C98.4761 203.054 84.0269 200.196 72.4541 202.087C60.8813 203.978 52.1971 210.832 48.2925 225.569C33.5496 281.169 81.2668 354.51 181.775 384.106H181.824C182.905 393.172 186.943 401.628 193.313 408.168C199.683 414.708 208.031 418.968 217.064 420.287C226.098 421.607 235.315 419.913 243.29 415.468C251.264 411.023 257.552 404.075 261.181 395.698L261.304 395.82C340.41 394.871 398.39 352.179 448.843 289.767C480.318 250.838 491.622 208.286 487.632 172.069C483.641 135.851 464.333 105.912 434.633 92.3562C416.157 83.9351 399.982 80.1163 385.814 79.5043C384.223 79.437 382.65 79.4064 381.108 79.4186V79.3819ZM145.942 61.3036C148.969 61.3036 151.927 62.2009 154.443 63.8821C156.959 65.5632 158.92 67.9527 160.078 70.7484C161.236 73.5441 161.539 76.6204 160.948 79.5883C160.358 82.5562 158.901 85.2824 156.761 87.4221C154.621 89.5618 151.895 91.019 148.927 91.6093C145.959 92.1997 142.883 91.8967 140.087 90.7387C137.292 89.5807 134.902 87.6197 133.221 85.1036C131.54 82.5875 130.643 79.6295 130.643 76.6034C130.643 72.5457 132.255 68.6541 135.124 65.7848C137.993 62.9155 141.885 61.3036 145.942 61.3036ZM145.942 59.8593C142.631 59.858 139.395 60.8388 136.641 62.6776C133.888 64.5163 131.741 67.1304 130.474 70.1891C129.206 73.2478 128.874 76.6138 129.52 79.8613C130.165 83.1087 131.76 86.0917 134.101 88.4329C136.442 90.7741 139.425 92.3684 142.672 93.0141C145.92 93.6597 149.286 93.3277 152.345 92.0601C155.403 90.7925 158.017 88.6462 159.856 85.8927C161.695 83.1392 162.676 79.9022 162.674 76.5912C162.671 72.1546 160.907 67.9007 157.77 64.7635C154.633 61.6264 150.379 59.8625 145.942 59.8593Z" fill="#61A9FF"/>
<path d="M457.062 366.475C454.036 366.475 451.078 367.372 448.562 369.053C446.046 370.735 444.085 373.124 442.927 375.92C441.769 378.715 441.466 381.792 442.056 384.76C442.647 387.728 444.104 390.454 446.244 392.593C448.383 394.733 451.11 396.19 454.077 396.781C457.045 397.371 460.122 397.068 462.917 395.91C465.713 394.752 468.103 392.791 469.784 390.275C471.465 387.759 472.362 384.801 472.362 381.775C472.362 377.717 470.75 373.825 467.881 370.956C465.012 368.087 461.12 366.475 457.062 366.475ZM457.062 365.024C460.373 365.024 463.609 366.006 466.361 367.845C469.114 369.685 471.259 372.299 472.526 375.357C473.793 378.416 474.125 381.781 473.479 385.028C472.833 388.275 471.239 391.257 468.898 393.598C466.557 395.939 463.575 397.533 460.328 398.179C457.081 398.825 453.715 398.493 450.657 397.226C447.598 395.96 444.984 393.814 443.145 391.062C441.306 388.309 440.324 385.073 440.324 381.763C440.327 377.324 442.092 373.069 445.23 369.931C448.369 366.792 452.624 365.028 457.062 365.024Z" fill="#F4CCC7"/>
<path d="M56.7809 406.903C62.8091 406.94 71.3831 421.328 78.3476 443.097C82.2889 435.471 86.1628 431.634 89.3635 432.209C94.4614 433.127 97.1114 445.306 96.2668 463.966C108.225 466.346 115.086 469.957 115.19 473.929C115.196 474.285 115.151 474.639 115.055 474.982H0C1.38311 472.344 5.67319 469.786 12.3868 467.583C5.65483 457.069 3.37821 449.431 6.21787 446.573C9.55324 443.213 19.492 446.842 32.7173 456.255C30.3611 447.332 30.6548 441.487 33.5373 439.731C36.9584 437.674 43.7393 441.567 52.2154 450.483C48.2864 426.157 49.8042 408.446 55.9241 407.013C56.2006 406.946 56.4842 406.913 56.7687 406.916L56.7809 406.903Z" fill="#56BB6A"/>
<path d="M50.7222 439.241C51.0771 442.852 51.5728 446.622 52.1971 450.508C52.1971 450.508 57.6622 458.617 60.0367 464.278L62.4052 469.939C62.4052 469.939 60.7344 451.891 50.7222 439.241Z" fill="black"/>
<path d="M12.3686 467.601L17.0748 475C14.1205 473.547 11.6473 471.273 9.95117 468.452L12.3992 467.601H12.3686Z" fill="black"/>
<path d="M477.289 406.903C471.255 406.94 462.681 421.328 455.716 443.097C451.775 435.471 447.901 431.634 444.7 432.209C439.596 433.127 436.952 445.306 437.797 463.966C425.838 466.346 418.972 469.957 418.874 473.929C418.862 474.284 418.906 474.639 419.002 474.982H534.058C532.681 472.344 528.39 469.786 521.671 467.583C528.439 457.069 530.679 449.431 527.846 446.573C524.504 443.213 514.565 446.842 501.34 456.255C503.703 447.332 503.409 441.487 500.52 439.731C497.099 437.674 490.324 441.567 481.848 450.483C485.759 426.132 484.235 408.421 478.109 406.977C477.832 406.91 477.549 406.877 477.264 406.879L477.289 406.903Z" fill="#56BB6A"/>
<path d="M483.348 439.241C482.986 442.852 482.497 446.622 481.873 450.508C481.873 450.508 476.408 458.617 474.033 464.278L471.658 469.939C471.658 469.939 473.335 451.891 483.348 439.241Z" fill="black"/>
<path d="M521.695 467.601L516.995 475C519.943 473.536 522.409 471.257 524.1 468.433L521.652 467.583L521.695 467.601Z" fill="black"/>
<path d="M263.476 147.564C264.223 149.437 264.504 159.896 266.775 163.201C268.537 165.759 279.7 169.743 284.664 171.42C288.336 175.93 303.739 194.676 313.941 204.92C316.738 207.729 323.348 214.155 331.689 206.971C334.021 204.969 338.421 200.073 342.063 196.047C346.959 190.679 323.55 182.625 323.55 182.625L291.683 159.474C291.683 159.474 288.305 151.169 286.726 148.458C285.147 145.747 283.109 137.515 282.271 135.404C281.432 133.293 278.476 136.732 278.562 139.792C278.648 142.852 278.795 145.135 278.795 145.135C278.795 145.135 268.899 139.572 267.534 139.076C263.672 137.723 262.724 145.692 263.476 147.564Z" fill="#F9B098"/>
<path d="M371.64 162.264L342.069 196.047L323.556 182.625C323.556 182.625 331.071 158.525 334.057 148.843C341.04 126.2 386.163 143.947 371.64 162.264Z" fill="#D4EBFC"/>
<path d="M295.269 162.075L291.689 159.474L287.479 165.643C287.479 165.643 286.671 166.769 288.091 166.646C289.26 166.548 293.599 164.119 295.251 162.075H295.269Z" fill="black"/>
<path d="M342.717 194.743C343.421 189.474 323.556 182.625 323.556 182.625C326.053 188.084 335.031 197.05 338.293 200.202L342.069 196.047C342.412 195.688 342.638 195.233 342.717 194.743Z" fill="black"/>
<path d="M323.556 182.625L342.069 196.047C342.069 196.047 351.561 198.935 351.518 194.743C351.475 190.551 340.116 183.078 333.158 180.912C326.199 178.745 323.58 182.625 323.58 182.625H323.556Z" fill="white"/>
<path d="M272.485 147.705C275.765 151.701 276.83 159.143 277.026 162.087C277.166 164.125 276.518 166.812 276.102 168.286L277.209 168.721C277.821 168.109 278.501 166.885 279.155 164.614C279.933 161.903 279.767 159.761 278.427 156.144C277.087 152.528 278.8 145.129 278.8 145.129C278.8 145.129 270.398 145.184 272.485 147.723V147.705Z" fill="black"/>
<path d="M225.294 407.056L217.876 454.18L204.896 452.681C204.896 452.681 203.727 417.24 205.165 404.718C206.604 392.197 223.96 395.135 225.294 407.05V407.056Z" fill="#F9B098"/>
<path d="M214.829 396.677C217.501 396.949 219.999 398.131 221.904 400.025C223.809 401.919 225.006 404.41 225.294 407.081C225.294 407.081 214.737 410.979 204.774 409.902C204.872 407.95 204.994 406.193 205.165 404.749C205.863 398.69 210.294 396.248 214.829 396.701V396.677Z" fill="black"/>
<path d="M221.505 430.612L217.876 454.186L204.896 452.687C204.896 452.687 204.706 441.218 204.749 428.672L221.505 430.612Z" fill="#61B0F3"/>
<path d="M115.624 464.81L72.0198 445.447L76.8301 433.329C76.8301 433.329 111.365 441.371 123.085 445.991C134.804 450.612 127.479 466.634 115.624 464.835V464.81Z" fill="#F9B098"/>
<path d="M118.213 444.259C119.602 444.712 124.633 462.326 121.401 464.253C119.554 464.927 117.566 465.118 115.624 464.81L112.007 463.207C113.378 458.482 115.802 450.483 118.213 444.235V444.259Z" fill="black"/>
<path d="M93.8677 455.055L72.0378 445.447L76.8298 433.329C76.8298 433.329 87.9558 436.108 100.086 439.4L93.8677 455.055Z" fill="#61B0F3"/>
<path d="M83.3904 434.969C80.0856 438.562 75.9669 444.559 74.6021 446.597L72.0256 445.465L76.8298 433.329C76.8298 433.329 79.4614 433.99 83.3904 435V434.969Z" fill="black"/>
<path d="M222.87 337.748C233.091 337.748 241.279 347.001 238.488 357.417C237.264 368.286 231.279 383.121 227.889 398.188C231.426 404.541 226.83 407.54 226.365 407.466H206.102C205.361 407.656 198.629 406.346 203.892 398.807C202.84 393.69 202.98 383.764 203.28 374.021L164.18 387.674C164.18 387.674 169.859 449.4 168.568 457.919C167.277 466.438 160.306 474.982 151.01 474.982C141.714 474.982 123.892 467.736 123.892 467.736C123.482 469.088 116.175 470.184 115.624 464.81C117.24 458.782 116.946 448.972 118.213 444.259C121.053 439.321 127.062 444.731 127.062 445.067L138.476 448.739L123.996 399.78C115.061 381.763 104.327 363.794 112.785 345.312L149.082 348.133C173.972 345.416 212.583 337.729 222.87 337.729V337.748Z" fill="#274A95"/>
<path d="M204.816 445.912C209.137 448.182 215.998 450.6 218.28 451.42L217.852 454.211L204.872 452.711C204.872 452.711 204.829 450 204.792 445.936L204.816 445.912Z" fill="black"/>
<path d="M202.013 459.982C204.924 459.647 207.811 459.126 210.655 458.421C214.529 457.387 213.396 451.389 213.396 451.389C200.294 449.871 202.013 453.299 202.013 459.957V459.982Z" fill="white"/>
<path d="M199.663 474.982C196.756 469.951 198.06 465.612 202.014 459.982C209.419 459.308 212.215 457.974 213.397 451.414H216.689C216.689 451.414 221.077 447.393 223.366 454.382C225.655 461.371 242.16 462.601 248.568 466.242C255.808 470.355 255.802 475 250.361 475L199.663 474.982Z" fill="#283D50"/>
<path d="M199.437 464.278C201.33 465.365 203.078 466.687 204.639 468.213C207.448 471.028 212.73 470.563 212.73 470.563H253.599C255.11 473.048 253.868 474.988 250.355 474.988H199.664C197.54 471.316 197.675 467.999 199.437 464.284V464.278Z" fill="black"/>
<path d="M220.63 455.361C219.323 455.394 218.065 455.87 217.065 456.712C216.064 457.554 215.379 458.711 215.122 459.994C215.013 460.653 215.053 461.328 215.238 461.969C215.423 462.611 215.75 463.203 216.193 463.703C216.541 464.169 217.018 464.524 217.564 464.725C217.982 464.84 218.428 464.808 218.825 464.633C219.957 464.039 220.918 463.164 221.616 462.093C222.735 460.513 223.671 458.811 224.406 457.02C223.392 456.025 222.049 455.435 220.63 455.361ZM230.122 452.301C230.612 452.3 231.099 452.374 231.567 452.521C232.201 452.714 232.779 453.058 233.25 453.524C233.722 453.99 234.072 454.564 234.272 455.196C234.676 456.481 234.137 459.419 233.262 461.248C232.843 461.124 232.444 460.943 232.075 460.71C232.882 459.015 233.299 456.481 233.023 455.587C232.88 455.16 232.64 454.772 232.321 454.454C232.002 454.135 231.614 453.895 231.187 453.751C227.968 452.417 225.887 456.977 225.869 457.013C225.021 459.06 223.952 461.007 222.68 462.821C221.726 464.113 220.63 465.269 219.308 465.802C218.639 466.073 217.898 466.114 217.203 465.918C216.404 465.652 215.705 465.15 215.196 464.48C214.639 463.833 214.229 463.072 213.996 462.251C213.762 461.43 213.71 460.568 213.843 459.725C214.143 458.129 214.991 456.689 216.24 455.653C217.49 454.617 219.062 454.051 220.685 454.051C222.274 454.082 223.805 454.655 225.024 455.673C225.445 454.768 226.088 453.985 226.894 453.397C227.7 452.809 228.643 452.436 229.633 452.313C229.8 452.304 229.967 452.304 230.135 452.313L230.122 452.301Z" fill="#E2F0FF"/>
<path d="M231.291 457.619C231.377 457.628 231.46 457.653 231.536 457.694C231.612 457.734 231.679 457.789 231.733 457.856C231.788 457.922 231.829 457.999 231.854 458.081C231.879 458.163 231.887 458.25 231.879 458.335C231.87 458.421 231.845 458.504 231.805 458.58C231.764 458.656 231.709 458.723 231.642 458.777C231.576 458.832 231.499 458.873 231.417 458.898C231.335 458.923 231.248 458.931 231.163 458.923C230.943 458.897 230.72 458.918 230.509 458.985C230.299 459.051 230.104 459.161 229.939 459.308C229.737 459.498 229.582 459.731 229.483 459.99C229.385 460.249 229.346 460.526 229.37 460.802C229.378 460.893 229.368 460.984 229.339 461.071C229.311 461.158 229.264 461.237 229.203 461.305C229.141 461.373 229.066 461.427 228.983 461.464C228.899 461.501 228.809 461.52 228.718 461.52C228.626 461.52 228.536 461.501 228.453 461.464C228.369 461.427 228.294 461.373 228.233 461.305C228.172 461.237 228.125 461.158 228.096 461.071C228.068 460.984 228.057 460.893 228.066 460.802C228.052 460.347 228.133 459.894 228.305 459.472C228.477 459.05 228.735 458.669 229.064 458.354C229.369 458.085 229.727 457.883 230.114 457.759C230.502 457.636 230.911 457.595 231.316 457.638L231.291 457.619Z" fill="#E2F0FF"/>
<path d="M235.6 460.092C235.773 460.109 235.932 460.194 236.042 460.328C236.152 460.462 236.204 460.635 236.187 460.808C236.17 460.981 236.085 461.14 235.951 461.25C235.817 461.36 235.644 461.412 235.471 461.395C235.252 461.37 235.03 461.391 234.819 461.456C234.608 461.521 234.414 461.63 234.247 461.775C234.05 461.969 233.898 462.204 233.801 462.463C233.704 462.721 233.664 462.998 233.684 463.274C233.684 463.448 233.615 463.614 233.492 463.737C233.37 463.86 233.203 463.929 233.029 463.929C232.856 463.929 232.689 463.86 232.566 463.737C232.443 463.614 232.374 463.448 232.374 463.274C232.36 462.819 232.441 462.366 232.613 461.944C232.785 461.522 233.043 461.142 233.372 460.826C233.677 460.556 234.035 460.353 234.422 460.23C234.81 460.107 235.22 460.066 235.624 460.11L235.6 460.092Z" fill="#E2F0FF"/>
<path d="M203.109 389.816C204.915 391.805 207.577 394.486 209.602 395.422C212.962 396.971 211.671 398.807 211.671 398.807H203.892C203.392 395.836 203.13 392.829 203.109 389.816Z" fill="black"/>
<path d="M69.9265 431.095C70.2119 433.604 70.6575 436.092 71.2607 438.543C72.1542 441.879 77.3133 440.912 77.3133 440.912C78.6352 429.621 75.6793 431.12 69.9265 431.12V431.095Z" fill="white"/>
<path d="M69.9267 431.089C70.502 437.473 71.6525 439.89 77.3135 440.881V448.935C77.3135 448.935 83.3294 452.723 77.3135 454.688C73.311 455.998 70.3796 457.681 67.9377 463.66C69.7336 464.606 71.4726 465.656 73.1458 466.805C78.9353 471.047 78.4579 475.453 73.8006 474.902L64.0087 474.835L59.9634 471.885L56.9463 464.602L56.983 430.441C59.021 429.272 67.3441 429.315 69.9206 431.126L69.9267 431.089Z" fill="#283D50"/>
<path d="M66.1813 429.92C65.2737 431.646 64.1464 433.246 62.8275 434.682C62.112 435.423 61.5619 436.307 61.2138 437.277C60.8656 438.247 60.7273 439.279 60.808 440.306V465.092C60.9304 468.678 62.4665 470.802 64.9451 471.132L77.0381 471.046C78.0846 473.323 76.8484 474.957 73.819 474.939L64.0271 474.871H63.9965C61.0895 474.474 56.8973 473.911 57.0197 466.842V430.41C59.0026 429.266 64.9756 429.345 66.1996 429.92H66.1813Z" fill="black"/>
<path d="M75.8507 452.913C76.1108 451.796 75.9609 450.624 75.4284 449.608C74.943 448.607 74.1193 447.809 73.1028 447.356C72.5742 447.128 72.0011 447.022 71.4259 447.045C70.8507 447.069 70.2881 447.221 69.7797 447.491C69.3177 447.684 68.9235 448.01 68.6475 448.427C68.4594 448.75 68.3922 449.13 68.4578 449.498C68.7303 450.546 69.2604 451.51 70 452.301C71.0921 453.563 72.324 454.696 73.672 455.679C74.7152 455.037 75.4845 454.033 75.8323 452.858L75.8507 452.913ZM76.432 461.481C76.3306 461.892 76.1698 462.286 75.9547 462.65C75.6627 463.141 75.2554 463.554 74.7681 463.852C74.2808 464.151 73.7282 464.326 73.1579 464.364C72.0012 464.437 69.8103 463.556 68.4578 462.448C68.6042 462.082 68.7824 461.73 68.9902 461.395C70.2448 462.417 72.2766 463.286 73.0844 463.231C73.4713 463.194 73.8445 463.069 74.1755 462.865C74.5064 462.662 74.7864 462.385 74.9939 462.056C76.7687 459.608 73.3782 456.958 73.3476 456.94C71.8117 455.809 70.404 454.515 69.1493 453.078C68.2308 452.129 67.5951 450.942 67.3133 449.651C67.2234 449.033 67.3395 448.403 67.6438 447.858C68.0304 447.244 68.5937 446.762 69.2595 446.475C69.918 446.135 70.6433 445.945 71.3837 445.917C72.1241 445.89 72.8615 446.026 73.5434 446.316C74.8176 446.894 75.8496 447.899 76.4609 449.157C77.0722 450.416 77.2244 451.848 76.891 453.207C76.5406 454.532 75.7455 455.697 74.6389 456.505C75.3047 457.046 75.8225 457.747 76.1436 458.542C76.4647 459.337 76.5787 460.201 76.4749 461.053C76.4749 461.193 76.4259 461.334 76.3953 461.475L76.432 461.481Z" fill="#E2F0FF"/>
<path d="M72.3746 459.119C72.3591 459.266 72.2862 459.401 72.1717 459.495C72.0571 459.589 71.9101 459.634 71.7626 459.621C71.6888 459.614 71.617 459.594 71.5513 459.559C71.4856 459.525 71.4274 459.478 71.3801 459.421C71.3328 459.364 71.2973 459.298 71.2758 459.228C71.2543 459.157 71.2471 459.082 71.2547 459.009C71.2802 458.816 71.2639 458.62 71.2069 458.434C71.1499 458.248 71.0534 458.077 70.9242 457.931C70.758 457.76 70.5562 457.628 70.333 457.543C70.1099 457.458 69.8708 457.424 69.6329 457.442C69.4835 457.442 69.3403 457.383 69.2347 457.277C69.1291 457.171 69.0698 457.028 69.0698 456.879C69.0698 456.729 69.1291 456.586 69.2347 456.481C69.3403 456.375 69.4835 456.316 69.6329 456.316C70.0281 456.301 70.4221 456.37 70.789 456.517C71.156 456.665 71.4877 456.888 71.7626 457.173C71.9933 457.437 72.1667 457.747 72.2721 458.082C72.3774 458.417 72.4123 458.77 72.3746 459.119Z" fill="#E2F0FF"/>
<path d="M70.7711 461.389C70.765 461.463 70.7442 461.535 70.7099 461.601C70.6757 461.666 70.6287 461.724 70.5718 461.772C70.5148 461.819 70.4489 461.854 70.3781 461.876C70.3072 461.898 70.2328 461.905 70.1591 461.897C70.0106 461.883 69.8738 461.811 69.7786 461.696C69.6833 461.581 69.6375 461.434 69.6511 461.285C69.6767 461.092 69.6604 460.896 69.6034 460.711C69.5464 460.525 69.4499 460.353 69.3207 460.208C69.1545 460.037 68.9526 459.904 68.7295 459.82C68.5063 459.735 68.2673 459.7 68.0293 459.718C67.88 459.718 67.7368 459.659 67.6312 459.554C67.5256 459.448 67.4663 459.305 67.4663 459.155C67.4663 459.006 67.5256 458.863 67.6312 458.757C67.7368 458.652 67.88 458.592 68.0293 458.592C68.4246 458.578 68.8186 458.646 69.1855 458.794C69.5525 458.941 69.8842 459.165 70.1591 459.449C70.3909 459.712 70.5651 460.02 70.6705 460.354C70.7759 460.689 70.8102 461.041 70.7711 461.389Z" fill="#E2F0FF"/>
<path d="M127.062 445.067V456.53C127.062 456.53 128.648 456.799 129.382 454.082C130.116 451.365 133.121 447.05 133.121 447.05L127.062 445.086V445.067Z" fill="black"/>
<path d="M164.18 387.674L162.069 371.518C170.416 378.935 186.255 377.185 203.25 374.021L164.18 387.674Z" fill="black"/>
<path d="M138.476 448.758L145.82 453.788C145.82 453.788 148.146 453.017 145.82 449.657C143.495 446.297 142.203 432.607 137.038 425.122C131.873 417.638 123.972 399.786 123.972 399.786L138.452 448.745L138.476 448.758Z" fill="black"/>
<path d="M174.29 198.323C174.29 198.323 173.066 211.922 177.35 219.939C194.902 252.613 162.16 246.377 162.16 246.377C162.16 246.377 165.373 200.3 174.265 198.323H174.29Z" fill="#C84F49"/>
<path d="M168.127 339.523C168.384 339.523 174.419 348.947 170.141 349.541C146.224 352.852 134.339 353.782 110.973 349.541C106.983 348.819 116.102 338.091 116.365 338.103L168.127 339.523Z" fill="white"/>
<path d="M143.843 250.918L105.129 265.122C105.129 265.122 120.343 306.799 118.899 326.255C116.903 336.046 110.735 340.404 114.615 342.944C136.83 345.704 145.588 347.534 170.214 342.944C175.074 331.414 172.76 330.367 173.886 322.815C173.886 322.815 187.877 268.99 188.666 265.122C184.602 262.466 166.022 251.603 166.022 251.603L143.856 250.918H143.843Z" fill="#A5D9FF"/>
<path d="M143.843 250.918L166.01 251.603C166.01 251.603 172.999 255.698 179.376 259.486C170.997 272.84 163.305 279.07 159.529 279.621C155.753 280.171 135.979 270.985 126.04 257.448L143.843 250.918Z" fill="#F9B098"/>
<path d="M139.314 320.147C139.314 320.147 136.407 327.57 129.272 329.584C125.385 330.569 121.406 331.143 117.399 331.297C118.044 329.665 118.545 327.98 118.898 326.261C118.953 325.569 118.978 324.847 118.99 324.106C124.926 323.923 133.58 323.109 139.314 320.147Z" fill="black"/>
<path d="M146.438 248.868C146.438 248.868 145.655 280.845 142.766 300.233C139.877 319.621 142.576 325.214 132.974 326.089C129.242 326.482 125.49 326.656 121.738 326.61C117.79 326.475 109.449 327.136 113.843 316.561C111.97 306.279 108.39 288.794 106.469 283.813C103.837 277.001 102.185 269.125 105.159 265.122C108.133 261.12 141.328 251.132 146.462 248.868H146.438Z" fill="#61B0F3"/>
<path d="M147.638 223.305L146.94 248.397C146.94 267.148 167.136 267.069 167.136 251.628L163.464 234.07L147.65 223.329L147.638 223.305Z" fill="#F9B098"/>
<path d="M153.556 227.326L163.445 234.058L165.061 241.775C161.903 242.026 157.417 241.775 153.929 239.027C147.901 234.308 153.549 227.326 153.549 227.326H153.556Z" fill="black"/>
<path d="M172.234 201.732L170.184 226.824C170.184 226.824 168.378 236.646 161.046 236.646C155.851 236.646 147.638 226.909 147.583 221.842C147.528 216.775 147.583 208.629 147.583 200.71C147.583 192.791 173.286 189.131 172.264 201.756L172.234 201.732Z" fill="#F9B098"/>
<path d="M167.919 213.06C167.919 213.06 170.594 216.401 171.781 216.401C172.968 216.401 172.154 219.523 169.774 219.376C167.393 219.229 166.028 211.169 167.938 213.06H167.919Z" fill="black"/>
<path d="M165.838 198.152C165.838 198.152 162.87 213.354 155.881 217.632C148.892 221.909 144.963 218.329 144.963 218.329L149.682 222.264C149.682 222.264 160.336 221.824 164.62 208.721C168.904 195.618 165.232 192.13 165.232 192.13L165.844 198.152H165.838Z" fill="#C84F49"/>
<path d="M165.226 263.635C165.226 263.635 164.051 283.984 163.274 297.699C162.497 311.414 162.827 320.496 162.827 320.496C162.827 320.496 171.395 277.521 170.863 269.4C170.33 261.279 167.411 263.201 165.226 263.635Z" fill="black"/>
<path d="M166.01 251.603C166.01 251.603 189.155 261.714 190.067 263.323C190.832 264.682 183.409 300.153 179.578 314.272C178.88 316.842 181.157 318.397 180.104 320.636C177.044 327.062 165.52 325.086 163.445 324.345C161.371 323.605 161.805 320.269 162.687 315.942C163.568 311.616 170.294 265.759 169.639 262.332C168.984 258.905 166.01 251.603 166.01 251.603Z" fill="#61B0F3"/>
<path d="M146.438 248.868C146.438 248.868 153.905 253.531 161.016 253.574C167.876 254.015 165.141 247.907 166.04 246.457C166.04 246.457 170.539 244.535 174.302 247.069C178.066 249.602 174.113 252.307 175.08 253.966C176.047 255.624 178.721 261.83 165.655 267.246C152.589 272.662 139.89 267.246 136.328 262.001C132.766 256.756 134.566 251.346 135.814 249.076C137.062 246.805 146.83 247.069 146.83 247.069L146.42 248.868H146.438Z" fill="white"/>
<path d="M153.391 252.326C153.391 252.326 149.688 259.308 150.722 263.953C151.757 268.599 156.169 267.846 160.061 266.922C162.069 266.444 162.754 267.295 162.944 268.231C157.437 269.924 151.548 269.924 146.04 268.231C145.263 265.141 146.193 260.073 153.384 252.319L153.391 252.326Z" fill="#CCDEF2"/>
<path d="M155.887 253.005C155.887 253.005 149.302 253.182 147.479 264.272C145.655 275.361 148.794 284.015 147.295 288.384C145.796 292.754 145.845 292.056 145.845 292.056C142.915 293.082 139.799 293.466 136.707 293.182C131.811 292.662 129.186 290.214 129.186 290.214C129.186 290.214 132.638 287.858 132.748 281.304C132.858 274.749 132.136 264.1 135.906 256.328C139.676 248.556 146.879 246.193 151.45 247.76C156.022 249.327 160.685 253.574 160.685 253.574C158.849 253.623 157.472 253.207 155.887 252.999V253.005Z" fill="white"/>
<path d="M153.953 185.159C155.445 185.123 156.936 185.205 158.415 185.404C158.415 185.404 158.17 185.777 157.803 186.316C160.997 185.563 164.602 186.401 168.439 190.116C168.439 190.116 173.525 184.51 177.472 186.86C181.42 189.211 174.29 198.323 174.29 198.323L172.234 201.707C172.234 199.804 171.622 195.716 167.497 198.078C164.229 199.945 160.575 217.344 150.324 215C149.888 214.898 149.457 214.773 149.033 214.627C148.904 217.405 149.033 220.226 149.682 222.24C151.518 227.748 156.585 239.002 151.169 245.379C145.753 251.756 130.728 249.051 127.497 241.622C124.265 234.192 134.657 223.807 134.045 216.297C133.433 208.788 130.373 198.39 137.974 190.881C142.729 186.187 149.522 185.208 153.953 185.135V185.159Z" fill="#C84F49"/>
<path d="M144.792 202.173C144.792 202.173 148.892 189.321 157.283 187.76C164.131 186.475 168.464 190.116 168.464 190.116C168.464 190.116 164.988 184.529 155.906 185.055C146.824 185.581 137.013 200.086 144.792 202.191V202.173Z" fill="black"/>
<path d="M175.043 252.668C174.958 252.875 174.918 253.098 174.924 253.321C174.931 253.544 174.984 253.764 175.079 253.966C175.428 254.559 175.682 255.203 175.832 255.875C175.287 256.277 174.7 256.62 174.082 256.897C171.371 258.072 166.53 257.577 171.603 255.104C172.896 254.516 174.063 253.685 175.043 252.656V252.668Z" fill="black"/>
<path d="M137.283 298.898C137.252 299.013 137.249 299.133 137.273 299.248C137.297 299.364 137.348 299.473 137.422 299.565C137.496 299.658 137.59 299.731 137.698 299.78C137.806 299.829 137.924 299.852 138.042 299.847C138.31 299.836 138.568 299.738 138.775 299.566C138.981 299.395 139.126 299.16 139.186 298.898C139.218 298.784 139.223 298.663 139.199 298.547C139.176 298.43 139.125 298.32 139.051 298.227C138.977 298.134 138.881 298.06 138.773 298.011C138.665 297.961 138.546 297.938 138.427 297.944C138.158 297.955 137.9 298.054 137.693 298.227C137.486 298.399 137.342 298.636 137.283 298.898Z" fill="black"/>
<path d="M136.561 308.531C136.53 308.645 136.526 308.765 136.55 308.881C136.575 308.997 136.626 309.106 136.7 309.198C136.774 309.29 136.868 309.364 136.976 309.413C137.084 309.462 137.201 309.485 137.32 309.48C137.588 309.469 137.846 309.371 138.052 309.199C138.259 309.028 138.404 308.793 138.464 308.531C138.495 308.417 138.499 308.297 138.474 308.181C138.45 308.065 138.399 307.957 138.325 307.864C138.251 307.772 138.157 307.698 138.049 307.649C137.941 307.6 137.823 307.578 137.705 307.583C137.437 307.593 137.179 307.692 136.973 307.863C136.766 308.035 136.621 308.269 136.561 308.531Z" fill="black"/>
<path d="M135.514 318.537C135.482 318.651 135.477 318.771 135.5 318.887C135.524 319.003 135.574 319.112 135.648 319.204C135.721 319.297 135.816 319.371 135.923 319.42C136.031 319.469 136.149 319.491 136.267 319.486C136.536 319.477 136.795 319.379 137.003 319.207C137.211 319.036 137.357 318.8 137.417 318.537C137.448 318.423 137.452 318.303 137.427 318.187C137.403 318.071 137.352 317.963 137.278 317.871C137.204 317.778 137.11 317.704 137.002 317.656C136.894 317.607 136.777 317.584 136.658 317.589C136.39 317.599 136.132 317.698 135.926 317.869C135.719 318.041 135.574 318.276 135.514 318.537Z" fill="black"/>
<path d="M191.787 328.305C191.568 328.054 191.278 327.877 190.955 327.797C188.862 327.117 176.879 321.677 172.185 322.203C170.869 322.377 169.565 322.63 168.28 322.962C168.729 322.348 169.138 321.707 169.504 321.04C171.909 316.659 169.229 315.814 168.317 316.916C167.405 318.017 156.199 325.826 156.199 325.826L134.988 323.219L132.57 339.602C139.894 339.27 147.177 338.316 154.339 336.75C154.339 336.75 165.802 340.324 171.475 340.086C175.147 339.933 177.778 340.141 178.029 338.146C178.164 337.056 179.015 337.062 181.242 336.86C184.443 336.561 183.77 331.524 183.77 331.524C183.77 331.524 185.355 332.173 188.55 331.365C191.15 330.71 192.515 329.211 191.811 328.305H191.787Z" fill="#F9B098"/>
<path d="M179.731 328.335C179.731 328.335 185.294 328.55 188.39 331.395C186.248 332.405 184.492 331.622 183.739 331.524L179.731 328.335Z" fill="black"/>
<path d="M105.128 265.122L105.453 264.816C116.065 255.257 133.88 264.725 128.605 283.494C125.643 294.021 114.602 320.716 114.602 320.716L131.028 322.736C130.073 323.213 129.027 324.186 127.968 326.016C125.679 330.037 123.972 335.679 123.868 339.902C118.751 340.037 113.843 340.08 109.878 339.951C106.083 339.835 97.2766 339.412 96.842 328.886C96.7196 325.949 97.2704 319.706 97.705 314.504L101.989 271.769C102.266 269.272 103.359 266.936 105.098 265.122H105.128Z" fill="#61B0F3"/>
<path d="M152.069 325.282L156.193 325.826L154.627 332.797C154.627 332.797 154.37 334.088 153.513 333.011C152.815 332.13 151.732 327.778 152.069 325.282Z" fill="black"/>
<path d="M134.982 323.219L132.564 339.614C132.564 339.614 127.834 347.846 125.11 344.865C122.387 341.885 124.529 332.093 127.987 326.016C131.444 319.939 134.982 323.219 134.982 323.219Z" fill="white"/>
<path d="M114.602 320.722L107.381 322.638C107.381 322.638 106.634 322.717 107.154 321.414C107.674 320.11 116.946 314.982 116.946 314.982L114.621 320.698L114.602 320.722Z" fill="black"/>
<path d="M134.982 323.219L136.964 339.351L132.564 339.602L134.982 323.219Z" fill="black"/>
<path d="M274.792 279.847C274.63 279.808 274.462 279.804 274.299 279.837C274.136 279.87 273.983 279.938 273.849 280.037C272.38 280.912 256.542 288.96 256.542 288.96C256.525 287.355 256.623 285.752 256.836 284.162C257.197 281.255 255.085 279.266 254.088 281.175C253.09 283.084 250.618 288.574 248.861 291.034C247.105 293.494 243.525 298.868 243.525 298.868L223.8 307.081L229.786 322.521C239.755 315.177 245.789 309.786 245.967 310.159C250.863 309.027 261.879 306.726 263.776 304.449C265.104 302.876 267.313 296.457 267.784 291.45L273.794 284.37C275.63 282.215 275.685 280.153 274.798 279.847H274.792Z" fill="#F9B098"/>
<path d="M169.143 271.31L169.272 270.894C173.782 257.332 193.947 256.769 198.648 275.692C201.273 286.304 204.859 314.976 204.859 314.976L220.159 308.611C219.547 309.498 219.143 310.869 219.137 312.968C219.137 317.595 220.441 323.372 222.43 327.044C218.054 329.688 213.807 332.148 210.294 334.002C206.934 335.771 199.07 339.749 193.495 330.814C191.94 328.323 189.321 322.601 187.136 317.882L169.755 278.629C168.76 276.311 168.556 273.731 169.174 271.285L169.143 271.31Z" fill="#61B0F3"/>
<path d="M223.794 307.081L229.792 322.558C229.792 322.558 229.743 332.05 225.912 330.802C222.081 329.553 219.088 319.988 219.094 312.993C219.1 305.998 223.794 307.105 223.794 307.105V307.081Z" fill="white"/>
<path d="M204.841 314.975L199.51 320.208C199.51 320.208 198.898 320.643 198.715 319.272C198.531 317.901 204.039 308.868 204.039 308.868L204.841 314.988V314.975Z" fill="black"/>
<path d="M223.8 307.081L233.641 319.718L229.792 322.521L223.8 307.081Z" fill="black"/>
<path d="M243.525 298.868L243.843 304.143C243.843 304.143 243.58 304.755 242.662 303.807C241.744 302.858 239.119 300.747 239.119 300.747L243.525 298.849V298.868Z" fill="black"/>
<path d="M256.542 288.96C256.542 288.96 255.404 293.458 253.231 295.3C251.059 297.142 249.437 304.198 250.936 306.034C252.436 307.87 253.629 307.662 253.794 307.393C253.96 307.124 253.507 300.82 255.141 297.931C256.597 295.517 258.275 293.242 260.153 291.138C261.114 290.006 256.542 288.966 256.542 288.966V288.96Z" fill="black"/>
<path d="M258.458 96.6524C257.991 96.7474 257.555 96.9578 257.191 97.2644C255.226 98.8862 252.295 101.45 251.866 102.497C251.285 103.996 251.756 108.231 251.983 109.841C252.191 111.334 253.207 117.834 254.149 119.021C255.092 120.208 261.579 122.993 263.066 123.592C263.788 123.886 265.765 124.651 267.717 125.3L273.653 183.605C274.877 192.173 285.759 190.563 284.559 182.173L275.569 124.388C277.589 123.048 279.773 121.401 280.508 120.826C281.701 119.896 286.824 115.765 287.368 114.364C287.944 112.864 287.087 105.942 286.866 104.351C286.658 102.858 286.028 99.0392 285.079 97.8703C284.425 97.0563 281.505 95.5202 279.082 94.5471C277.154 93.776 274.975 95.0245 275.318 97.399C275.967 101.965 276.328 105.673 276.205 106.175C275.973 107.087 272.087 111.616 270.275 111.909C268.464 112.203 263.543 108.849 263.011 107.98C262.748 107.558 262.032 103.648 261.365 98.978C261.114 97.2154 259.773 96.4076 258.458 96.6524Z" fill="url(#paint0_linear)"/>
<path d="M284.565 182.136C283.599 181.73 282.55 181.563 281.505 181.646L279.737 181.787C279.737 181.787 279.186 181.567 279.914 180.685C280.642 179.804 282.234 167.442 282.234 167.442L284.59 182.13L284.565 182.136Z" fill="black"/>
<path d="M275.569 124.388L272.613 126.72C272.613 126.72 272.001 127.368 273.072 127.907C274.143 128.446 276.426 129.902 276.426 129.902L275.569 124.394V124.388Z" fill="black"/>
<path d="M251.873 320.612H200.153C199.236 320.65 198.37 321.041 197.734 321.703C197.099 322.365 196.745 323.247 196.745 324.165C196.745 325.082 197.099 325.964 197.734 326.626C198.37 327.288 199.236 327.679 200.153 327.717H251.873C252.789 327.679 253.656 327.288 254.291 326.626C254.926 325.964 255.281 325.082 255.281 324.165C255.281 323.247 254.926 322.365 254.291 321.703C253.656 321.041 252.789 320.65 251.873 320.612Z" fill="black"/>
<path d="M316.769 273.207H244.106C240.526 273.207 238.66 276.236 237.644 279.663L225.355 321.279C224.339 324.706 226.297 327.736 229.871 327.736H301.218C304.798 327.736 308.28 324.706 309.29 321.279L321.585 279.663C322.601 276.236 320.361 273.207 316.769 273.207Z" fill="#4C9EFF"/>
<path d="M278.023 294.651C278.81 294.657 279.59 294.804 280.324 295.086C279.824 295.93 279.514 296.873 279.417 297.85C279.319 298.826 279.436 299.812 279.76 300.738C280.083 301.665 280.606 302.509 281.29 303.213C281.974 303.916 282.804 304.461 283.721 304.81C283.12 305.826 282.263 306.666 281.236 307.246C280.208 307.826 279.046 308.125 277.866 308.115C276.686 308.104 275.53 307.784 274.513 307.185C273.496 306.587 272.654 305.732 272.072 304.706C271.49 303.679 271.187 302.518 271.195 301.338C271.203 300.158 271.521 299.001 272.117 297.983C272.713 296.964 273.566 296.121 274.591 295.536C275.616 294.951 276.776 294.646 277.956 294.651H278.023Z" fill="white"/>
<path d="M189.951 97.4296C192.438 97.42 194.902 97.9012 197.203 98.8459C199.504 99.7905 201.595 101.18 203.358 102.934C205.12 104.689 206.519 106.774 207.474 109.07C208.429 111.367 208.921 113.829 208.923 116.316C208.927 120.053 207.823 123.707 205.751 126.817C203.678 129.926 200.731 132.352 197.281 133.788C193.831 135.223 190.033 135.604 186.366 134.882C182.7 134.16 179.33 132.368 176.681 129.732C174.033 127.095 172.225 123.733 171.487 120.07C170.748 116.407 171.112 112.607 172.532 109.15C173.952 105.694 176.365 102.736 179.465 100.65C182.565 98.5634 186.214 97.4429 189.951 97.4296ZM186.646 65.1958C184.419 65.1958 182.974 67.0318 182.632 69.2105L180.3 84.3635C178.195 85.0093 176.161 85.8664 174.229 86.9217L161.861 77.8274C160.061 76.5116 157.748 76.2546 156.175 77.8274L151.487 82.5153C149.914 84.0942 150.171 86.4076 151.487 88.2007L160.728 100.802C159.78 102.659 159.007 104.602 158.421 106.603L142.87 108.972C140.673 109.308 138.856 110.765 138.856 112.993V119.621C138.856 121.848 140.692 123.293 142.87 123.641L158.782 126.089C159.387 127.915 160.151 129.685 161.065 131.377L151.487 144.468C150.171 146.261 149.914 148.574 151.487 150.153L156.175 154.841C157.748 156.414 160.061 156.157 161.861 154.841L175.123 145.08C176.737 145.9 178.418 146.583 180.147 147.124L182.656 163.427C182.993 165.624 184.443 167.442 186.671 167.442H193.305C195.533 167.442 196.977 165.606 197.326 163.427L199.829 147.124C201.557 146.581 203.237 145.897 204.853 145.08L218.103 154.835C219.896 156.151 222.209 156.408 223.782 154.835L228.47 150.147C230.049 148.568 229.792 146.255 228.47 144.461L218.892 131.401C219.81 129.709 220.574 127.937 221.175 126.108L237.087 123.66C239.29 123.323 241.108 121.867 241.108 119.639V113.011C241.108 110.789 239.272 109.339 237.087 108.996L221.536 106.603C220.955 104.6 220.183 102.657 219.229 100.802L228.507 88.2007C229.829 86.4015 230.086 84.0881 228.507 82.5153L223.819 77.8274C222.246 76.2546 219.933 76.5116 218.14 77.8274L205.722 86.94C203.791 85.8822 201.757 85.025 199.651 84.3819L197.326 69.1922C196.983 66.9951 195.533 65.1775 193.305 65.1775L186.646 65.1958Z" fill="#5F95CF"/>
<path d="M181.15 140.912L175.122 145.08C176.245 145.648 177.399 146.15 178.58 146.585L181.15 140.887V140.912Z" fill="black"/>
<path d="M198.825 140.912L204.853 145.104C203.731 145.673 202.576 146.176 201.395 146.61L198.825 140.912Z" fill="black"/>
<path d="M180.282 91.1077L174.253 86.94C175.335 86.3473 176.45 85.8201 177.595 85.3611L180.282 91.1261V91.1077Z" fill="black"/>
<path d="M199.7 91.1077L205.722 86.9217C204.641 86.3078 203.516 85.774 202.356 85.3244L199.7 91.1077Z" fill="black"/>
<path d="M159.651 103.121C159.182 104.26 158.774 105.422 158.427 106.603L165.587 105.012L159.657 103.121H159.651Z" fill="black"/>
<path d="M158.782 126.108C159.167 127.282 159.62 128.432 160.141 129.553L165.942 127.717L158.782 126.108Z" fill="black"/>
<path d="M220.325 103.121C220.799 104.258 221.207 105.42 221.549 106.603L214.388 105.012L220.318 103.121H220.325Z" fill="black"/>
<path d="M221.199 126.108C220.81 127.281 220.354 128.431 219.835 129.553L214.033 127.717L221.199 126.108Z" fill="black"/>
<path d="M171.102 117.001C170.789 118.337 170.631 119.705 170.63 121.077C170.63 131.365 179.296 139.706 189.988 139.706C200.679 139.706 209.345 131.365 209.345 121.077C209.347 119.707 209.191 118.342 208.88 117.007C208.727 121.915 206.67 126.571 203.144 129.988C199.618 133.406 194.901 135.317 189.991 135.317C185.081 135.317 180.363 133.406 176.838 129.988C173.312 126.571 171.255 121.915 171.102 117.007V117.001Z" fill="black"/>
<path d="M299.003 32.2338C304.014 32.2354 308.82 34.227 312.364 37.7708C315.908 41.3146 317.899 46.1205 317.901 51.1322C317.902 54.8712 316.795 58.5265 314.718 61.636C312.642 64.7455 309.69 67.1695 306.236 68.6015C302.783 70.0334 298.982 70.409 295.314 69.6808C291.647 68.9525 288.278 67.1531 285.633 64.5101C282.989 61.8672 281.187 58.4993 280.456 54.8324C279.726 51.1655 280.099 47.3643 281.529 43.9095C282.958 40.4547 285.38 37.5014 288.489 35.4232C291.597 33.3449 295.251 32.235 298.99 32.2338H299.003ZM295.704 0C293.476 0 292.032 1.83598 291.683 4.0208L289.357 19.1677C287.253 19.815 285.219 20.672 283.286 21.7258L270.887 12.6316C269.094 11.3158 266.781 11.0588 265.208 12.6316L260.514 17.3256C258.941 18.8984 259.198 21.2117 260.514 23.0049L269.761 35.6059C268.808 37.4633 268.035 39.4082 267.454 41.4137L251.903 43.8005C249.7 44.1432 247.883 45.5936 247.883 47.8213V54.4553C247.883 56.6769 249.719 58.1273 251.903 58.47L267.815 60.918C268.421 62.7434 269.185 64.5127 270.098 66.2056L260.514 79.2656C259.198 81.0649 258.941 83.3782 260.514 84.951L265.208 89.6389C266.781 91.2117 269.094 90.9547 270.887 89.6389L284.156 79.9082C285.768 80.7283 287.447 81.4121 289.174 81.9523L291.683 98.2558C292.02 100.453 293.476 102.27 295.704 102.27H302.338C304.559 102.27 306.01 100.435 306.353 98.2558L308.862 81.9523C310.589 81.4121 312.267 80.7283 313.88 79.9082L327.148 89.6389C328.941 90.9547 331.255 91.2117 332.834 89.6389L337.521 84.951C339.094 83.3782 338.837 81.0587 337.521 79.2656L327.944 66.2056C328.857 64.5127 329.62 62.7434 330.227 60.918L346.138 58.47C348.335 58.1334 350.153 56.6769 350.153 54.4492V47.8213C350.153 45.5936 348.317 44.1493 346.138 43.8005L330.581 41.4076C330 39.4051 329.229 37.4625 328.28 35.6059L337.521 23.0049C338.837 21.2117 339.094 18.8984 337.521 17.3256L332.834 12.6316C331.255 11.0588 328.941 11.3158 327.148 12.6316L314.755 21.7258C312.822 20.673 310.788 19.8161 308.684 19.1677L306.353 4.01469C306.016 1.81762 304.559 0 302.338 0H295.704Z" fill="#73C3FF"/>
<path d="M290.177 75.7221L284.155 79.9082C285.275 80.4774 286.428 80.9801 287.607 81.4137L290.177 75.7221Z" fill="black"/>
<path d="M307.858 75.7221L313.88 79.9082C312.76 80.4774 311.607 80.9801 310.428 81.4137L307.858 75.7221Z" fill="black"/>
<path d="M289.308 25.9118L283.286 21.7258C284.366 21.1343 285.48 20.6071 286.622 20.1469L289.308 25.9118Z" fill="black"/>
<path d="M308.727 25.9119L314.755 21.7258C313.672 21.112 312.545 20.5781 311.383 20.1285L308.727 25.9119Z" fill="black"/>
<path d="M268.684 37.9253C268.21 39.0617 267.801 40.2244 267.46 41.4076L274.621 39.8164L268.69 37.9253H268.684Z" fill="black"/>
<path d="M267.809 60.918C268.2 62.0879 268.654 63.236 269.168 64.3574L274.969 62.5214L267.809 60.9302V60.918Z" fill="black"/>
<path d="M329.357 37.9253C329.829 39.0627 330.237 40.2252 330.581 41.4076L323.421 39.8164L329.357 37.9253Z" fill="black"/>
<path d="M330.226 60.918C329.84 62.0887 329.388 63.237 328.874 64.3574L323.072 62.5214L330.233 60.9302L330.226 60.918Z" fill="black"/>
<path d="M280.128 51.8054C279.816 53.1415 279.658 54.5091 279.657 55.8813C279.657 66.1689 288.329 74.5104 299.021 74.5104C309.712 74.5104 318.378 66.1689 318.378 55.8813C318.378 54.5111 318.22 53.1455 317.907 51.8115C317.754 56.7193 315.697 61.3749 312.171 64.7924C308.645 68.2099 303.928 70.121 299.018 70.121C294.108 70.121 289.39 68.2099 285.864 64.7924C282.339 61.3749 280.281 56.7193 280.128 51.8115V51.8054Z" fill="black"/>
<path d="M212.889 336.542H225.392L201.291 474.982H194.994L212.889 336.542Z" fill="black"/>
<path d="M302.674 336.542H290.171L314.266 474.982H320.569L302.674 336.542Z" fill="black"/>
<path d="M202.283 327.717H309.994C313.501 327.717 316.322 330.379 316.322 333.678C316.322 336.977 313.501 339.645 309.994 339.645H202.283C198.776 339.645 195.955 336.983 195.955 333.678C195.955 330.373 198.776 327.717 202.283 327.717Z" fill="#F5933D"/>
<path d="M256.365 405.581L310.177 454.688H202.552L256.365 405.581ZM216.432 367.234H296.297L256.365 403.678L216.432 367.234ZM214.633 365.588L214.345 365.869H213.923V366.279L213.623 366.567L213.923 366.842V367.234H214.351L255.324 404.627L198.978 456.034H311.671L311.983 456.322L312.276 456.034H312.686V455.63L312.962 455.361L312.662 455.092V454.694H312.234L257.38 404.639L299.847 365.881H214.939L214.633 365.6V365.588Z" fill="black"/>
<path d="M474.866 422.925L480.575 433.703C477.62 439.59 470.973 444.517 465.753 445.716L455.478 431.463L462.271 423.507L474.866 422.95V422.925Z" fill="#F9B098"/>
<path d="M462.289 423.47L455.496 431.426C455.496 431.426 471.444 432.717 477.289 427.423L474.865 422.925L462.271 423.482L462.289 423.47Z" fill="black"/>
<path d="M489.266 438.225C486.683 439.874 483.994 441.353 481.218 442.65C477.399 444.357 474.37 438.751 474.37 438.751C484.009 428.892 484.871 432.803 489.266 438.225Z" fill="white"/>
<path d="M489.266 438.225C482.809 442.552 479.657 443.311 474.37 438.751L466.781 444.902C466.781 444.902 458.617 442.117 461.365 449.302C462.589 452.583 461.028 457.356 458.715 462.252C455.966 463.291 453.277 464.482 450.661 465.82C443.09 470.104 443.103 475 448.788 475L468.323 473.972L497.038 451.426C496.083 445.428 492.876 439.602 489.253 438.213L489.266 438.225Z" fill="#274A95"/>
<path d="M466.457 450.122C467.642 449.396 469.049 449.116 470.422 449.333C471.759 449.507 472.994 450.144 473.911 451.132C474.376 451.653 474.719 452.271 474.915 452.941C475.111 453.611 475.155 454.317 475.043 455.006C475.002 455.613 474.778 456.194 474.4 456.671C474.1 457.005 473.69 457.222 473.244 457.283C472.258 457.479 470.796 457.173 469.357 456.603C467.48 455.841 465.699 454.859 464.051 453.678C464.39 452.233 465.246 450.962 466.457 450.104V450.122ZM456.389 452.772C455.952 453.044 455.559 453.383 455.227 453.776C454.778 454.301 454.462 454.927 454.308 455.601C454.153 456.274 454.164 456.975 454.339 457.644C454.7 459.002 456.787 461.316 458.623 462.436C458.895 462.071 459.091 461.654 459.198 461.212C457.534 460.165 455.918 458.262 455.667 457.313C455.558 456.854 455.556 456.376 455.663 455.917C455.769 455.457 455.98 455.028 456.279 454.663C458.378 451.677 462.772 454.547 462.803 454.572C464.695 455.903 466.726 457.023 468.862 457.913C470.435 458.525 472.056 458.941 473.507 458.66C474.253 458.53 474.933 458.151 475.435 457.583C475.988 456.901 476.327 456.07 476.408 455.196C476.536 454.312 476.472 453.412 476.218 452.556C475.965 451.7 475.528 450.909 474.939 450.239C473.809 449.003 472.278 448.207 470.618 447.993C468.912 447.746 467.174 448.122 465.722 449.051C464.334 449.969 463.302 451.334 462.797 452.919C461.92 452.355 460.914 452.022 459.874 451.952C458.833 451.883 457.792 452.079 456.848 452.521C456.689 452.601 456.542 452.693 456.395 452.785L456.389 452.772Z" fill="#E2F0FF"/>
<path d="M493.574 442.124C492.485 444.125 491.254 446.554 491.083 448.201C490.997 449.356 490.629 450.473 490.011 451.454C489.393 452.434 488.545 453.248 487.54 453.825L467.185 470.355H445.41C443.825 472.95 445.122 474.982 448.8 474.982H464.645C467.093 474.982 469.076 474.596 470.655 473.433L497.05 451.401C496.538 448.102 495.355 444.942 493.574 442.117V442.124Z" fill="black"/>
<path d="M458.09 458.421C457.947 458.532 457.853 458.696 457.83 458.876C457.808 459.056 457.857 459.238 457.968 459.382C458.08 459.524 458.244 459.616 458.423 459.639C458.603 459.662 458.785 459.614 458.929 459.504C459.11 459.352 459.322 459.241 459.55 459.179C459.778 459.117 460.017 459.104 460.251 459.143C460.533 459.202 460.799 459.323 461.03 459.496C461.26 459.67 461.45 459.892 461.585 460.147C461.682 460.3 461.835 460.408 462.012 460.448C462.189 460.488 462.374 460.457 462.527 460.361C462.681 460.263 462.789 460.108 462.829 459.931C462.869 459.753 462.838 459.567 462.742 459.412C462.499 458.998 462.172 458.64 461.782 458.361C461.392 458.081 460.947 457.887 460.477 457.791C460.059 457.722 459.63 457.74 459.22 457.846C458.809 457.951 458.424 458.141 458.09 458.403V458.421Z" fill="#E2F0FF"/>
<path d="M455.073 462.399C455.002 462.453 454.943 462.522 454.898 462.599C454.854 462.677 454.826 462.763 454.815 462.852C454.804 462.941 454.811 463.031 454.835 463.117C454.86 463.203 454.901 463.284 454.957 463.354C455.012 463.424 455.081 463.483 455.158 463.527C455.236 463.571 455.322 463.599 455.41 463.61C455.499 463.621 455.589 463.614 455.675 463.59C455.761 463.566 455.842 463.525 455.912 463.47C456.093 463.32 456.304 463.211 456.531 463.148C456.758 463.086 456.995 463.073 457.228 463.109C457.511 463.169 457.778 463.291 458.01 463.465C458.242 463.64 458.432 463.863 458.568 464.119C458.666 464.27 458.819 464.378 458.996 464.418C459.172 464.458 459.357 464.427 459.51 464.333C459.664 464.235 459.772 464.08 459.812 463.903C459.853 463.725 459.821 463.539 459.725 463.384C459.482 462.97 459.155 462.612 458.765 462.332C458.375 462.053 457.93 461.859 457.46 461.763C457.042 461.694 456.613 461.712 456.203 461.818C455.792 461.923 455.407 462.113 455.073 462.375V462.399Z" fill="#E2F0FF"/>
<path d="M359.388 224.027C359.388 224.027 353.39 326.842 352.656 337.099C352.105 344.835 355.288 399.131 354.737 424.761C347.546 433.409 356.836 438.397 357.374 438.366H378.568C381.854 435.073 388.562 435.104 384.92 421.53C389.651 407.552 394.657 384.749 390.092 339.18L396.212 295.557C400.251 315.9 407.27 338.96 408.574 342.601C411.187 349.908 434.663 397.681 444.48 421.346C441.377 432.16 455.496 431.45 455.496 431.45L474.865 422.925C476.554 418.586 481.157 416.952 472.356 405.991C472.191 394.211 461.952 358.739 442.693 332.772L440.08 295.569C438.445 273.537 436.597 250.771 435.538 245.826C433.348 235.6 430.386 224.039 430.386 224.039L359.388 224.027Z" fill="#0E275C"/>
<path d="M378.562 438.366L376.206 450.324C370.208 453.035 361.94 452.681 357.13 450.324L357.375 438.366L367.675 436.444L378.562 438.366Z" fill="#F9B098"/>
<path d="M367.674 436.444L357.375 438.366C357.375 438.366 369.694 443.831 377.57 443.397L378.562 438.366L367.674 436.444Z" fill="black"/>
<path d="M380.122 459.302C377.084 458.954 374.07 458.41 371.102 457.674C367.056 456.591 368.237 450.33 368.237 450.33C381.934 448.745 380.135 452.332 380.135 459.308L380.122 459.302Z" fill="white"/>
<path d="M382.583 474.982C385.643 469.725 384.253 465.19 380.135 459.302C372.393 458.592 369.468 457.197 368.237 450.324H358.446C358.446 450.324 353.862 443.023 351.469 450.324C349.076 457.625 331.818 462.02 325.153 465.82C317.583 470.104 317.589 475 323.274 475L382.583 474.982Z" fill="#274A95"/>
<path d="M358.495 239.192C358.495 239.529 358.44 240.214 358.415 240.569C376.483 243.949 394.868 245.33 413.238 244.688C415.011 248.234 417.368 251.457 420.208 254.223C422.978 256.972 426.433 258.931 430.214 259.896L441.145 331.646C441.145 331.646 442.98 336.818 442.693 332.76L431.64 260.165C433.488 260.447 435.368 260.447 437.216 260.165C437.179 259.731 437.136 259.235 437.099 258.819C430.227 259.92 424.963 256.891 421.145 253.256C418.571 250.738 416.409 247.833 414.737 244.645C421.242 244.357 427.993 243.77 434.872 242.809C434.774 242.362 434.676 241.922 434.572 241.469C402.448 245.979 373.127 242.001 358.495 239.223V239.192Z" fill="#E2F0FF"/>
<path d="M351.72 453.819C353.112 453.838 354.451 454.355 355.496 455.275C356.531 456.137 357.233 457.335 357.479 458.66C357.594 459.349 357.554 460.055 357.361 460.726C357.169 461.397 356.828 462.017 356.365 462.54C356.002 463.03 355.501 463.401 354.926 463.605C354.49 463.726 354.026 463.694 353.611 463.513C352.674 463.152 351.616 462.117 350.691 460.863C349.517 459.211 348.54 457.429 347.778 455.551C348.837 454.512 350.239 453.896 351.72 453.819ZM341.799 450.667C341.287 450.665 340.777 450.741 340.288 450.893C339.625 451.096 339.022 451.457 338.53 451.944C338.037 452.431 337.67 453.03 337.46 453.69C337.038 455.031 337.595 458.103 338.513 460.024C338.943 459.888 339.355 459.696 339.737 459.455C338.898 457.687 338.452 455.043 338.745 454.1C338.9 453.656 339.154 453.253 339.49 452.923C339.825 452.592 340.232 452.344 340.679 452.197C344.045 450.802 346.224 455.569 346.236 455.606C347.123 457.743 348.242 459.777 349.572 461.671C350.569 463.023 351.72 464.253 353.097 464.792C353.797 465.074 354.572 465.117 355.3 464.914C356.133 464.632 356.864 464.108 357.399 463.409C357.992 462.734 358.43 461.938 358.682 461.077C358.935 460.215 358.996 459.309 358.862 458.421C358.545 456.755 357.658 455.252 356.352 454.17C355.046 453.089 353.403 452.497 351.707 452.497C350.045 452.527 348.444 453.128 347.173 454.198C346.733 453.251 346.059 452.431 345.216 451.816C344.372 451.2 343.386 450.809 342.35 450.679C342.177 450.67 342.003 450.67 341.83 450.679L341.799 450.667Z" fill="#E2F0FF"/>
<path d="M388.17 309.865C388.016 309.868 387.868 309.922 387.749 310.02C387.63 310.118 387.547 310.253 387.515 310.404C387.515 310.404 385.79 318.213 384.058 326.23C383.189 330.233 382.307 334.284 381.61 337.436C380.912 340.587 380.465 342.742 380.386 343.244C380.355 343.427 380.318 343.77 380.245 344.425C380.172 345.08 380.074 345.985 379.951 347.124C379.706 349.388 379.376 352.546 378.978 356.304C378.195 363.788 377.173 373.617 376.157 383.403C374.119 402.987 372.118 422.338 372.118 422.338V438.39H373.482V422.423C373.482 422.423 375.484 403.066 377.515 383.519C378.538 373.727 379.56 363.905 380.349 356.426C380.741 352.681 381.071 349.529 381.316 347.246C381.438 346.114 381.536 345.202 381.61 344.547C381.683 343.892 381.738 343.452 381.738 343.446C381.787 343.17 382.277 340.845 382.962 337.699C383.648 334.553 384.523 330.496 385.41 326.493C387.154 318.488 388.862 310.679 388.862 310.679C388.882 310.592 388.884 310.501 388.868 310.413C388.853 310.324 388.82 310.239 388.772 310.164C388.723 310.088 388.66 310.023 388.587 309.971C388.513 309.92 388.43 309.884 388.342 309.865H388.183H388.17Z" fill="#E2F0FF"/>
<path d="M387.289 262.222C387.289 262.222 383.556 263.868 383.556 270.073C383.556 276.279 384.1 310.985 388.452 320.3C389.755 323.066 390.9 325.141 391.812 326.714L396.193 295.557L387.264 262.222H387.289Z" fill="black"/>
<path d="M382.815 463.794C380.844 464.929 379.024 466.309 377.399 467.901C374.461 470.838 368.941 470.349 368.941 470.349H319.859C318.28 472.944 319.578 474.976 323.256 474.976H382.583C384.804 471.126 384.663 467.668 382.815 463.788V463.794Z" fill="black"/>
<path d="M340.575 456.206C340.486 456.213 340.4 456.239 340.32 456.28C340.241 456.322 340.171 456.379 340.114 456.448C340.057 456.516 340.014 456.596 339.988 456.682C339.963 456.767 339.954 456.857 339.963 456.946C339.982 457.126 340.071 457.291 340.211 457.406C340.351 457.521 340.53 457.575 340.71 457.558C340.944 457.529 341.181 457.55 341.407 457.618C341.632 457.687 341.841 457.802 342.02 457.956C342.229 458.157 342.393 458.401 342.498 458.672C342.604 458.942 342.649 459.233 342.632 459.523C342.632 459.704 342.704 459.879 342.832 460.007C342.961 460.136 343.135 460.208 343.317 460.208C343.499 460.208 343.673 460.136 343.802 460.007C343.93 459.879 344.002 459.704 344.002 459.523C344.02 459.044 343.935 458.567 343.753 458.124C343.572 457.681 343.298 457.281 342.95 456.952C342.631 456.671 342.256 456.459 341.851 456.33C341.445 456.202 341.017 456.159 340.594 456.206H340.575Z" fill="#E2F0FF"/>
<path d="M336.071 458.782C335.891 458.801 335.726 458.89 335.611 459.029C335.497 459.169 335.442 459.349 335.459 459.529C335.477 459.709 335.566 459.874 335.706 459.989C335.846 460.103 336.025 460.158 336.206 460.141C336.44 460.111 336.678 460.132 336.904 460.202C337.13 460.271 337.338 460.388 337.515 460.545C337.726 460.745 337.89 460.989 337.996 461.26C338.102 461.53 338.147 461.821 338.127 462.111C338.143 462.281 338.222 462.439 338.348 462.554C338.474 462.669 338.639 462.732 338.81 462.732C338.98 462.732 339.145 462.669 339.271 462.554C339.397 462.439 339.476 462.281 339.492 462.111C339.51 461.631 339.427 461.152 339.248 460.706C339.069 460.26 338.797 459.857 338.452 459.523C338.131 459.243 337.757 459.032 337.351 458.904C336.946 458.775 336.518 458.732 336.095 458.776L336.071 458.782Z" fill="#E2F0FF"/>
<path d="M390.569 396.071C385.428 407.644 373.433 422.319 376.689 421.995C380.563 421.603 384.92 421.536 384.92 421.536C387.693 413.27 389.587 404.734 390.569 396.071Z" fill="black"/>
<path d="M429.535 388.042C435.22 400.282 440.808 412.521 444.486 421.365L455.563 415.924C455.563 415.924 458.299 412.821 453.55 412.638C450.49 412.521 438.011 398.201 429.535 388.042Z" fill="black"/>
<path d="M361.034 216.181C360.759 216.181 355.631 226.585 360.098 227.228C385.055 230.692 409.866 232.576 434.351 228.14C438.531 227.381 429.149 216.181 428.843 216.181H361.034Z" fill="white"/>
<path d="M388.996 125.037L429.241 139.884C429.241 139.884 424.345 188.366 427.711 203.8C434.541 208.696 436.952 218.586 432.864 221.242C409.608 224.131 386.034 226.04 360.355 221.242C354.082 220.692 351.463 212.062 354.18 203.299C354.18 203.299 342.681 143.935 341.94 139.884C346.224 137.111 365.808 125.753 365.808 125.753L388.99 125.037H388.996Z" fill="#D4EBFC"/>
<path d="M384.902 96.1689L385.63 122.375C385.63 141.958 364.535 141.891 364.535 125.753L368.372 107.393L384.896 96.1628L384.902 96.1689Z" fill="#F9B098"/>
<path d="M378.715 100.404L368.372 107.43L366.689 115.502C369.988 115.765 374.676 115.502 378.317 112.632C384.614 107.699 378.709 100.392 378.709 100.392L378.715 100.404Z" fill="black"/>
<path d="M360.612 73.6169V99.8225C360.612 99.8225 360.153 109.137 370.881 110.092C381.61 111.047 384.902 99.9143 384.994 94.6144C385.086 89.3146 384.994 80.8078 384.994 72.5214C384.994 64.235 360.612 60.3733 360.612 73.6169Z" fill="#F9B098"/>
<path d="M363.69 85.4651C363.69 85.4651 360.9 88.9535 359.657 88.9535C358.415 88.9535 359.266 92.2154 361.75 92.0624C364.235 91.9094 365.673 83.4945 363.69 85.4651Z" fill="black"/>
<path d="M380.343 140.453L385.924 136.83C385.924 136.83 383.947 132.65 381.891 133.195C379.835 133.739 378.611 138.195 380.343 140.453Z" fill="black"/>
<path d="M373.421 140.581L366.463 136.958C366.463 136.958 366.848 132.778 369.119 133.329C371.389 133.88 374.296 138.329 373.403 140.581H373.421Z" fill="black"/>
<path d="M392.246 126.23C392.075 130.006 391.242 135.275 388.666 141.916C388.666 141.916 401.671 135.685 405.19 131.004L392.258 126.23H392.246Z" fill="black"/>
<path d="M377.528 145.343C377.403 145.338 377.281 145.377 377.183 145.454C377.085 145.53 377.016 145.638 376.989 145.759C374.541 156.31 375.716 170.575 377.405 182.307C378.244 188.176 379.241 193.409 379.92 197.209C380.269 199.106 380.563 200.649 380.734 201.72C380.82 202.258 380.875 202.681 380.9 202.944C380.904 203.017 380.904 203.091 380.9 203.164C376.616 206.836 375.526 213.115 377.007 218.244C377.66 220.09 378.412 221.9 379.26 223.666L380.777 223.77C379.832 221.939 379.014 220.046 378.329 218.103C376.977 213.427 377.987 207.417 382.038 204.106C382.126 204.047 382.195 203.963 382.237 203.866C382.279 203.768 382.293 203.661 382.277 203.556C382.289 203.403 382.289 203.249 382.277 203.097C382.277 202.754 382.185 202.307 382.099 201.756C381.922 200.649 381.634 199.106 381.279 197.203C380.575 193.409 379.608 188.201 378.77 182.362C377.093 170.698 375.943 156.53 378.342 146.285C378.369 146.098 378.33 145.907 378.234 145.744C378.137 145.581 377.987 145.457 377.809 145.392C377.729 145.359 377.644 145.34 377.558 145.337L377.528 145.343Z" fill="black"/>
<path d="M365.802 119.468C355.673 122.326 363.164 142.815 366.646 142.234C369.137 141.824 366.132 133.813 369.174 134.198C371.775 134.529 373.023 138.929 373.335 140.208C373.335 140.306 373.421 140.581 373.421 140.581C373.91 143.152 373.959 149.761 377.044 149.951C379.492 150.116 379.265 134.461 382.166 134.07C385.067 133.678 385.159 141.077 387.748 142.105C390.336 143.133 395.704 133.195 394.198 127.448C392.693 121.701 385.532 119.492 385.532 119.492C385.575 119.731 386.065 126.414 380.483 130.037C378.433 131.365 377.619 134.149 377.674 136.524C376.648 136.783 375.573 136.783 374.547 136.524C373.567 133.879 371.729 131.638 369.327 130.159C365.655 128.084 365.802 119.468 365.802 119.468Z" fill="white"/>
<path d="M381.934 158.415C381.966 158.535 381.969 158.661 381.943 158.783C381.917 158.905 381.863 159.019 381.785 159.116C381.707 159.213 381.607 159.29 381.494 159.342C381.38 159.393 381.257 159.418 381.132 159.412C380.852 159.402 380.584 159.298 380.37 159.117C380.156 158.936 380.008 158.689 379.951 158.415C379.921 158.295 379.918 158.169 379.945 158.049C379.971 157.928 380.026 157.814 380.103 157.718C380.181 157.622 380.281 157.545 380.393 157.494C380.506 157.443 380.629 157.419 380.753 157.423C381.032 157.434 381.3 157.537 381.514 157.716C381.728 157.896 381.876 158.142 381.934 158.415Z" fill="black"/>
<path d="M382.577 171.83C382.607 171.951 382.609 172.077 382.582 172.199C382.556 172.32 382.501 172.434 382.422 172.531C382.344 172.628 382.244 172.705 382.131 172.756C382.017 172.808 381.893 172.832 381.769 172.827C381.489 172.817 381.22 172.713 381.006 172.532C380.792 172.351 380.645 172.104 380.588 171.83C380.557 171.71 380.555 171.584 380.581 171.463C380.608 171.343 380.662 171.229 380.74 171.133C380.818 171.037 380.917 170.96 381.03 170.909C381.143 170.858 381.266 170.834 381.389 170.838C381.67 170.847 381.939 170.95 382.154 171.129C382.369 171.309 382.518 171.556 382.577 171.83Z" fill="black"/>
<path d="M383.953 186.322C383.984 186.442 383.986 186.568 383.959 186.689C383.933 186.81 383.879 186.924 383.801 187.02C383.723 187.117 383.624 187.194 383.511 187.246C383.399 187.298 383.276 187.323 383.152 187.319C382.871 187.309 382.602 187.206 382.387 187.025C382.171 186.844 382.023 186.597 381.964 186.322C381.934 186.201 381.932 186.075 381.958 185.954C381.985 185.833 382.04 185.719 382.119 185.623C382.197 185.526 382.297 185.45 382.411 185.399C382.524 185.348 382.648 185.325 382.772 185.33C383.053 185.335 383.324 185.436 383.539 185.617C383.754 185.797 383.9 186.046 383.953 186.322Z" fill="black"/>
<path d="M387.062 199.474C387.092 199.594 387.093 199.72 387.066 199.84C387.038 199.961 386.983 200.074 386.905 200.17C386.827 200.266 386.727 200.343 386.614 200.394C386.502 200.445 386.378 200.47 386.255 200.465C385.975 200.455 385.708 200.352 385.494 200.172C385.28 199.993 385.132 199.747 385.073 199.474C385.043 199.353 385.041 199.228 385.068 199.107C385.094 198.985 385.148 198.872 385.226 198.775C385.304 198.679 385.403 198.601 385.515 198.549C385.628 198.497 385.751 198.472 385.875 198.476C386.156 198.487 386.424 198.591 386.639 198.772C386.854 198.953 387.003 199.199 387.062 199.474Z" fill="black"/>
<path d="M382.73 96.1934C382.73 96.1934 382.858 102.778 380.985 106.071C379.113 109.364 374.333 112.191 365.943 111.432C357.552 110.673 356.322 106.591 356.646 103.035C356.971 99.4798 360.453 99.2289 360.392 97.5275C360.331 95.8262 361.291 94.235 363.036 94.1677C364.78 94.1004 365.685 95.459 364.78 95.6548C363.874 95.8507 362.907 94.5532 362.907 96.6891C362.907 98.825 364.651 101.53 367.803 100.973C370.955 100.416 372.515 95.0979 370.9 95.4223C369.284 95.7466 367.479 96.5177 367.479 95.6793C367.479 94.8409 370 93.421 375.294 93.0967C380.588 92.7723 380.52 98.7148 380.912 97.4847C381.058 97.1193 381.305 96.8034 381.625 96.5745C381.945 96.3456 382.324 96.2134 382.717 96.1934H382.73Z" fill="#C84F49"/>
<path d="M363.898 71.7258C364.223 68.8188 367.515 64.2962 369.517 68.4945C371.518 72.6928 369.774 79.5104 374.1 81.6646C378.427 83.8188 380.949 83.2681 380.949 83.2681C380.949 83.2681 381.72 89.2717 383.078 90.049C384.437 90.8262 390.63 86.6891 390.63 86.6891C390.63 86.6891 394.639 82.4969 395.349 77.3317C396.059 72.1665 392.491 66.6585 387.711 61.8727C376.861 51.022 364.29 61.3831 364.29 61.3831C364.29 61.3831 360.545 58.7944 358.091 62.7356C355.637 66.6769 356.989 74.8103 358.152 77.9743C358.813 79.8101 359.68 81.5653 360.734 83.2068L360.612 73.6047C360.612 71.53 362.552 71.7136 363.898 71.7136V71.7258Z" fill="#C84F49"/>
<path d="M389.461 92.448C390.557 94.284 391.561 95.8262 393.017 96.4688C394.474 97.1114 388.849 104.688 385.747 101.493C382.644 98.2986 385.508 93.4272 389.419 92.4235L389.461 92.448Z" fill="#C84F49"/>
<path d="M391.701 92.5581C390.343 95.6181 387.356 97.2154 385.024 96.175C382.693 95.1346 381.916 91.8299 383.274 88.7882C384.633 85.7466 387.625 84.1249 389.951 85.1652C392.277 86.2056 393.06 89.5165 391.701 92.5581Z" fill="#F9B098"/>
<path d="M385.655 92.8335C385.655 92.6744 385.38 89.9816 386.683 88.6597C387.987 87.3378 389.743 88.4272 389.535 88.9535C389.327 89.4798 387.98 89.4553 388.311 90.2815C388.641 91.1077 388.807 94.6512 385.667 92.8335H385.655Z" fill="black"/>
<path d="M368.501 66.8543C368.501 66.8543 371.866 68.574 371.279 74.6573C370.691 80.7405 373.586 87.4235 380.759 84.7736C387.931 82.1236 386.689 78.8188 386.689 78.8188C386.689 78.8188 382.638 84.5349 377.356 84.1065C372.075 83.6781 372.019 75.1163 373.072 72.1175C374.125 69.1187 370.875 65.716 368.488 66.8543H368.501Z" fill="#C84F49"/>
<path d="M462.711 174.357C457.528 173.133 448.819 192.277 448.819 192.277L422.729 221.793L430.239 232.423L430.991 231.922C430.991 231.922 457.43 214.376 470.092 203.978C473.152 201.457 480.184 195.49 473.831 186.493C472.062 183.984 467.607 179.149 463.947 175.129C463.626 174.754 463.2 174.485 462.723 174.357H462.711Z" fill="#F9B098"/>
<path d="M433.139 142.466L463.947 175.129L448.819 192.264C448.819 192.264 425.563 182.472 416.193 178.586C394.296 169.474 416.291 126.255 433.139 142.479V142.466Z" fill="#D4EBFC"/>
<path d="M425.661 218.47L422.729 221.793L428.47 226.567C428.47 226.567 429.51 227.479 429.529 226.04C429.529 224.865 427.54 220.324 425.661 218.47Z" fill="black"/>
<path d="M462.711 174.357C457.528 173.133 448.819 192.277 448.819 192.277C454.492 190.312 464.272 182.228 467.723 179.29C466.457 177.882 465.165 176.469 463.947 175.129C463.626 174.754 463.2 174.485 462.723 174.357H462.711Z" fill="black"/>
<path d="M448.825 192.277L463.954 175.141C463.954 175.141 467.754 165.961 463.556 165.618C459.357 165.275 450.857 175.851 448.036 182.589C445.214 189.327 448.825 192.277 448.825 192.277Z" fill="white"/>
<path d="M422.73 221.793C422.73 221.793 407.295 228.078 402.393 231.426C397.491 234.774 390.447 249.816 388.99 252.185C387.534 254.553 390.527 255.465 394.247 253.611C397.968 251.756 398.96 249.841 398.96 249.841C398.96 249.841 402.448 255.214 405.759 252.901C408.06 251.279 408.868 250.569 409.89 251.499C411.769 253.213 414.125 250.845 417.76 247.987C423.366 243.58 430.239 232.448 430.239 232.448C432.228 223.14 425.343 225.184 422.73 221.818V221.793Z" fill="#F9B098"/>
<path d="M422.729 221.793C422.729 221.793 403.543 223.501 401.762 223.195C399.982 222.889 398.09 225.894 404.008 228.121C409.926 230.349 414.039 229.241 415.312 228.672C416.585 228.103 422.729 221.793 422.729 221.793Z" fill="#F9B098"/>
<path d="M400.184 243.494C400.184 243.494 395.031 248.268 394.4 253.537C397.283 252.748 398.323 250.557 398.96 249.865L400.184 243.519V243.494Z" fill="black"/>
<defs>
<linearGradient id="paint0_linear" x1="269.278" y1="63.6475" x2="272.95" y2="224.296" gradientUnits="userSpaceOnUse">
<stop stop-color="#5F95CF"/>
<stop offset="1" stop-color="#73C3FF"/>
</linearGradient>
</defs>
</svg>
