<svg width="1440" height="968" viewBox="0 0 1440 968" fill="none" xmlns="http://www.w3.org/2000/svg">
<g opacity="0.6" clip-path="url(#clip0)">
<path d="M-384.953 356.268C-323.577 285.781 -202.371 376.97 -26.7498 337.061C125.359 302.479 134.11 210.622 255.642 215.177C344.431 218.487 441.183 269.755 494.356 359.072C552.996 457.551 531.68 557.81 525.696 582.139C498.983 691.263 419.698 748.826 391.728 768.487C276.488 849.44 147.173 835.254 85.1355 828.479C-147.9 802.957 -397.386 636.583 -408.495 455.701C-409.971 432.021 -412.658 388.098 -384.953 356.268Z" fill="url(#paint0_linear)"/>
</g>
<g opacity="0.3">
<mask id="mask0" mask-type="alpha" maskUnits="userSpaceOnUse" x="1330" y="101" width="11" height="11">
<path d="M1335.23 111.425C1338.12 111.425 1340.46 109.091 1340.46 106.212C1340.46 103.334 1338.12 101 1335.23 101C1332.34 101 1330 103.334 1330 106.212C1330 109.091 1332.34 111.425 1335.23 111.425Z" fill="url(#paint1_linear)"/>
</mask>
<g mask="url(#mask0)">
<path d="M1335.23 111.425C1338.12 111.425 1340.46 109.091 1340.46 106.212C1340.46 103.334 1338.12 101 1335.23 101C1332.34 101 1330 103.334 1330 106.212C1330 109.091 1332.34 111.425 1335.23 111.425Z" fill="url(#paint2_linear)"/>
</g>
<mask id="mask1" mask-type="alpha" maskUnits="userSpaceOnUse" x="1360" y="101" width="11" height="11">
<path d="M1365.51 111.425C1368.4 111.425 1370.74 109.091 1370.74 106.212C1370.74 103.334 1368.4 101 1365.51 101C1362.62 101 1360.28 103.334 1360.28 106.212C1360.28 109.091 1362.62 111.425 1365.51 111.425Z" fill="url(#paint3_linear)"/>
</mask>
<g mask="url(#mask1)">
<path d="M1365.51 111.425C1368.4 111.425 1370.74 109.091 1370.74 106.212C1370.74 103.334 1368.4 101 1365.51 101C1362.62 101 1360.28 103.334 1360.28 106.212C1360.28 109.091 1362.62 111.425 1365.51 111.425Z" fill="url(#paint4_linear)"/>
</g>
<mask id="mask2" mask-type="alpha" maskUnits="userSpaceOnUse" x="1390" y="101" width="12" height="11">
<path d="M1395.79 111.425C1398.68 111.425 1401.02 109.091 1401.02 106.212C1401.02 103.334 1398.68 101 1395.79 101C1392.9 101 1390.56 103.334 1390.56 106.212C1390.56 109.091 1392.9 111.425 1395.79 111.425Z" fill="url(#paint5_linear)"/>
</mask>
<g mask="url(#mask2)">
<path d="M1395.79 111.425C1398.68 111.425 1401.02 109.091 1401.02 106.212C1401.02 103.334 1398.68 101 1395.79 101C1392.9 101 1390.56 103.334 1390.56 106.212C1390.56 109.091 1392.9 111.425 1395.79 111.425Z" fill="url(#paint6_linear)"/>
</g>
<mask id="mask3" mask-type="alpha" maskUnits="userSpaceOnUse" x="1420" y="101" width="12" height="11">
<path d="M1426.07 111.425C1428.96 111.425 1431.3 109.091 1431.3 106.212C1431.3 103.334 1428.96 101 1426.07 101C1423.18 101 1420.84 103.334 1420.84 106.212C1420.84 109.091 1423.18 111.425 1426.07 111.425Z" fill="url(#paint7_linear)"/>
</mask>
<g mask="url(#mask3)">
<path d="M1426.07 111.425C1428.96 111.425 1431.3 109.091 1431.3 106.212C1431.3 103.334 1428.96 101 1426.07 101C1423.18 101 1420.84 103.334 1420.84 106.212C1420.84 109.091 1423.18 111.425 1426.07 111.425Z" fill="url(#paint8_linear)"/>
</g>
<mask id="mask4" mask-type="alpha" maskUnits="userSpaceOnUse" x="1330" y="127" width="11" height="11">
<path d="M1335.23 137.596C1338.12 137.596 1340.46 135.262 1340.46 132.383C1340.46 129.505 1338.12 127.171 1335.23 127.171C1332.34 127.171 1330 129.505 1330 132.383C1330 135.262 1332.34 137.596 1335.23 137.596Z" fill="url(#paint9_linear)"/>
</mask>
<g mask="url(#mask4)">
<path d="M1335.23 137.596C1338.12 137.596 1340.46 135.262 1340.46 132.383C1340.46 129.505 1338.12 127.171 1335.23 127.171C1332.34 127.171 1330 129.505 1330 132.383C1330 135.262 1332.34 137.596 1335.23 137.596Z" fill="url(#paint10_linear)"/>
</g>
<mask id="mask5" mask-type="alpha" maskUnits="userSpaceOnUse" x="1360" y="127" width="11" height="11">
<path d="M1365.51 137.596C1368.4 137.596 1370.74 135.262 1370.74 132.383C1370.74 129.505 1368.4 127.171 1365.51 127.171C1362.62 127.171 1360.28 129.505 1360.28 132.383C1360.28 135.262 1362.62 137.596 1365.51 137.596Z" fill="url(#paint11_linear)"/>
</mask>
<g mask="url(#mask5)">
<path d="M1365.51 137.596C1368.4 137.596 1370.74 135.262 1370.74 132.383C1370.74 129.505 1368.4 127.171 1365.51 127.171C1362.62 127.171 1360.28 129.505 1360.28 132.383C1360.28 135.262 1362.62 137.596 1365.51 137.596Z" fill="url(#paint12_linear)"/>
</g>
<mask id="mask6" mask-type="alpha" maskUnits="userSpaceOnUse" x="1390" y="127" width="12" height="11">
<path d="M1395.79 137.596C1398.68 137.596 1401.02 135.262 1401.02 132.383C1401.02 129.505 1398.68 127.171 1395.79 127.171C1392.9 127.171 1390.56 129.505 1390.56 132.383C1390.56 135.262 1392.9 137.596 1395.79 137.596Z" fill="url(#paint13_linear)"/>
</mask>
<g mask="url(#mask6)">
<path d="M1395.79 137.596C1398.68 137.596 1401.02 135.262 1401.02 132.383C1401.02 129.505 1398.68 127.171 1395.79 127.171C1392.9 127.171 1390.56 129.505 1390.56 132.383C1390.56 135.262 1392.9 137.596 1395.79 137.596Z" fill="url(#paint14_linear)"/>
</g>
<mask id="mask7" mask-type="alpha" maskUnits="userSpaceOnUse" x="1420" y="127" width="12" height="11">
<path d="M1426.07 137.596C1428.96 137.596 1431.3 135.262 1431.3 132.383C1431.3 129.505 1428.96 127.171 1426.07 127.171C1423.18 127.171 1420.84 129.505 1420.84 132.383C1420.84 135.262 1423.18 137.596 1426.07 137.596Z" fill="url(#paint15_linear)"/>
</mask>
<g mask="url(#mask7)">
<path d="M1426.07 137.596C1428.96 137.596 1431.3 135.262 1431.3 132.383C1431.3 129.505 1428.96 127.171 1426.07 127.171C1423.18 127.171 1420.84 129.505 1420.84 132.383C1420.84 135.262 1423.18 137.596 1426.07 137.596Z" fill="url(#paint16_linear)"/>
</g>
<mask id="mask8" mask-type="alpha" maskUnits="userSpaceOnUse" x="1330" y="153" width="11" height="11">
<path d="M1335.23 163.712C1338.12 163.712 1340.46 161.379 1340.46 158.5C1340.46 155.621 1338.12 153.288 1335.23 153.288C1332.34 153.288 1330 155.621 1330 158.5C1330 161.379 1332.34 163.712 1335.23 163.712Z" fill="url(#paint17_linear)"/>
</mask>
<g mask="url(#mask8)">
<path d="M1335.23 163.712C1338.12 163.712 1340.46 161.379 1340.46 158.5C1340.46 155.621 1338.12 153.288 1335.23 153.288C1332.34 153.288 1330 155.621 1330 158.5C1330 161.379 1332.34 163.712 1335.23 163.712Z" fill="url(#paint18_linear)"/>
</g>
<mask id="mask9" mask-type="alpha" maskUnits="userSpaceOnUse" x="1360" y="153" width="11" height="11">
<path d="M1365.51 163.712C1368.4 163.712 1370.74 161.379 1370.74 158.5C1370.74 155.621 1368.4 153.288 1365.51 153.288C1362.62 153.288 1360.28 155.621 1360.28 158.5C1360.28 161.379 1362.62 163.712 1365.51 163.712Z" fill="url(#paint19_linear)"/>
</mask>
<g mask="url(#mask9)">
<path d="M1365.51 163.712C1368.4 163.712 1370.74 161.379 1370.74 158.5C1370.74 155.621 1368.4 153.288 1365.51 153.288C1362.62 153.288 1360.28 155.621 1360.28 158.5C1360.28 161.379 1362.62 163.712 1365.51 163.712Z" fill="url(#paint20_linear)"/>
</g>
<mask id="mask10" mask-type="alpha" maskUnits="userSpaceOnUse" x="1390" y="153" width="12" height="11">
<path d="M1395.79 163.712C1398.68 163.712 1401.02 161.379 1401.02 158.5C1401.02 155.621 1398.68 153.288 1395.79 153.288C1392.9 153.288 1390.56 155.621 1390.56 158.5C1390.56 161.379 1392.9 163.712 1395.79 163.712Z" fill="url(#paint21_linear)"/>
</mask>
<g mask="url(#mask10)">
<path d="M1395.79 163.712C1398.68 163.712 1401.02 161.379 1401.02 158.5C1401.02 155.621 1398.68 153.288 1395.79 153.288C1392.9 153.288 1390.56 155.621 1390.56 158.5C1390.56 161.379 1392.9 163.712 1395.79 163.712Z" fill="url(#paint22_linear)"/>
</g>
<mask id="mask11" mask-type="alpha" maskUnits="userSpaceOnUse" x="1420" y="153" width="12" height="11">
<path d="M1426.07 163.712C1428.96 163.712 1431.3 161.379 1431.3 158.5C1431.3 155.621 1428.96 153.288 1426.07 153.288C1423.18 153.288 1420.84 155.621 1420.84 158.5C1420.84 161.379 1423.18 163.712 1426.07 163.712Z" fill="url(#paint23_linear)"/>
</mask>
<g mask="url(#mask11)">
<path d="M1426.07 163.712C1428.96 163.712 1431.3 161.379 1431.3 158.5C1431.3 155.621 1428.96 153.288 1426.07 153.288C1423.18 153.288 1420.84 155.621 1420.84 158.5C1420.84 161.379 1423.18 163.712 1426.07 163.712Z" fill="url(#paint24_linear)"/>
</g>
<mask id="mask12" mask-type="alpha" maskUnits="userSpaceOnUse" x="1330" y="179" width="11" height="11">
<path d="M1335.23 189.883C1338.12 189.883 1340.46 187.55 1340.46 184.671C1340.46 181.792 1338.12 179.458 1335.23 179.458C1332.34 179.458 1330 181.792 1330 184.671C1330 187.55 1332.34 189.883 1335.23 189.883Z" fill="url(#paint25_linear)"/>
</mask>
<g mask="url(#mask12)">
<path d="M1335.23 189.883C1338.12 189.883 1340.46 187.55 1340.46 184.671C1340.46 181.792 1338.12 179.458 1335.23 179.458C1332.34 179.458 1330 181.792 1330 184.671C1330 187.55 1332.34 189.883 1335.23 189.883Z" fill="url(#paint26_linear)"/>
</g>
<mask id="mask13" mask-type="alpha" maskUnits="userSpaceOnUse" x="1360" y="179" width="11" height="11">
<path d="M1365.51 189.883C1368.4 189.883 1370.74 187.55 1370.74 184.671C1370.74 181.792 1368.4 179.458 1365.51 179.458C1362.62 179.458 1360.28 181.792 1360.28 184.671C1360.28 187.55 1362.62 189.883 1365.51 189.883Z" fill="url(#paint27_linear)"/>
</mask>
<g mask="url(#mask13)">
<path d="M1365.51 189.883C1368.4 189.883 1370.74 187.55 1370.74 184.671C1370.74 181.792 1368.4 179.458 1365.51 179.458C1362.62 179.458 1360.28 181.792 1360.28 184.671C1360.28 187.55 1362.62 189.883 1365.51 189.883Z" fill="url(#paint28_linear)"/>
</g>
<mask id="mask14" mask-type="alpha" maskUnits="userSpaceOnUse" x="1390" y="179" width="12" height="11">
<path d="M1395.79 189.883C1398.68 189.883 1401.02 187.55 1401.02 184.671C1401.02 181.792 1398.68 179.458 1395.79 179.458C1392.9 179.458 1390.56 181.792 1390.56 184.671C1390.56 187.55 1392.9 189.883 1395.79 189.883Z" fill="url(#paint29_linear)"/>
</mask>
<g mask="url(#mask14)">
<path d="M1395.79 189.883C1398.68 189.883 1401.02 187.55 1401.02 184.671C1401.02 181.792 1398.68 179.458 1395.79 179.458C1392.9 179.458 1390.56 181.792 1390.56 184.671C1390.56 187.55 1392.9 189.883 1395.79 189.883Z" fill="url(#paint30_linear)"/>
</g>
<mask id="mask15" mask-type="alpha" maskUnits="userSpaceOnUse" x="1420" y="179" width="12" height="11">
<path d="M1426.07 189.883C1428.96 189.883 1431.3 187.55 1431.3 184.671C1431.3 181.792 1428.96 179.458 1426.07 179.458C1423.18 179.458 1420.84 181.792 1420.84 184.671C1420.84 187.55 1423.18 189.883 1426.07 189.883Z" fill="url(#paint31_linear)"/>
</mask>
<g mask="url(#mask15)">
<path d="M1426.07 189.883C1428.96 189.883 1431.3 187.55 1431.3 184.671C1431.3 181.792 1428.96 179.458 1426.07 179.458C1423.18 179.458 1420.84 181.792 1420.84 184.671C1420.84 187.55 1423.18 189.883 1426.07 189.883Z" fill="url(#paint32_linear)"/>
</g>
<mask id="mask16" mask-type="alpha" maskUnits="userSpaceOnUse" x="1330" y="205" width="11" height="11">
<path d="M1335.23 216C1338.12 216 1340.46 213.666 1340.46 210.788C1340.46 207.909 1338.12 205.575 1335.23 205.575C1332.34 205.575 1330 207.909 1330 210.788C1330 213.666 1332.34 216 1335.23 216Z" fill="url(#paint33_linear)"/>
</mask>
<g mask="url(#mask16)">
<path d="M1335.23 216C1338.12 216 1340.46 213.666 1340.46 210.788C1340.46 207.909 1338.12 205.575 1335.23 205.575C1332.34 205.575 1330 207.909 1330 210.788C1330 213.666 1332.34 216 1335.23 216Z" fill="url(#paint34_linear)"/>
</g>
<mask id="mask17" mask-type="alpha" maskUnits="userSpaceOnUse" x="1360" y="205" width="11" height="11">
<path d="M1365.51 216C1368.4 216 1370.74 213.666 1370.74 210.788C1370.74 207.909 1368.4 205.575 1365.51 205.575C1362.62 205.575 1360.28 207.909 1360.28 210.788C1360.28 213.666 1362.62 216 1365.51 216Z" fill="url(#paint35_linear)"/>
</mask>
<g mask="url(#mask17)">
<path d="M1365.51 216C1368.4 216 1370.74 213.666 1370.74 210.788C1370.74 207.909 1368.4 205.575 1365.51 205.575C1362.62 205.575 1360.28 207.909 1360.28 210.788C1360.28 213.666 1362.62 216 1365.51 216Z" fill="url(#paint36_linear)"/>
</g>
<mask id="mask18" mask-type="alpha" maskUnits="userSpaceOnUse" x="1390" y="205" width="12" height="11">
<path d="M1395.79 216C1398.68 216 1401.02 213.666 1401.02 210.788C1401.02 207.909 1398.68 205.575 1395.79 205.575C1392.9 205.575 1390.56 207.909 1390.56 210.788C1390.56 213.666 1392.9 216 1395.79 216Z" fill="url(#paint37_linear)"/>
</mask>
<g mask="url(#mask18)">
<path d="M1395.79 216C1398.68 216 1401.02 213.666 1401.02 210.788C1401.02 207.909 1398.68 205.575 1395.79 205.575C1392.9 205.575 1390.56 207.909 1390.56 210.788C1390.56 213.666 1392.9 216 1395.79 216Z" fill="url(#paint38_linear)"/>
</g>
<mask id="mask19" mask-type="alpha" maskUnits="userSpaceOnUse" x="1420" y="205" width="12" height="11">
<path d="M1426.07 216C1428.96 216 1431.3 213.666 1431.3 210.788C1431.3 207.909 1428.96 205.575 1426.07 205.575C1423.18 205.575 1420.84 207.909 1420.84 210.788C1420.84 213.666 1423.18 216 1426.07 216Z" fill="url(#paint39_linear)"/>
</mask>
<g mask="url(#mask19)">
<path d="M1426.07 216C1428.96 216 1431.3 213.666 1431.3 210.788C1431.3 207.909 1428.96 205.575 1426.07 205.575C1423.18 205.575 1420.84 207.909 1420.84 210.788C1420.84 213.666 1423.18 216 1426.07 216Z" fill="url(#paint40_linear)"/>
</g>
</g>
<defs>
<linearGradient id="paint0_linear" x1="199.823" y1="69.8268" x2="-34.4172" y2="775.635" gradientUnits="userSpaceOnUse">
<stop stop-color="#F3F7FF"/>
<stop offset="1" stop-color="#DEEEFE"/>
</linearGradient>
<linearGradient id="paint1_linear" x1="1385" y1="232.134" x2="1313.59" y2="50.33" gradientUnits="userSpaceOnUse">
<stop/>
<stop offset="1" stop-color="white"/>
</linearGradient>
<linearGradient id="paint2_linear" x1="1385" y1="232.134" x2="1313.59" y2="50.33" gradientUnits="userSpaceOnUse">
<stop stop-color="#97C3F9"/>
<stop offset="1" stop-color="#93C1F9"/>
</linearGradient>
<linearGradient id="paint3_linear" x1="1411.2" y1="221.843" x2="1339.8" y2="40.0387" gradientUnits="userSpaceOnUse">
<stop/>
<stop offset="1" stop-color="white"/>
</linearGradient>
<linearGradient id="paint4_linear" x1="1411.2" y1="221.843" x2="1339.8" y2="40.0387" gradientUnits="userSpaceOnUse">
<stop stop-color="#97C3F9"/>
<stop offset="1" stop-color="#93C1F9"/>
</linearGradient>
<linearGradient id="paint5_linear" x1="1437.4" y1="211.551" x2="1366" y2="29.7474" gradientUnits="userSpaceOnUse">
<stop/>
<stop offset="1" stop-color="white"/>
</linearGradient>
<linearGradient id="paint6_linear" x1="1437.4" y1="211.551" x2="1366" y2="29.7474" gradientUnits="userSpaceOnUse">
<stop stop-color="#97C3F9"/>
<stop offset="1" stop-color="#93C1F9"/>
</linearGradient>
<linearGradient id="paint7_linear" x1="1463.61" y1="201.259" x2="1392.21" y2="19.4556" gradientUnits="userSpaceOnUse">
<stop/>
<stop offset="1" stop-color="white"/>
</linearGradient>
<linearGradient id="paint8_linear" x1="1463.61" y1="201.259" x2="1392.21" y2="19.4556" gradientUnits="userSpaceOnUse">
<stop stop-color="#97C3F9"/>
<stop offset="1" stop-color="#93C1F9"/>
</linearGradient>
<linearGradient id="paint9_linear" x1="1376.05" y1="235.645" x2="1304.65" y2="53.8429" gradientUnits="userSpaceOnUse">
<stop/>
<stop offset="1" stop-color="white"/>
</linearGradient>
<linearGradient id="paint10_linear" x1="1376.05" y1="235.645" x2="1304.65" y2="53.8429" gradientUnits="userSpaceOnUse">
<stop stop-color="#97C3F9"/>
<stop offset="1" stop-color="#93C1F9"/>
</linearGradient>
<linearGradient id="paint11_linear" x1="1402.26" y1="225.354" x2="1330.86" y2="43.551" gradientUnits="userSpaceOnUse">
<stop/>
<stop offset="1" stop-color="white"/>
</linearGradient>
<linearGradient id="paint12_linear" x1="1402.26" y1="225.354" x2="1330.86" y2="43.551" gradientUnits="userSpaceOnUse">
<stop stop-color="#97C3F9"/>
<stop offset="1" stop-color="#93C1F9"/>
</linearGradient>
<linearGradient id="paint13_linear" x1="1428.46" y1="215.062" x2="1357.06" y2="33.2597" gradientUnits="userSpaceOnUse">
<stop/>
<stop offset="1" stop-color="white"/>
</linearGradient>
<linearGradient id="paint14_linear" x1="1428.46" y1="215.062" x2="1357.06" y2="33.2597" gradientUnits="userSpaceOnUse">
<stop stop-color="#97C3F9"/>
<stop offset="1" stop-color="#93C1F9"/>
</linearGradient>
<linearGradient id="paint15_linear" x1="1454.67" y1="204.771" x2="1383.27" y2="22.9682" gradientUnits="userSpaceOnUse">
<stop/>
<stop offset="1" stop-color="white"/>
</linearGradient>
<linearGradient id="paint16_linear" x1="1454.67" y1="204.771" x2="1383.27" y2="22.9682" gradientUnits="userSpaceOnUse">
<stop stop-color="#97C3F9"/>
<stop offset="1" stop-color="#93C1F9"/>
</linearGradient>
<linearGradient id="paint17_linear" x1="1367.11" y1="239.158" x2="1295.71" y2="57.3542" gradientUnits="userSpaceOnUse">
<stop/>
<stop offset="1" stop-color="white"/>
</linearGradient>
<linearGradient id="paint18_linear" x1="1367.11" y1="239.158" x2="1295.71" y2="57.3542" gradientUnits="userSpaceOnUse">
<stop stop-color="#97C3F9"/>
<stop offset="1" stop-color="#93C1F9"/>
</linearGradient>
<linearGradient id="paint19_linear" x1="1393.32" y1="228.866" x2="1321.91" y2="47.0626" gradientUnits="userSpaceOnUse">
<stop/>
<stop offset="1" stop-color="white"/>
</linearGradient>
<linearGradient id="paint20_linear" x1="1393.32" y1="228.866" x2="1321.91" y2="47.0626" gradientUnits="userSpaceOnUse">
<stop stop-color="#97C3F9"/>
<stop offset="1" stop-color="#93C1F9"/>
</linearGradient>
<linearGradient id="paint21_linear" x1="1419.52" y1="218.575" x2="1348.12" y2="36.7712" gradientUnits="userSpaceOnUse">
<stop/>
<stop offset="1" stop-color="white"/>
</linearGradient>
<linearGradient id="paint22_linear" x1="1419.52" y1="218.575" x2="1348.12" y2="36.7712" gradientUnits="userSpaceOnUse">
<stop stop-color="#97C3F9"/>
<stop offset="1" stop-color="#93C1F9"/>
</linearGradient>
<linearGradient id="paint23_linear" x1="1445.72" y1="208.283" x2="1374.32" y2="26.4795" gradientUnits="userSpaceOnUse">
<stop/>
<stop offset="1" stop-color="white"/>
</linearGradient>
<linearGradient id="paint24_linear" x1="1445.72" y1="208.283" x2="1374.32" y2="26.4795" gradientUnits="userSpaceOnUse">
<stop stop-color="#97C3F9"/>
<stop offset="1" stop-color="#93C1F9"/>
</linearGradient>
<linearGradient id="paint25_linear" x1="1358.17" y1="242.67" x2="1286.77" y2="60.8662" gradientUnits="userSpaceOnUse">
<stop/>
<stop offset="1" stop-color="white"/>
</linearGradient>
<linearGradient id="paint26_linear" x1="1358.17" y1="242.67" x2="1286.77" y2="60.8662" gradientUnits="userSpaceOnUse">
<stop stop-color="#97C3F9"/>
<stop offset="1" stop-color="#93C1F9"/>
</linearGradient>
<linearGradient id="paint27_linear" x1="1384.37" y1="232.379" x2="1312.97" y2="50.5747" gradientUnits="userSpaceOnUse">
<stop/>
<stop offset="1" stop-color="white"/>
</linearGradient>
<linearGradient id="paint28_linear" x1="1384.37" y1="232.379" x2="1312.97" y2="50.5747" gradientUnits="userSpaceOnUse">
<stop stop-color="#97C3F9"/>
<stop offset="1" stop-color="#93C1F9"/>
</linearGradient>
<linearGradient id="paint29_linear" x1="1410.58" y1="222.087" x2="1339.18" y2="40.2832" gradientUnits="userSpaceOnUse">
<stop/>
<stop offset="1" stop-color="white"/>
</linearGradient>
<linearGradient id="paint30_linear" x1="1410.58" y1="222.087" x2="1339.18" y2="40.2832" gradientUnits="userSpaceOnUse">
<stop stop-color="#97C3F9"/>
<stop offset="1" stop-color="#93C1F9"/>
</linearGradient>
<linearGradient id="paint31_linear" x1="1436.78" y1="211.795" x2="1365.38" y2="29.9916" gradientUnits="userSpaceOnUse">
<stop/>
<stop offset="1" stop-color="white"/>
</linearGradient>
<linearGradient id="paint32_linear" x1="1436.78" y1="211.795" x2="1365.38" y2="29.9916" gradientUnits="userSpaceOnUse">
<stop stop-color="#97C3F9"/>
<stop offset="1" stop-color="#93C1F9"/>
</linearGradient>
<linearGradient id="paint33_linear" x1="1349.23" y1="246.182" x2="1277.82" y2="64.3781" gradientUnits="userSpaceOnUse">
<stop/>
<stop offset="1" stop-color="white"/>
</linearGradient>
<linearGradient id="paint34_linear" x1="1349.23" y1="246.182" x2="1277.82" y2="64.3781" gradientUnits="userSpaceOnUse">
<stop stop-color="#97C3F9"/>
<stop offset="1" stop-color="#93C1F9"/>
</linearGradient>
<linearGradient id="paint35_linear" x1="1375.43" y1="235.89" x2="1304.03" y2="54.0866" gradientUnits="userSpaceOnUse">
<stop/>
<stop offset="1" stop-color="white"/>
</linearGradient>
<linearGradient id="paint36_linear" x1="1375.43" y1="235.89" x2="1304.03" y2="54.0866" gradientUnits="userSpaceOnUse">
<stop stop-color="#97C3F9"/>
<stop offset="1" stop-color="#93C1F9"/>
</linearGradient>
<linearGradient id="paint37_linear" x1="1401.64" y1="225.599" x2="1330.23" y2="43.7953" gradientUnits="userSpaceOnUse">
<stop/>
<stop offset="1" stop-color="white"/>
</linearGradient>
<linearGradient id="paint38_linear" x1="1401.64" y1="225.599" x2="1330.23" y2="43.7953" gradientUnits="userSpaceOnUse">
<stop stop-color="#97C3F9"/>
<stop offset="1" stop-color="#93C1F9"/>
</linearGradient>
<linearGradient id="paint39_linear" x1="1427.84" y1="215.307" x2="1356.44" y2="33.5036" gradientUnits="userSpaceOnUse">
<stop/>
<stop offset="1" stop-color="white"/>
</linearGradient>
<linearGradient id="paint40_linear" x1="1427.84" y1="215.307" x2="1356.44" y2="33.5036" gradientUnits="userSpaceOnUse">
<stop stop-color="#97C3F9"/>
<stop offset="1" stop-color="#93C1F9"/>
</linearGradient>
<clipPath id="clip0">
<rect width="937.962" height="671.376" fill="white" transform="translate(-250.422) rotate(21.4558)"/>
</clipPath>
</defs>
</svg>
