<svg width="1330" height="820" viewBox="0 0 1330 820" fill="none" xmlns="http://www.w3.org/2000/svg">
<g opacity="0.6" clip-path="url(#clip0)">
<path d="M1766 493.365C1716.38 553.026 1614.06 479.618 1469.04 516.048C1343.44 547.615 1337.9 624.023 1236.94 622.53C1163.18 621.453 1081.91 580.72 1036.1 507.586C985.569 426.949 1001.38 343.33 1005.88 323.024C1026 231.945 1090.73 182.674 1113.57 165.829C1207.7 96.4671 1315.3 105.808 1366.93 110.264C1560.83 127.062 1771.04 260.462 1783.67 410.389C1785.34 430.017 1788.39 466.423 1766 493.365Z" fill="url(#paint0_linear)"/>
</g>
<g opacity="0.3">
<mask id="mask0" mask-type="alpha" maskUnits="userSpaceOnUse" x="0" y="432" width="11" height="11">
<path d="M5.22838 442.425C8.11594 442.425 10.4568 440.091 10.4568 437.212C10.4568 434.334 8.11594 432 5.22838 432C2.34082 432 0 434.334 0 437.212C0 440.091 2.34082 442.425 5.22838 442.425Z" fill="url(#paint1_linear)"/>
</mask>
<g mask="url(#mask0)">
<path d="M5.22838 442.425C8.11594 442.425 10.4568 440.091 10.4568 437.212C10.4568 434.334 8.11594 432 5.22838 432C2.34082 432 0 434.334 0 437.212C0 440.091 2.34082 442.425 5.22838 442.425Z" fill="url(#paint2_linear)"/>
</g>
<mask id="mask1" mask-type="alpha" maskUnits="userSpaceOnUse" x="30" y="432" width="11" height="11">
<path d="M35.5094 442.425C38.397 442.425 40.7378 440.091 40.7378 437.212C40.7378 434.334 38.397 432 35.5094 432C32.6218 432 30.281 434.334 30.281 437.212C30.281 440.091 32.6218 442.425 35.5094 442.425Z" fill="url(#paint3_linear)"/>
</mask>
<g mask="url(#mask1)">
<path d="M35.5094 442.425C38.397 442.425 40.7378 440.091 40.7378 437.212C40.7378 434.334 38.397 432 35.5094 432C32.6218 432 30.281 434.334 30.281 437.212C30.281 440.091 32.6218 442.425 35.5094 442.425Z" fill="url(#paint4_linear)"/>
</g>
<mask id="mask2" mask-type="alpha" maskUnits="userSpaceOnUse" x="60" y="432" width="12" height="11">
<path d="M65.7904 442.425C68.678 442.425 71.0188 440.091 71.0188 437.212C71.0188 434.334 68.678 432 65.7904 432C62.9028 432 60.562 434.334 60.562 437.212C60.562 440.091 62.9028 442.425 65.7904 442.425Z" fill="url(#paint5_linear)"/>
</mask>
<g mask="url(#mask2)">
<path d="M65.7904 442.425C68.678 442.425 71.0188 440.091 71.0188 437.212C71.0188 434.334 68.678 432 65.7904 432C62.9028 432 60.562 434.334 60.562 437.212C60.562 440.091 62.9028 442.425 65.7904 442.425Z" fill="url(#paint6_linear)"/>
</g>
<mask id="mask3" mask-type="alpha" maskUnits="userSpaceOnUse" x="90" y="432" width="12" height="11">
<path d="M96.0717 442.425C98.9592 442.425 101.3 440.091 101.3 437.212C101.3 434.334 98.9592 432 96.0717 432C93.1841 432 90.8433 434.334 90.8433 437.212C90.8433 440.091 93.1841 442.425 96.0717 442.425Z" fill="url(#paint7_linear)"/>
</mask>
<g mask="url(#mask3)">
<path d="M96.0717 442.425C98.9592 442.425 101.3 440.091 101.3 437.212C101.3 434.334 98.9592 432 96.0717 432C93.1841 432 90.8433 434.334 90.8433 437.212C90.8433 440.091 93.1841 442.425 96.0717 442.425Z" fill="url(#paint8_linear)"/>
</g>
<mask id="mask4" mask-type="alpha" maskUnits="userSpaceOnUse" x="121" y="432" width="11" height="11">
<path d="M126.353 442.425C129.24 442.425 131.581 440.091 131.581 437.212C131.581 434.334 129.24 432 126.353 432C123.465 432 121.124 434.334 121.124 437.212C121.124 440.091 123.465 442.425 126.353 442.425Z" fill="url(#paint9_linear)"/>
</mask>
<g mask="url(#mask4)">
<path d="M126.353 442.425C129.24 442.425 131.581 440.091 131.581 437.212C131.581 434.334 129.24 432 126.353 432C123.465 432 121.124 434.334 121.124 437.212C121.124 440.091 123.465 442.425 126.353 442.425Z" fill="url(#paint10_linear)"/>
</g>
<mask id="mask5" mask-type="alpha" maskUnits="userSpaceOnUse" x="0" y="458" width="11" height="11">
<path d="M5.22838 468.596C8.11594 468.596 10.4568 466.262 10.4568 463.383C10.4568 460.505 8.11594 458.171 5.22838 458.171C2.34082 458.171 0 460.505 0 463.383C0 466.262 2.34082 468.596 5.22838 468.596Z" fill="url(#paint11_linear)"/>
</mask>
<g mask="url(#mask5)">
<path d="M5.22838 468.596C8.11594 468.596 10.4568 466.262 10.4568 463.383C10.4568 460.505 8.11594 458.171 5.22838 458.171C2.34082 458.171 0 460.505 0 463.383C0 466.262 2.34082 468.596 5.22838 468.596Z" fill="url(#paint12_linear)"/>
</g>
<mask id="mask6" mask-type="alpha" maskUnits="userSpaceOnUse" x="30" y="458" width="11" height="11">
<path d="M35.5094 468.596C38.397 468.596 40.7378 466.262 40.7378 463.383C40.7378 460.505 38.397 458.171 35.5094 458.171C32.6218 458.171 30.281 460.505 30.281 463.383C30.281 466.262 32.6218 468.596 35.5094 468.596Z" fill="url(#paint13_linear)"/>
</mask>
<g mask="url(#mask6)">
<path d="M35.5094 468.596C38.397 468.596 40.7378 466.262 40.7378 463.383C40.7378 460.505 38.397 458.171 35.5094 458.171C32.6218 458.171 30.281 460.505 30.281 463.383C30.281 466.262 32.6218 468.596 35.5094 468.596Z" fill="url(#paint14_linear)"/>
</g>
<mask id="mask7" mask-type="alpha" maskUnits="userSpaceOnUse" x="60" y="458" width="12" height="11">
<path d="M65.7904 468.596C68.678 468.596 71.0188 466.262 71.0188 463.383C71.0188 460.505 68.678 458.171 65.7904 458.171C62.9028 458.171 60.562 460.505 60.562 463.383C60.562 466.262 62.9028 468.596 65.7904 468.596Z" fill="url(#paint15_linear)"/>
</mask>
<g mask="url(#mask7)">
<path d="M65.7904 468.596C68.678 468.596 71.0188 466.262 71.0188 463.383C71.0188 460.505 68.678 458.171 65.7904 458.171C62.9028 458.171 60.562 460.505 60.562 463.383C60.562 466.262 62.9028 468.596 65.7904 468.596Z" fill="url(#paint16_linear)"/>
</g>
<mask id="mask8" mask-type="alpha" maskUnits="userSpaceOnUse" x="90" y="458" width="12" height="11">
<path d="M96.0717 468.596C98.9592 468.596 101.3 466.262 101.3 463.383C101.3 460.505 98.9592 458.171 96.0717 458.171C93.1841 458.171 90.8433 460.505 90.8433 463.383C90.8433 466.262 93.1841 468.596 96.0717 468.596Z" fill="url(#paint17_linear)"/>
</mask>
<g mask="url(#mask8)">
<path d="M96.0717 468.596C98.9592 468.596 101.3 466.262 101.3 463.383C101.3 460.505 98.9592 458.171 96.0717 458.171C93.1841 458.171 90.8433 460.505 90.8433 463.383C90.8433 466.262 93.1841 468.596 96.0717 468.596Z" fill="url(#paint18_linear)"/>
</g>
<mask id="mask9" mask-type="alpha" maskUnits="userSpaceOnUse" x="121" y="458" width="11" height="11">
<path d="M126.353 468.596C129.24 468.596 131.581 466.262 131.581 463.383C131.581 460.505 129.24 458.171 126.353 458.171C123.465 458.171 121.124 460.505 121.124 463.383C121.124 466.262 123.465 468.596 126.353 468.596Z" fill="url(#paint19_linear)"/>
</mask>
<g mask="url(#mask9)">
<path d="M126.353 468.596C129.24 468.596 131.581 466.262 131.581 463.383C131.581 460.505 129.24 458.171 126.353 458.171C123.465 458.171 121.124 460.505 121.124 463.383C121.124 466.262 123.465 468.596 126.353 468.596Z" fill="url(#paint20_linear)"/>
</g>
<mask id="mask10" mask-type="alpha" maskUnits="userSpaceOnUse" x="0" y="484" width="11" height="11">
<path d="M5.22838 494.713C8.11594 494.713 10.4568 492.379 10.4568 489.5C10.4568 486.621 8.11594 484.288 5.22838 484.288C2.34082 484.288 0 486.621 0 489.5C0 492.379 2.34082 494.713 5.22838 494.713Z" fill="url(#paint21_linear)"/>
</mask>
<g mask="url(#mask10)">
<path d="M5.22838 494.713C8.11594 494.713 10.4568 492.379 10.4568 489.5C10.4568 486.621 8.11594 484.288 5.22838 484.288C2.34082 484.288 0 486.621 0 489.5C0 492.379 2.34082 494.713 5.22838 494.713Z" fill="url(#paint22_linear)"/>
</g>
<mask id="mask11" mask-type="alpha" maskUnits="userSpaceOnUse" x="30" y="484" width="11" height="11">
<path d="M35.5094 494.713C38.397 494.713 40.7378 492.379 40.7378 489.5C40.7378 486.621 38.397 484.288 35.5094 484.288C32.6218 484.288 30.281 486.621 30.281 489.5C30.281 492.379 32.6218 494.713 35.5094 494.713Z" fill="url(#paint23_linear)"/>
</mask>
<g mask="url(#mask11)">
<path d="M35.5094 494.713C38.397 494.713 40.7378 492.379 40.7378 489.5C40.7378 486.621 38.397 484.288 35.5094 484.288C32.6218 484.288 30.281 486.621 30.281 489.5C30.281 492.379 32.6218 494.713 35.5094 494.713Z" fill="url(#paint24_linear)"/>
</g>
<mask id="mask12" mask-type="alpha" maskUnits="userSpaceOnUse" x="60" y="484" width="12" height="11">
<path d="M65.7904 494.713C68.678 494.713 71.0188 492.379 71.0188 489.5C71.0188 486.621 68.678 484.288 65.7904 484.288C62.9028 484.288 60.562 486.621 60.562 489.5C60.562 492.379 62.9028 494.713 65.7904 494.713Z" fill="url(#paint25_linear)"/>
</mask>
<g mask="url(#mask12)">
<path d="M65.7904 494.713C68.678 494.713 71.0188 492.379 71.0188 489.5C71.0188 486.621 68.678 484.288 65.7904 484.288C62.9028 484.288 60.562 486.621 60.562 489.5C60.562 492.379 62.9028 494.713 65.7904 494.713Z" fill="url(#paint26_linear)"/>
</g>
<mask id="mask13" mask-type="alpha" maskUnits="userSpaceOnUse" x="90" y="484" width="12" height="11">
<path d="M96.0717 494.713C98.9592 494.713 101.3 492.379 101.3 489.5C101.3 486.621 98.9592 484.288 96.0717 484.288C93.1841 484.288 90.8433 486.621 90.8433 489.5C90.8433 492.379 93.1841 494.713 96.0717 494.713Z" fill="url(#paint27_linear)"/>
</mask>
<g mask="url(#mask13)">
<path d="M96.0717 494.713C98.9592 494.713 101.3 492.379 101.3 489.5C101.3 486.621 98.9592 484.288 96.0717 484.288C93.1841 484.288 90.8433 486.621 90.8433 489.5C90.8433 492.379 93.1841 494.713 96.0717 494.713Z" fill="url(#paint28_linear)"/>
</g>
<mask id="mask14" mask-type="alpha" maskUnits="userSpaceOnUse" x="121" y="484" width="11" height="11">
<path d="M126.353 494.713C129.24 494.713 131.581 492.379 131.581 489.5C131.581 486.621 129.24 484.288 126.353 484.288C123.465 484.288 121.124 486.621 121.124 489.5C121.124 492.379 123.465 494.713 126.353 494.713Z" fill="url(#paint29_linear)"/>
</mask>
<g mask="url(#mask14)">
<path d="M126.353 494.713C129.24 494.713 131.581 492.379 131.581 489.5C131.581 486.621 129.24 484.288 126.353 484.288C123.465 484.288 121.124 486.621 121.124 489.5C121.124 492.379 123.465 494.713 126.353 494.713Z" fill="url(#paint30_linear)"/>
</g>
<mask id="mask15" mask-type="alpha" maskUnits="userSpaceOnUse" x="0" y="510" width="11" height="11">
<path d="M5.22838 520.883C8.11594 520.883 10.4568 518.55 10.4568 515.671C10.4568 512.792 8.11594 510.458 5.22838 510.458C2.34082 510.458 0 512.792 0 515.671C0 518.55 2.34082 520.883 5.22838 520.883Z" fill="url(#paint31_linear)"/>
</mask>
<g mask="url(#mask15)">
<path d="M5.22838 520.883C8.11594 520.883 10.4568 518.55 10.4568 515.671C10.4568 512.792 8.11594 510.458 5.22838 510.458C2.34082 510.458 0 512.792 0 515.671C0 518.55 2.34082 520.883 5.22838 520.883Z" fill="url(#paint32_linear)"/>
</g>
<mask id="mask16" mask-type="alpha" maskUnits="userSpaceOnUse" x="30" y="510" width="11" height="11">
<path d="M35.5094 520.883C38.397 520.883 40.7378 518.55 40.7378 515.671C40.7378 512.792 38.397 510.458 35.5094 510.458C32.6218 510.458 30.281 512.792 30.281 515.671C30.281 518.55 32.6218 520.883 35.5094 520.883Z" fill="url(#paint33_linear)"/>
</mask>
<g mask="url(#mask16)">
<path d="M35.5094 520.883C38.397 520.883 40.7378 518.55 40.7378 515.671C40.7378 512.792 38.397 510.458 35.5094 510.458C32.6218 510.458 30.281 512.792 30.281 515.671C30.281 518.55 32.6218 520.883 35.5094 520.883Z" fill="url(#paint34_linear)"/>
</g>
<mask id="mask17" mask-type="alpha" maskUnits="userSpaceOnUse" x="60" y="510" width="12" height="11">
<path d="M65.7904 520.883C68.678 520.883 71.0188 518.55 71.0188 515.671C71.0188 512.792 68.678 510.458 65.7904 510.458C62.9028 510.458 60.562 512.792 60.562 515.671C60.562 518.55 62.9028 520.883 65.7904 520.883Z" fill="url(#paint35_linear)"/>
</mask>
<g mask="url(#mask17)">
<path d="M65.7904 520.883C68.678 520.883 71.0188 518.55 71.0188 515.671C71.0188 512.792 68.678 510.458 65.7904 510.458C62.9028 510.458 60.562 512.792 60.562 515.671C60.562 518.55 62.9028 520.883 65.7904 520.883Z" fill="url(#paint36_linear)"/>
</g>
<mask id="mask18" mask-type="alpha" maskUnits="userSpaceOnUse" x="90" y="510" width="12" height="11">
<path d="M96.0717 520.883C98.9592 520.883 101.3 518.55 101.3 515.671C101.3 512.792 98.9592 510.458 96.0717 510.458C93.1841 510.458 90.8433 512.792 90.8433 515.671C90.8433 518.55 93.1841 520.883 96.0717 520.883Z" fill="url(#paint37_linear)"/>
</mask>
<g mask="url(#mask18)">
<path d="M96.0717 520.883C98.9592 520.883 101.3 518.55 101.3 515.671C101.3 512.792 98.9592 510.458 96.0717 510.458C93.1841 510.458 90.8433 512.792 90.8433 515.671C90.8433 518.55 93.1841 520.883 96.0717 520.883Z" fill="url(#paint38_linear)"/>
</g>
<mask id="mask19" mask-type="alpha" maskUnits="userSpaceOnUse" x="121" y="510" width="11" height="11">
<path d="M126.353 520.883C129.24 520.883 131.581 518.55 131.581 515.671C131.581 512.792 129.24 510.458 126.353 510.458C123.465 510.458 121.124 512.792 121.124 515.671C121.124 518.55 123.465 520.883 126.353 520.883Z" fill="url(#paint39_linear)"/>
</mask>
<g mask="url(#mask19)">
<path d="M126.353 520.883C129.24 520.883 131.581 518.55 131.581 515.671C131.581 512.792 129.24 510.458 126.353 510.458C123.465 510.458 121.124 512.792 121.124 515.671C121.124 518.55 123.465 520.883 126.353 520.883Z" fill="url(#paint40_linear)"/>
</g>
<mask id="mask20" mask-type="alpha" maskUnits="userSpaceOnUse" x="0" y="536" width="11" height="11">
<path d="M5.22838 547C8.11594 547 10.4568 544.666 10.4568 541.787C10.4568 538.909 8.11594 536.575 5.22838 536.575C2.34082 536.575 0 538.909 0 541.787C0 544.666 2.34082 547 5.22838 547Z" fill="url(#paint41_linear)"/>
</mask>
<g mask="url(#mask20)">
<path d="M5.22838 547C8.11594 547 10.4568 544.666 10.4568 541.787C10.4568 538.909 8.11594 536.575 5.22838 536.575C2.34082 536.575 0 538.909 0 541.787C0 544.666 2.34082 547 5.22838 547Z" fill="url(#paint42_linear)"/>
</g>
<mask id="mask21" mask-type="alpha" maskUnits="userSpaceOnUse" x="30" y="536" width="11" height="11">
<path d="M35.5094 547C38.397 547 40.7378 544.666 40.7378 541.787C40.7378 538.909 38.397 536.575 35.5094 536.575C32.6218 536.575 30.281 538.909 30.281 541.787C30.281 544.666 32.6218 547 35.5094 547Z" fill="url(#paint43_linear)"/>
</mask>
<g mask="url(#mask21)">
<path d="M35.5094 547C38.397 547 40.7378 544.666 40.7378 541.787C40.7378 538.909 38.397 536.575 35.5094 536.575C32.6218 536.575 30.281 538.909 30.281 541.787C30.281 544.666 32.6218 547 35.5094 547Z" fill="url(#paint44_linear)"/>
</g>
<mask id="mask22" mask-type="alpha" maskUnits="userSpaceOnUse" x="60" y="536" width="12" height="11">
<path d="M65.7904 547C68.678 547 71.0188 544.666 71.0188 541.787C71.0188 538.909 68.678 536.575 65.7904 536.575C62.9028 536.575 60.562 538.909 60.562 541.787C60.562 544.666 62.9028 547 65.7904 547Z" fill="url(#paint45_linear)"/>
</mask>
<g mask="url(#mask22)">
<path d="M65.7904 547C68.678 547 71.0188 544.666 71.0188 541.787C71.0188 538.909 68.678 536.575 65.7904 536.575C62.9028 536.575 60.562 538.909 60.562 541.787C60.562 544.666 62.9028 547 65.7904 547Z" fill="url(#paint46_linear)"/>
</g>
<mask id="mask23" mask-type="alpha" maskUnits="userSpaceOnUse" x="90" y="536" width="12" height="11">
<path d="M96.0717 547C98.9592 547 101.3 544.666 101.3 541.787C101.3 538.909 98.9592 536.575 96.0717 536.575C93.1841 536.575 90.8433 538.909 90.8433 541.787C90.8433 544.666 93.1841 547 96.0717 547Z" fill="url(#paint47_linear)"/>
</mask>
<g mask="url(#mask23)">
<path d="M96.0717 547C98.9592 547 101.3 544.666 101.3 541.787C101.3 538.909 98.9592 536.575 96.0717 536.575C93.1841 536.575 90.8433 538.909 90.8433 541.787C90.8433 544.666 93.1841 547 96.0717 547Z" fill="url(#paint48_linear)"/>
</g>
<mask id="mask24" mask-type="alpha" maskUnits="userSpaceOnUse" x="121" y="536" width="11" height="11">
<path d="M126.353 547C129.24 547 131.581 544.666 131.581 541.787C131.581 538.909 129.24 536.575 126.353 536.575C123.465 536.575 121.124 538.909 121.124 541.787C121.124 544.666 123.465 547 126.353 547Z" fill="url(#paint49_linear)"/>
</mask>
<g mask="url(#mask24)">
<path d="M126.353 547C129.24 547 131.581 544.666 131.581 541.787C131.581 538.909 129.24 536.575 126.353 536.575C123.465 536.575 121.124 538.909 121.124 541.787C121.124 544.666 123.465 547 126.353 547Z" fill="url(#paint50_linear)"/>
</g>
</g>
<g opacity="0.26">
<mask id="mask25" mask-type="alpha" maskUnits="userSpaceOnUse" x="950" y="705" width="11" height="11">
<path d="M955.228 715.425C958.116 715.425 960.457 713.091 960.457 710.212C960.457 707.334 958.116 705 955.228 705C952.341 705 950 707.334 950 710.212C950 713.091 952.341 715.425 955.228 715.425Z" fill="#C5DEFD"/>
</mask>
<g mask="url(#mask25)">
<path d="M955.228 715.425C958.116 715.425 960.457 713.091 960.457 710.212C960.457 707.334 958.116 705 955.228 705C952.341 705 950 707.334 950 710.212C950 713.091 952.341 715.425 955.228 715.425Z" fill="#C5DEFD"/>
</g>
<mask id="mask26" mask-type="alpha" maskUnits="userSpaceOnUse" x="980" y="705" width="11" height="11">
<path d="M985.509 715.425C988.397 715.425 990.738 713.091 990.738 710.212C990.738 707.334 988.397 705 985.509 705C982.622 705 980.281 707.334 980.281 710.212C980.281 713.091 982.622 715.425 985.509 715.425Z" fill="#C5DEFD"/>
</mask>
<g mask="url(#mask26)">
<path d="M985.509 715.425C988.397 715.425 990.738 713.091 990.738 710.212C990.738 707.334 988.397 705 985.509 705C982.622 705 980.281 707.334 980.281 710.212C980.281 713.091 982.622 715.425 985.509 715.425Z" fill="#C5DEFD"/>
</g>
<mask id="mask27" mask-type="alpha" maskUnits="userSpaceOnUse" x="1010" y="705" width="12" height="11">
<path d="M1015.79 715.425C1018.68 715.425 1021.02 713.091 1021.02 710.212C1021.02 707.334 1018.68 705 1015.79 705C1012.9 705 1010.56 707.334 1010.56 710.212C1010.56 713.091 1012.9 715.425 1015.79 715.425Z" fill="#C5DEFD"/>
</mask>
<g mask="url(#mask27)">
<path d="M1015.79 715.425C1018.68 715.425 1021.02 713.091 1021.02 710.212C1021.02 707.334 1018.68 705 1015.79 705C1012.9 705 1010.56 707.334 1010.56 710.212C1010.56 713.091 1012.9 715.425 1015.79 715.425Z" fill="#C5DEFD"/>
</g>
<mask id="mask28" mask-type="alpha" maskUnits="userSpaceOnUse" x="1040" y="705" width="12" height="11">
<path d="M1046.07 715.425C1048.96 715.425 1051.3 713.091 1051.3 710.212C1051.3 707.334 1048.96 705 1046.07 705C1043.18 705 1040.84 707.334 1040.84 710.212C1040.84 713.091 1043.18 715.425 1046.07 715.425Z" fill="#C5DEFD"/>
</mask>
<g mask="url(#mask28)">
<path d="M1046.07 715.425C1048.96 715.425 1051.3 713.091 1051.3 710.212C1051.3 707.334 1048.96 705 1046.07 705C1043.18 705 1040.84 707.334 1040.84 710.212C1040.84 713.091 1043.18 715.425 1046.07 715.425Z" fill="#C5DEFD"/>
</g>
<mask id="mask29" mask-type="alpha" maskUnits="userSpaceOnUse" x="1071" y="705" width="11" height="11">
<path d="M1076.35 715.425C1079.24 715.425 1081.58 713.091 1081.58 710.212C1081.58 707.334 1079.24 705 1076.35 705C1073.47 705 1071.12 707.334 1071.12 710.212C1071.12 713.091 1073.47 715.425 1076.35 715.425Z" fill="#C5DEFD"/>
</mask>
<g mask="url(#mask29)">
<path d="M1076.35 715.425C1079.24 715.425 1081.58 713.091 1081.58 710.212C1081.58 707.334 1079.24 705 1076.35 705C1073.47 705 1071.12 707.334 1071.12 710.212C1071.12 713.091 1073.47 715.425 1076.35 715.425Z" fill="#C5DEFD"/>
</g>
<mask id="mask30" mask-type="alpha" maskUnits="userSpaceOnUse" x="950" y="731" width="11" height="11">
<path d="M955.228 741.596C958.116 741.596 960.457 739.262 960.457 736.383C960.457 733.505 958.116 731.171 955.228 731.171C952.341 731.171 950 733.505 950 736.383C950 739.262 952.341 741.596 955.228 741.596Z" fill="#C5DEFD"/>
</mask>
<g mask="url(#mask30)">
<path d="M955.228 741.596C958.116 741.596 960.457 739.262 960.457 736.383C960.457 733.505 958.116 731.171 955.228 731.171C952.341 731.171 950 733.505 950 736.383C950 739.262 952.341 741.596 955.228 741.596Z" fill="#C5DEFD"/>
</g>
<mask id="mask31" mask-type="alpha" maskUnits="userSpaceOnUse" x="980" y="731" width="11" height="11">
<path d="M985.509 741.596C988.397 741.596 990.738 739.262 990.738 736.383C990.738 733.505 988.397 731.171 985.509 731.171C982.622 731.171 980.281 733.505 980.281 736.383C980.281 739.262 982.622 741.596 985.509 741.596Z" fill="#C5DEFD"/>
</mask>
<g mask="url(#mask31)">
<path d="M985.509 741.596C988.397 741.596 990.738 739.262 990.738 736.383C990.738 733.505 988.397 731.171 985.509 731.171C982.622 731.171 980.281 733.505 980.281 736.383C980.281 739.262 982.622 741.596 985.509 741.596Z" fill="#C5DEFD"/>
</g>
<mask id="mask32" mask-type="alpha" maskUnits="userSpaceOnUse" x="1010" y="731" width="12" height="11">
<path d="M1015.79 741.596C1018.68 741.596 1021.02 739.262 1021.02 736.383C1021.02 733.505 1018.68 731.171 1015.79 731.171C1012.9 731.171 1010.56 733.505 1010.56 736.383C1010.56 739.262 1012.9 741.596 1015.79 741.596Z" fill="#C5DEFD"/>
</mask>
<g mask="url(#mask32)">
<path d="M1015.79 741.596C1018.68 741.596 1021.02 739.262 1021.02 736.383C1021.02 733.505 1018.68 731.171 1015.79 731.171C1012.9 731.171 1010.56 733.505 1010.56 736.383C1010.56 739.262 1012.9 741.596 1015.79 741.596Z" fill="#C5DEFD"/>
</g>
<mask id="mask33" mask-type="alpha" maskUnits="userSpaceOnUse" x="1040" y="731" width="12" height="11">
<path d="M1046.07 741.596C1048.96 741.596 1051.3 739.262 1051.3 736.383C1051.3 733.505 1048.96 731.171 1046.07 731.171C1043.18 731.171 1040.84 733.505 1040.84 736.383C1040.84 739.262 1043.18 741.596 1046.07 741.596Z" fill="#C5DEFD"/>
</mask>
<g mask="url(#mask33)">
<path d="M1046.07 741.596C1048.96 741.596 1051.3 739.262 1051.3 736.383C1051.3 733.505 1048.96 731.171 1046.07 731.171C1043.18 731.171 1040.84 733.505 1040.84 736.383C1040.84 739.262 1043.18 741.596 1046.07 741.596Z" fill="#C5DEFD"/>
</g>
<mask id="mask34" mask-type="alpha" maskUnits="userSpaceOnUse" x="1071" y="731" width="11" height="11">
<path d="M1076.35 741.596C1079.24 741.596 1081.58 739.262 1081.58 736.383C1081.58 733.505 1079.24 731.171 1076.35 731.171C1073.47 731.171 1071.12 733.505 1071.12 736.383C1071.12 739.262 1073.47 741.596 1076.35 741.596Z" fill="#C5DEFD"/>
</mask>
<g mask="url(#mask34)">
<path d="M1076.35 741.596C1079.24 741.596 1081.58 739.262 1081.58 736.383C1081.58 733.505 1079.24 731.171 1076.35 731.171C1073.47 731.171 1071.12 733.505 1071.12 736.383C1071.12 739.262 1073.47 741.596 1076.35 741.596Z" fill="#C5DEFD"/>
</g>
<mask id="mask35" mask-type="alpha" maskUnits="userSpaceOnUse" x="950" y="757" width="11" height="11">
<path d="M955.228 767.713C958.116 767.713 960.457 765.379 960.457 762.5C960.457 759.621 958.116 757.288 955.228 757.288C952.341 757.288 950 759.621 950 762.5C950 765.379 952.341 767.713 955.228 767.713Z" fill="#C5DEFD"/>
</mask>
<g mask="url(#mask35)">
<path d="M955.228 767.713C958.116 767.713 960.457 765.379 960.457 762.5C960.457 759.621 958.116 757.288 955.228 757.288C952.341 757.288 950 759.621 950 762.5C950 765.379 952.341 767.713 955.228 767.713Z" fill="#C5DEFD"/>
</g>
<mask id="mask36" mask-type="alpha" maskUnits="userSpaceOnUse" x="980" y="757" width="11" height="11">
<path d="M985.509 767.713C988.397 767.713 990.738 765.379 990.738 762.5C990.738 759.621 988.397 757.288 985.509 757.288C982.622 757.288 980.281 759.621 980.281 762.5C980.281 765.379 982.622 767.713 985.509 767.713Z" fill="#C5DEFD"/>
</mask>
<g mask="url(#mask36)">
<path d="M985.509 767.713C988.397 767.713 990.738 765.379 990.738 762.5C990.738 759.621 988.397 757.288 985.509 757.288C982.622 757.288 980.281 759.621 980.281 762.5C980.281 765.379 982.622 767.713 985.509 767.713Z" fill="#C5DEFD"/>
</g>
<mask id="mask37" mask-type="alpha" maskUnits="userSpaceOnUse" x="1010" y="757" width="12" height="11">
<path d="M1015.79 767.713C1018.68 767.713 1021.02 765.379 1021.02 762.5C1021.02 759.621 1018.68 757.288 1015.79 757.288C1012.9 757.288 1010.56 759.621 1010.56 762.5C1010.56 765.379 1012.9 767.713 1015.79 767.713Z" fill="#C5DEFD"/>
</mask>
<g mask="url(#mask37)">
<path d="M1015.79 767.713C1018.68 767.713 1021.02 765.379 1021.02 762.5C1021.02 759.621 1018.68 757.288 1015.79 757.288C1012.9 757.288 1010.56 759.621 1010.56 762.5C1010.56 765.379 1012.9 767.713 1015.79 767.713Z" fill="#C5DEFD"/>
</g>
<mask id="mask38" mask-type="alpha" maskUnits="userSpaceOnUse" x="1040" y="757" width="12" height="11">
<path d="M1046.07 767.713C1048.96 767.713 1051.3 765.379 1051.3 762.5C1051.3 759.621 1048.96 757.288 1046.07 757.288C1043.18 757.288 1040.84 759.621 1040.84 762.5C1040.84 765.379 1043.18 767.713 1046.07 767.713Z" fill="#C5DEFD"/>
</mask>
<g mask="url(#mask38)">
<path d="M1046.07 767.713C1048.96 767.713 1051.3 765.379 1051.3 762.5C1051.3 759.621 1048.96 757.288 1046.07 757.288C1043.18 757.288 1040.84 759.621 1040.84 762.5C1040.84 765.379 1043.18 767.713 1046.07 767.713Z" fill="#C5DEFD"/>
</g>
<mask id="mask39" mask-type="alpha" maskUnits="userSpaceOnUse" x="1071" y="757" width="11" height="11">
<path d="M1076.35 767.713C1079.24 767.713 1081.58 765.379 1081.58 762.5C1081.58 759.621 1079.24 757.288 1076.35 757.288C1073.47 757.288 1071.12 759.621 1071.12 762.5C1071.12 765.379 1073.47 767.713 1076.35 767.713Z" fill="#C5DEFD"/>
</mask>
<g mask="url(#mask39)">
<path d="M1076.35 767.713C1079.24 767.713 1081.58 765.379 1081.58 762.5C1081.58 759.621 1079.24 757.288 1076.35 757.288C1073.47 757.288 1071.12 759.621 1071.12 762.5C1071.12 765.379 1073.47 767.713 1076.35 767.713Z" fill="#C5DEFD"/>
</g>
<mask id="mask40" mask-type="alpha" maskUnits="userSpaceOnUse" x="950" y="783" width="11" height="11">
<path d="M955.228 793.883C958.116 793.883 960.457 791.55 960.457 788.671C960.457 785.792 958.116 783.458 955.228 783.458C952.341 783.458 950 785.792 950 788.671C950 791.55 952.341 793.883 955.228 793.883Z" fill="#C5DEFD"/>
</mask>
<g mask="url(#mask40)">
<path d="M955.228 793.883C958.116 793.883 960.457 791.55 960.457 788.671C960.457 785.792 958.116 783.458 955.228 783.458C952.341 783.458 950 785.792 950 788.671C950 791.55 952.341 793.883 955.228 793.883Z" fill="#C5DEFD"/>
</g>
<mask id="mask41" mask-type="alpha" maskUnits="userSpaceOnUse" x="980" y="783" width="11" height="11">
<path d="M985.509 793.883C988.397 793.883 990.738 791.55 990.738 788.671C990.738 785.792 988.397 783.458 985.509 783.458C982.622 783.458 980.281 785.792 980.281 788.671C980.281 791.55 982.622 793.883 985.509 793.883Z" fill="#C5DEFD"/>
</mask>
<g mask="url(#mask41)">
<path d="M985.509 793.883C988.397 793.883 990.738 791.55 990.738 788.671C990.738 785.792 988.397 783.458 985.509 783.458C982.622 783.458 980.281 785.792 980.281 788.671C980.281 791.55 982.622 793.883 985.509 793.883Z" fill="#C5DEFD"/>
</g>
<mask id="mask42" mask-type="alpha" maskUnits="userSpaceOnUse" x="1010" y="783" width="12" height="11">
<path d="M1015.79 793.883C1018.68 793.883 1021.02 791.55 1021.02 788.671C1021.02 785.792 1018.68 783.458 1015.79 783.458C1012.9 783.458 1010.56 785.792 1010.56 788.671C1010.56 791.55 1012.9 793.883 1015.79 793.883Z" fill="#C5DEFD"/>
</mask>
<g mask="url(#mask42)">
<path d="M1015.79 793.883C1018.68 793.883 1021.02 791.55 1021.02 788.671C1021.02 785.792 1018.68 783.458 1015.79 783.458C1012.9 783.458 1010.56 785.792 1010.56 788.671C1010.56 791.55 1012.9 793.883 1015.79 793.883Z" fill="#C5DEFD"/>
</g>
<mask id="mask43" mask-type="alpha" maskUnits="userSpaceOnUse" x="1040" y="783" width="12" height="11">
<path d="M1046.07 793.883C1048.96 793.883 1051.3 791.55 1051.3 788.671C1051.3 785.792 1048.96 783.458 1046.07 783.458C1043.18 783.458 1040.84 785.792 1040.84 788.671C1040.84 791.55 1043.18 793.883 1046.07 793.883Z" fill="#C5DEFD"/>
</mask>
<g mask="url(#mask43)">
<path d="M1046.07 793.883C1048.96 793.883 1051.3 791.55 1051.3 788.671C1051.3 785.792 1048.96 783.458 1046.07 783.458C1043.18 783.458 1040.84 785.792 1040.84 788.671C1040.84 791.55 1043.18 793.883 1046.07 793.883Z" fill="#C5DEFD"/>
</g>
<mask id="mask44" mask-type="alpha" maskUnits="userSpaceOnUse" x="1071" y="783" width="11" height="11">
<path d="M1076.35 793.883C1079.24 793.883 1081.58 791.55 1081.58 788.671C1081.58 785.792 1079.24 783.458 1076.35 783.458C1073.47 783.458 1071.12 785.792 1071.12 788.671C1071.12 791.55 1073.47 793.883 1076.35 793.883Z" fill="#C5DEFD"/>
</mask>
<g mask="url(#mask44)">
<path d="M1076.35 793.883C1079.24 793.883 1081.58 791.55 1081.58 788.671C1081.58 785.792 1079.24 783.458 1076.35 783.458C1073.47 783.458 1071.12 785.792 1071.12 788.671C1071.12 791.55 1073.47 793.883 1076.35 793.883Z" fill="#C5DEFD"/>
</g>
<mask id="mask45" mask-type="alpha" maskUnits="userSpaceOnUse" x="950" y="809" width="11" height="11">
<path d="M955.228 820C958.116 820 960.457 817.666 960.457 814.787C960.457 811.909 958.116 809.575 955.228 809.575C952.341 809.575 950 811.909 950 814.787C950 817.666 952.341 820 955.228 820Z" fill="#C5DEFD"/>
</mask>
<g mask="url(#mask45)">
<path d="M955.228 820C958.116 820 960.457 817.666 960.457 814.787C960.457 811.909 958.116 809.575 955.228 809.575C952.341 809.575 950 811.909 950 814.787C950 817.666 952.341 820 955.228 820Z" fill="#C5DEFD"/>
</g>
<mask id="mask46" mask-type="alpha" maskUnits="userSpaceOnUse" x="980" y="809" width="11" height="11">
<path d="M985.509 820C988.397 820 990.738 817.666 990.738 814.787C990.738 811.909 988.397 809.575 985.509 809.575C982.622 809.575 980.281 811.909 980.281 814.787C980.281 817.666 982.622 820 985.509 820Z" fill="#C5DEFD"/>
</mask>
<g mask="url(#mask46)">
<path d="M985.509 820C988.397 820 990.738 817.666 990.738 814.787C990.738 811.909 988.397 809.575 985.509 809.575C982.622 809.575 980.281 811.909 980.281 814.787C980.281 817.666 982.622 820 985.509 820Z" fill="#C5DEFD"/>
</g>
<mask id="mask47" mask-type="alpha" maskUnits="userSpaceOnUse" x="1010" y="809" width="12" height="11">
<path d="M1015.79 820C1018.68 820 1021.02 817.666 1021.02 814.787C1021.02 811.909 1018.68 809.575 1015.79 809.575C1012.9 809.575 1010.56 811.909 1010.56 814.787C1010.56 817.666 1012.9 820 1015.79 820Z" fill="#C5DEFD"/>
</mask>
<g mask="url(#mask47)">
<path d="M1015.79 820C1018.68 820 1021.02 817.666 1021.02 814.787C1021.02 811.909 1018.68 809.575 1015.79 809.575C1012.9 809.575 1010.56 811.909 1010.56 814.787C1010.56 817.666 1012.9 820 1015.79 820Z" fill="#C5DEFD"/>
</g>
<mask id="mask48" mask-type="alpha" maskUnits="userSpaceOnUse" x="1040" y="809" width="12" height="11">
<path d="M1046.07 820C1048.96 820 1051.3 817.666 1051.3 814.787C1051.3 811.909 1048.96 809.575 1046.07 809.575C1043.18 809.575 1040.84 811.909 1040.84 814.787C1040.84 817.666 1043.18 820 1046.07 820Z" fill="#C5DEFD"/>
</mask>
<g mask="url(#mask48)">
<path d="M1046.07 820C1048.96 820 1051.3 817.666 1051.3 814.787C1051.3 811.909 1048.96 809.575 1046.07 809.575C1043.18 809.575 1040.84 811.909 1040.84 814.787C1040.84 817.666 1043.18 820 1046.07 820Z" fill="#C5DEFD"/>
</g>
<mask id="mask49" mask-type="alpha" maskUnits="userSpaceOnUse" x="1071" y="809" width="11" height="11">
<path d="M1076.35 820C1079.24 820 1081.58 817.666 1081.58 814.787C1081.58 811.909 1079.24 809.575 1076.35 809.575C1073.47 809.575 1071.12 811.909 1071.12 814.787C1071.12 817.666 1073.47 820 1076.35 820Z" fill="#C5DEFD"/>
</mask>
<g mask="url(#mask49)">
<path d="M1076.35 820C1079.24 820 1081.58 817.666 1081.58 814.787C1081.58 811.909 1079.24 809.575 1076.35 809.575C1073.47 809.575 1071.12 811.909 1071.12 814.787C1071.12 817.666 1073.47 820 1076.35 820Z" fill="#C5DEFD"/>
</g>
</g>
<defs>
<linearGradient id="paint0_linear" x1="1286.01" y1="742.124" x2="1467.15" y2="151.876" gradientUnits="userSpaceOnUse">
<stop stop-color="#F3F7FF"/>
<stop offset="1" stop-color="#DEEEFE"/>
</linearGradient>
<linearGradient id="paint1_linear" x1="54.996" y1="563.134" x2="-16.4057" y2="381.33" gradientUnits="userSpaceOnUse">
<stop/>
<stop offset="1" stop-color="white"/>
</linearGradient>
<linearGradient id="paint2_linear" x1="54.996" y1="563.134" x2="-16.4057" y2="381.33" gradientUnits="userSpaceOnUse">
<stop stop-color="#97C3F9"/>
<stop offset="1" stop-color="#93C1F9"/>
</linearGradient>
<linearGradient id="paint3_linear" x1="81.2005" y1="552.843" x2="9.79883" y2="371.039" gradientUnits="userSpaceOnUse">
<stop/>
<stop offset="1" stop-color="white"/>
</linearGradient>
<linearGradient id="paint4_linear" x1="81.2005" y1="552.843" x2="9.79883" y2="371.039" gradientUnits="userSpaceOnUse">
<stop stop-color="#97C3F9"/>
<stop offset="1" stop-color="#93C1F9"/>
</linearGradient>
<linearGradient id="paint5_linear" x1="107.405" y1="542.551" x2="36.0032" y2="360.747" gradientUnits="userSpaceOnUse">
<stop/>
<stop offset="1" stop-color="white"/>
</linearGradient>
<linearGradient id="paint6_linear" x1="107.405" y1="542.551" x2="36.0032" y2="360.747" gradientUnits="userSpaceOnUse">
<stop stop-color="#97C3F9"/>
<stop offset="1" stop-color="#93C1F9"/>
</linearGradient>
<linearGradient id="paint7_linear" x1="133.609" y1="532.259" x2="62.2076" y2="350.456" gradientUnits="userSpaceOnUse">
<stop/>
<stop offset="1" stop-color="white"/>
</linearGradient>
<linearGradient id="paint8_linear" x1="133.609" y1="532.259" x2="62.2076" y2="350.456" gradientUnits="userSpaceOnUse">
<stop stop-color="#97C3F9"/>
<stop offset="1" stop-color="#93C1F9"/>
</linearGradient>
<linearGradient id="paint9_linear" x1="159.813" y1="521.968" x2="88.4119" y2="340.164" gradientUnits="userSpaceOnUse">
<stop/>
<stop offset="1" stop-color="white"/>
</linearGradient>
<linearGradient id="paint10_linear" x1="159.813" y1="521.968" x2="88.4119" y2="340.164" gradientUnits="userSpaceOnUse">
<stop stop-color="#97C3F9"/>
<stop offset="1" stop-color="#93C1F9"/>
</linearGradient>
<linearGradient id="paint11_linear" x1="46.0538" y1="566.645" x2="-25.3466" y2="384.843" gradientUnits="userSpaceOnUse">
<stop/>
<stop offset="1" stop-color="white"/>
</linearGradient>
<linearGradient id="paint12_linear" x1="46.0538" y1="566.645" x2="-25.3466" y2="384.843" gradientUnits="userSpaceOnUse">
<stop stop-color="#97C3F9"/>
<stop offset="1" stop-color="#93C1F9"/>
</linearGradient>
<linearGradient id="paint13_linear" x1="72.258" y1="556.354" x2="0.857657" y2="374.551" gradientUnits="userSpaceOnUse">
<stop/>
<stop offset="1" stop-color="white"/>
</linearGradient>
<linearGradient id="paint14_linear" x1="72.258" y1="556.354" x2="0.857657" y2="374.551" gradientUnits="userSpaceOnUse">
<stop stop-color="#97C3F9"/>
<stop offset="1" stop-color="#93C1F9"/>
</linearGradient>
<linearGradient id="paint15_linear" x1="98.4623" y1="546.062" x2="27.0619" y2="364.26" gradientUnits="userSpaceOnUse">
<stop/>
<stop offset="1" stop-color="white"/>
</linearGradient>
<linearGradient id="paint16_linear" x1="98.4623" y1="546.062" x2="27.0619" y2="364.26" gradientUnits="userSpaceOnUse">
<stop stop-color="#97C3F9"/>
<stop offset="1" stop-color="#93C1F9"/>
</linearGradient>
<linearGradient id="paint17_linear" x1="124.667" y1="535.771" x2="53.2664" y2="353.968" gradientUnits="userSpaceOnUse">
<stop/>
<stop offset="1" stop-color="white"/>
</linearGradient>
<linearGradient id="paint18_linear" x1="124.667" y1="535.771" x2="53.2664" y2="353.968" gradientUnits="userSpaceOnUse">
<stop stop-color="#97C3F9"/>
<stop offset="1" stop-color="#93C1F9"/>
</linearGradient>
<linearGradient id="paint19_linear" x1="150.871" y1="525.479" x2="79.4707" y2="343.677" gradientUnits="userSpaceOnUse">
<stop/>
<stop offset="1" stop-color="white"/>
</linearGradient>
<linearGradient id="paint20_linear" x1="150.871" y1="525.479" x2="79.4707" y2="343.677" gradientUnits="userSpaceOnUse">
<stop stop-color="#97C3F9"/>
<stop offset="1" stop-color="#93C1F9"/>
</linearGradient>
<linearGradient id="paint21_linear" x1="37.1113" y1="570.158" x2="-34.2903" y2="388.354" gradientUnits="userSpaceOnUse">
<stop/>
<stop offset="1" stop-color="white"/>
</linearGradient>
<linearGradient id="paint22_linear" x1="37.1113" y1="570.158" x2="-34.2903" y2="388.354" gradientUnits="userSpaceOnUse">
<stop stop-color="#97C3F9"/>
<stop offset="1" stop-color="#93C1F9"/>
</linearGradient>
<linearGradient id="paint23_linear" x1="63.3157" y1="559.867" x2="-8.08596" y2="378.063" gradientUnits="userSpaceOnUse">
<stop/>
<stop offset="1" stop-color="white"/>
</linearGradient>
<linearGradient id="paint24_linear" x1="63.3157" y1="559.867" x2="-8.08596" y2="378.063" gradientUnits="userSpaceOnUse">
<stop stop-color="#97C3F9"/>
<stop offset="1" stop-color="#93C1F9"/>
</linearGradient>
<linearGradient id="paint25_linear" x1="89.5199" y1="549.575" x2="18.1184" y2="367.771" gradientUnits="userSpaceOnUse">
<stop/>
<stop offset="1" stop-color="white"/>
</linearGradient>
<linearGradient id="paint26_linear" x1="89.5199" y1="549.575" x2="18.1184" y2="367.771" gradientUnits="userSpaceOnUse">
<stop stop-color="#97C3F9"/>
<stop offset="1" stop-color="#93C1F9"/>
</linearGradient>
<linearGradient id="paint27_linear" x1="115.724" y1="539.283" x2="44.3228" y2="357.48" gradientUnits="userSpaceOnUse">
<stop/>
<stop offset="1" stop-color="white"/>
</linearGradient>
<linearGradient id="paint28_linear" x1="115.724" y1="539.283" x2="44.3228" y2="357.48" gradientUnits="userSpaceOnUse">
<stop stop-color="#97C3F9"/>
<stop offset="1" stop-color="#93C1F9"/>
</linearGradient>
<linearGradient id="paint29_linear" x1="141.929" y1="528.992" x2="70.5271" y2="347.188" gradientUnits="userSpaceOnUse">
<stop/>
<stop offset="1" stop-color="white"/>
</linearGradient>
<linearGradient id="paint30_linear" x1="141.929" y1="528.992" x2="70.5271" y2="347.188" gradientUnits="userSpaceOnUse">
<stop stop-color="#97C3F9"/>
<stop offset="1" stop-color="#93C1F9"/>
</linearGradient>
<linearGradient id="paint31_linear" x1="28.169" y1="573.67" x2="-43.2327" y2="391.866" gradientUnits="userSpaceOnUse">
<stop/>
<stop offset="1" stop-color="white"/>
</linearGradient>
<linearGradient id="paint32_linear" x1="28.169" y1="573.67" x2="-43.2327" y2="391.866" gradientUnits="userSpaceOnUse">
<stop stop-color="#97C3F9"/>
<stop offset="1" stop-color="#93C1F9"/>
</linearGradient>
<linearGradient id="paint33_linear" x1="54.3733" y1="563.379" x2="-17.0284" y2="381.575" gradientUnits="userSpaceOnUse">
<stop/>
<stop offset="1" stop-color="white"/>
</linearGradient>
<linearGradient id="paint34_linear" x1="54.3733" y1="563.379" x2="-17.0284" y2="381.575" gradientUnits="userSpaceOnUse">
<stop stop-color="#97C3F9"/>
<stop offset="1" stop-color="#93C1F9"/>
</linearGradient>
<linearGradient id="paint35_linear" x1="80.5775" y1="553.087" x2="9.17597" y2="371.283" gradientUnits="userSpaceOnUse">
<stop/>
<stop offset="1" stop-color="white"/>
</linearGradient>
<linearGradient id="paint36_linear" x1="80.5775" y1="553.087" x2="9.17597" y2="371.283" gradientUnits="userSpaceOnUse">
<stop stop-color="#97C3F9"/>
<stop offset="1" stop-color="#93C1F9"/>
</linearGradient>
<linearGradient id="paint37_linear" x1="106.782" y1="542.796" x2="35.3804" y2="360.992" gradientUnits="userSpaceOnUse">
<stop/>
<stop offset="1" stop-color="white"/>
</linearGradient>
<linearGradient id="paint38_linear" x1="106.782" y1="542.796" x2="35.3804" y2="360.992" gradientUnits="userSpaceOnUse">
<stop stop-color="#97C3F9"/>
<stop offset="1" stop-color="#93C1F9"/>
</linearGradient>
<linearGradient id="paint39_linear" x1="132.986" y1="532.504" x2="61.5847" y2="350.7" gradientUnits="userSpaceOnUse">
<stop/>
<stop offset="1" stop-color="white"/>
</linearGradient>
<linearGradient id="paint40_linear" x1="132.986" y1="532.504" x2="61.5847" y2="350.7" gradientUnits="userSpaceOnUse">
<stop stop-color="#97C3F9"/>
<stop offset="1" stop-color="#93C1F9"/>
</linearGradient>
<linearGradient id="paint41_linear" x1="19.2266" y1="577.182" x2="-52.1751" y2="395.378" gradientUnits="userSpaceOnUse">
<stop/>
<stop offset="1" stop-color="white"/>
</linearGradient>
<linearGradient id="paint42_linear" x1="19.2266" y1="577.182" x2="-52.1751" y2="395.378" gradientUnits="userSpaceOnUse">
<stop stop-color="#97C3F9"/>
<stop offset="1" stop-color="#93C1F9"/>
</linearGradient>
<linearGradient id="paint43_linear" x1="45.4309" y1="566.89" x2="-25.9707" y2="385.087" gradientUnits="userSpaceOnUse">
<stop/>
<stop offset="1" stop-color="white"/>
</linearGradient>
<linearGradient id="paint44_linear" x1="45.4309" y1="566.89" x2="-25.9707" y2="385.087" gradientUnits="userSpaceOnUse">
<stop stop-color="#97C3F9"/>
<stop offset="1" stop-color="#93C1F9"/>
</linearGradient>
<linearGradient id="paint45_linear" x1="71.6352" y1="556.599" x2="0.233627" y2="374.795" gradientUnits="userSpaceOnUse">
<stop/>
<stop offset="1" stop-color="white"/>
</linearGradient>
<linearGradient id="paint46_linear" x1="71.6352" y1="556.599" x2="0.233627" y2="374.795" gradientUnits="userSpaceOnUse">
<stop stop-color="#97C3F9"/>
<stop offset="1" stop-color="#93C1F9"/>
</linearGradient>
<linearGradient id="paint47_linear" x1="97.8397" y1="546.307" x2="26.4381" y2="364.504" gradientUnits="userSpaceOnUse">
<stop/>
<stop offset="1" stop-color="white"/>
</linearGradient>
<linearGradient id="paint48_linear" x1="97.8397" y1="546.307" x2="26.4381" y2="364.504" gradientUnits="userSpaceOnUse">
<stop stop-color="#97C3F9"/>
<stop offset="1" stop-color="#93C1F9"/>
</linearGradient>
<linearGradient id="paint49_linear" x1="124.044" y1="536.016" x2="52.6424" y2="354.212" gradientUnits="userSpaceOnUse">
<stop/>
<stop offset="1" stop-color="white"/>
</linearGradient>
<linearGradient id="paint50_linear" x1="124.044" y1="536.016" x2="52.6424" y2="354.212" gradientUnits="userSpaceOnUse">
<stop stop-color="#97C3F9"/>
<stop offset="1" stop-color="#93C1F9"/>
</linearGradient>
<clipPath id="clip0">
<rect width="778.734" height="557.403" fill="white" transform="translate(1661.04 791.609) rotate(-159.843)"/>
</clipPath>
</defs>
</svg>
