<svg width="41" height="47" viewBox="0 0 41 47" fill="none" xmlns="http://www.w3.org/2000/svg">
<circle cx="20.5" cy="20.5" r="20.5" fill="#458FF6"/>
<path d="M20.268 29.234C18.8467 29.234 17.512 29.0433 16.264 28.662C15.0333 28.2807 13.9847 27.7347 13.118 27.024L14.262 24.58C15.1633 25.256 16.0993 25.7587 17.07 26.088C18.058 26.4 19.1327 26.556 20.294 26.556C21.5767 26.556 22.5647 26.3307 23.258 25.88C23.9687 25.4293 24.324 24.7967 24.324 23.982C24.324 23.2887 23.9947 22.76 23.336 22.396C22.6947 22.0147 21.6287 21.6593 20.138 21.33C17.8153 20.8273 16.1253 20.1773 15.068 19.38C14.0107 18.5827 13.482 17.4213 13.482 15.896C13.482 14.804 13.7767 13.8333 14.366 12.984C14.9553 12.1347 15.7873 11.4673 16.862 10.982C17.954 10.4967 19.2107 10.254 20.632 10.254C21.932 10.254 23.1627 10.4533 24.324 10.852C25.5027 11.2333 26.4647 11.7707 27.21 12.464L26.092 14.908C24.4453 13.5907 22.6253 12.932 20.632 12.932C19.436 12.932 18.4913 13.1833 17.798 13.686C17.1047 14.1713 16.758 14.8387 16.758 15.688C16.758 16.416 17.0613 16.9707 17.668 17.352C18.292 17.7333 19.3493 18.0887 20.84 18.418C22.3827 18.782 23.6393 19.1807 24.61 19.614C25.5807 20.03 26.326 20.576 26.846 21.252C27.366 21.9107 27.626 22.7427 27.626 23.748C27.626 24.8573 27.3313 25.828 26.742 26.66C26.1527 27.4747 25.3033 28.1073 24.194 28.558C23.0847 29.0087 21.776 29.234 20.268 29.234Z" fill="white"/>
</svg>
